<svg width="170" height="170" viewBox="0 0 170 170" fill="none" xmlns="http://www.w3.org/2000/svg">
<g id="Free shipping-amico-2 1">
<g id="freepik--Floor--inject-18">
<path id="freepik--floor--inject-18" d="M84.9998 165.301C130.536 165.301 167.45 143.686 167.45 117.021C167.45 90.3569 130.536 68.7412 84.9998 68.7412C39.4639 68.7412 2.5498 90.3569 2.5498 117.021C2.5498 143.686 39.4639 165.301 84.9998 165.301Z" fill="#FAFAFA"/>
</g>
<g id="freepik--Shadows--inject-18">
<path id="freepik--Shadow--inject-18" d="M50.9999 77.9042L10.7439 101.15C9.89395 101.643 9.89395 102.439 10.7439 102.928L104.145 156.917C105.149 157.433 106.299 157.586 107.403 157.352C125.13 152.497 138.982 144.225 147.863 134.137C148.015 133.976 148.127 133.782 148.191 133.571C148.255 133.359 148.269 133.136 148.231 132.918C148.193 132.7 148.106 132.494 147.974 132.316C147.843 132.138 147.672 131.993 147.475 131.893L54.0905 77.9042C53.612 77.66 53.0825 77.5327 52.5452 77.5327C52.008 77.5327 51.4785 77.66 50.9999 77.9042Z" fill="#EBEBEB"/>
<path id="freepik--shadow--inject-18" d="M38.6747 134.888C45.2713 134.888 50.6189 131.801 50.6189 127.993C50.6189 124.185 45.2713 121.098 38.6747 121.098C32.0781 121.098 26.7305 124.185 26.7305 127.993C26.7305 131.801 32.0781 134.888 38.6747 134.888Z" fill="#EBEBEB"/>
<path id="freepik--shadow--inject-18_2" d="M134.95 93.4999C130.53 96.0499 130.53 100.184 134.95 102.734C139.37 105.284 146.51 105.284 150.93 102.734C155.35 100.184 155.35 96.0499 150.93 93.4999C146.51 90.9499 139.363 90.9499 134.95 93.4999Z" fill="#EBEBEB"/>
</g>
<g id="freepik--Tree--inject-18">
<g id="freepik--tree--inject-18">
<path id="Vector" d="M148.92 71.8831L148.029 71.4309L143.776 80.9203V69.5269H142.12V78.7069L137.785 70.5639L136.938 71.0909L142.12 80.6109V97.8897C142.126 97.9632 142.152 98.0336 142.195 98.0935C142.239 98.1533 142.297 98.2004 142.365 98.2297C142.547 98.3236 142.75 98.3726 142.955 98.3726C143.16 98.3726 143.362 98.3236 143.545 98.2297C143.612 98.1996 143.669 98.1523 143.712 98.0925C143.754 98.0327 143.78 97.9627 143.786 97.8897V83.1303L148.92 71.8831Z" fill="#E0E0E0"/>
<path id="Vector_2" d="M164.301 63.7037C165.924 56.8266 161.665 49.9358 154.788 48.3126C147.911 46.6895 141.02 50.9487 139.397 57.8258C137.774 64.7028 142.033 71.5936 148.91 73.2168C155.787 74.8399 162.678 70.5808 164.301 63.7037Z" fill="#F0F0F0"/>
<path id="Vector_3" d="M155.866 57.4974C157.515 52.2988 159.266 50.2656 158.158 49.6332C156.038 48.4343 153.621 47.8651 151.189 47.9927C148.757 48.1202 146.412 48.9391 144.429 50.3531C142.447 51.7672 140.909 53.7177 139.997 55.9755C139.084 58.2332 138.835 60.7045 139.278 63.099C139.722 65.4935 140.839 67.7117 142.5 69.493C144.16 71.2743 146.294 72.5448 148.652 73.1551C151.009 73.7655 153.492 73.6904 155.808 72.9386C158.125 72.1869 160.178 70.7897 161.728 68.9112C157.937 70.0196 153.728 64.2362 155.866 57.4974Z" fill="#E0E0E0"/>
<path id="Vector_4" d="M140.692 64.3895C140.692 66.1681 140.165 67.9068 139.176 69.3857C138.188 70.8646 136.784 72.0173 135.141 72.6979C133.497 73.3786 131.689 73.5567 129.945 73.2097C128.2 72.8627 126.598 72.0062 125.34 70.7485C124.082 69.4908 123.226 67.8884 122.879 66.1439C122.532 64.3995 122.71 62.5913 123.391 60.948C124.071 59.3048 125.224 57.9002 126.703 56.9121C128.182 55.9239 129.92 55.3965 131.699 55.3965C134.084 55.3965 136.372 56.344 138.058 58.0305C139.745 59.717 140.692 62.0044 140.692 64.3895Z" fill="#F0F0F0"/>
<path id="Vector_5" d="M131.699 55.3965C129.812 55.3958 127.972 55.9907 126.443 57.0965C126.198 62.5909 130.863 67.9493 129.561 69.7479C128.258 71.5465 125.045 70.4449 123.927 68.9149C124.72 70.2784 125.858 71.4092 127.226 72.194C128.594 72.9787 130.145 73.3898 131.722 73.3859C133.3 73.3819 134.848 72.9632 136.213 72.1716C137.577 71.3801 138.71 70.2436 139.496 68.8762C140.282 67.5088 140.695 65.9586 140.693 64.3812C140.691 62.8038 140.274 61.2547 139.484 59.8894C138.694 58.524 137.559 57.3905 136.193 56.6024C134.826 55.8144 133.277 55.3997 131.699 55.3999V55.3965Z" fill="#E0E0E0"/>
<path id="Vector_6" d="M159.46 54.6926C159.461 57.9562 158.494 61.1467 156.681 63.8606C154.869 66.5744 152.292 68.6898 149.277 69.9392C146.262 71.1886 142.944 71.5159 139.743 70.8796C136.542 70.2433 133.602 68.6721 131.294 66.3646C128.986 64.0571 127.414 61.1171 126.777 57.9163C126.14 54.7155 126.467 51.3977 127.716 48.3824C128.964 45.3672 131.079 42.79 133.793 40.9768C136.506 39.1636 139.697 38.1958 142.96 38.1958C147.336 38.1958 151.532 39.9337 154.626 43.0274C157.721 46.1211 159.459 50.3171 159.46 54.6926Z" fill="#F0F0F0"/>
<path id="Vector_7" d="M159.004 58.4801C158.427 60.9406 157.291 63.2355 155.686 65.1877C154.081 67.1398 152.048 68.697 149.746 69.739C147.443 70.781 144.932 71.2801 142.406 71.1976C139.88 71.1151 137.406 70.4532 135.176 69.2632C132.947 68.0732 131.02 66.3867 129.546 64.334C128.071 62.2813 127.088 59.9172 126.672 57.4243C126.256 54.9313 126.419 52.3761 127.147 49.9559C127.875 47.5357 129.15 45.3152 130.873 43.4657C132.018 42.2349 132.09 42.1839 130.961 43.3739C130.674 44.6092 130.528 45.873 130.526 47.1411C130.524 50.4433 131.514 53.6699 133.367 56.4033C135.219 59.1367 137.85 61.251 140.918 62.4725C143.986 63.6941 147.35 63.9666 150.574 63.2548C153.799 62.543 156.736 60.8797 159.004 58.4801Z" fill="#EBEBEB"/>
</g>
</g>
<g id="freepik--Clouds--inject-18">
<g id="freepik--clouds--inject-18">
<path id="Vector_8" d="M28.1352 13.6001L25.5002 15.1199C25.5145 15.0071 25.5225 14.8936 25.524 14.7799V14.0081C25.524 12.6481 24.5686 12.1041 23.3956 12.7807C22.8897 13.0912 22.457 13.5076 22.1274 14.0013C21.9336 12.3013 20.594 11.6587 18.9688 12.5971C17.211 13.6171 15.7864 16.0821 15.7864 18.1119V19.2509C15.774 19.7065 15.8659 20.1588 16.055 20.5735L13.8722 21.8349C13.5292 22.0585 13.2437 22.3596 13.0387 22.714C12.8337 23.0684 12.7151 23.4661 12.6924 23.8749C12.6924 24.6263 13.2194 24.9323 13.8722 24.5549L28.1352 16.3201C28.4786 16.0967 28.7647 15.7957 28.9702 15.4413C29.1757 15.0869 29.295 14.6891 29.3184 14.2801C29.3184 13.5287 28.788 13.2261 28.1352 13.6001Z" fill="#F0F0F0"/>
<path id="Vector_9" d="M44.2006 19.132L42.215 20.2778C42.2257 20.1909 42.2313 20.1035 42.232 20.016V19.4414C42.232 18.4214 41.5112 17.9998 40.6238 18.5132C40.2434 18.7488 39.9177 19.063 39.6684 19.4346C39.5222 18.146 38.5124 17.6666 37.2884 18.3738C36.5894 18.8302 36.0075 19.4448 35.5899 20.1677C35.1723 20.8907 34.9307 21.7017 34.8846 22.5354V23.3956C34.8767 23.7399 34.9464 24.0815 35.0886 24.3952L33.4396 25.3472C33.1804 25.5165 32.9647 25.7444 32.8099 26.0126C32.6551 26.2808 32.5657 26.5816 32.5488 26.8908C32.5488 27.4586 32.9466 27.6898 33.4396 27.4042L44.2006 21.189C44.4602 21.0201 44.6763 20.7922 44.8311 20.5239C44.9859 20.2557 45.0751 19.9546 45.0914 19.6454C45.0812 19.0776 44.6834 18.8464 44.2006 19.132Z" fill="#F0F0F0"/>
</g>
</g>
<g id="freepik--Truck--inject-18">
<g id="freepik--truck--inject-18">
<g id="freepik--Back--inject-18">
<path id="Vector_10" d="M37.1211 102.908C37.1473 103.974 36.9468 105.033 36.5329 106.015C36.2223 106.745 35.6939 107.362 35.0199 107.78L34.9689 107.811L31.1813 109.993L29.6445 106.933L29.5391 106.729C28.6748 106.055 27.9031 105.27 27.2441 104.394C27.0741 104.179 26.9041 103.958 26.7613 103.731C25.8172 102.36 25.0816 100.857 24.5785 99.2699C24.1873 98.0701 23.9653 96.8216 23.9189 95.5605L23.8917 95.5095L23.5041 94.7411L22.6779 93.1601L22.3379 92.4801L25.7141 90.5251L25.9419 90.3925L26.0371 90.3381C26.5553 90.0444 27.1415 89.892 27.7371 89.8961C28.7136 89.9289 29.6643 90.2173 30.4945 90.7325C34.1597 92.8643 37.1211 98.3077 37.1211 102.908Z" fill="#263238"/>
<path id="Vector_11" d="M20.0605 97.4915C20.0605 101.459 22.2637 106.053 25.2115 108.593C25.6616 108.982 26.1464 109.329 26.6599 109.63C30.3149 111.744 33.2797 109.721 33.2763 105.118C33.2763 101.643 31.5763 97.6819 29.1963 95.0469C29.1963 95.0469 29.1963 95.0469 29.1759 95.0265C28.4519 94.216 27.608 93.5212 26.6735 92.9661C23.0049 90.8717 20.0605 92.8913 20.0605 97.4915Z" fill="#37474F"/>
<path id="Vector_12" d="M26.6565 95.7577C24.3343 94.4147 22.4473 95.812 22.4473 98.8822C22.4473 101.952 24.3343 105.526 26.6565 106.869C28.9787 108.212 30.8691 106.811 30.8691 103.744C30.8691 100.677 28.9821 97.1007 26.6565 95.7577Z" fill="#455A64"/>
<path id="Vector_13" d="M20.0605 97.4916C20.0605 101.459 22.2637 106.053 25.2115 108.593C23.1643 106.274 21.7229 103.485 21.0159 100.473C20.4549 97.8214 20.6759 94.0134 22.9437 93.0512C25.2115 92.089 28.2273 94.1154 29.1759 95.0402C28.4519 94.2297 27.608 93.5348 26.6735 92.9798C23.0049 90.8718 20.0605 92.8914 20.0605 97.4916Z" fill="#455A64"/>
<path id="Vector_14" d="M26.6564 98.4302C25.4494 97.7332 24.4736 98.4574 24.4736 100.052C24.4736 101.647 25.4494 103.5 26.6564 104.197C27.8634 104.894 28.8426 104.166 28.8426 102.575C28.8426 100.984 27.8804 99.1272 26.6564 98.4302Z" fill="#E0E0E0"/>
<path id="Vector_15" d="M25.9594 98.3994C25.8097 98.312 25.6483 98.2467 25.48 98.2056C24.8748 98.3688 24.46 99.0318 24.46 100.052C24.4989 101.261 24.935 102.424 25.701 103.36C25.7833 103.424 25.8696 103.483 25.9594 103.537C27.0338 104.156 27.9008 103.513 27.9008 102.095C27.9008 100.677 27.0338 99.0216 25.9594 98.3994Z" fill="#F5F5F5"/>
<path id="Vector_16" d="M22.042 88.1484V89.7532L69.2714 117.021V115.416L22.042 88.1484Z" fill="#455A64"/>
<path id="Vector_17" d="M36.6187 98.1718L34.0381 96.6792V105.448C34.0381 105.92 34.3781 106.111 34.7759 105.873L36.8159 104.7L36.6221 104.584L36.6187 98.1718Z" fill="#249C6B"/>
<path id="Vector_18" opacity="0.7" d="M36.6187 98.1718L34.0381 96.6792V105.448C34.0381 105.92 34.3781 106.111 34.7759 105.873L36.8159 104.7L36.6221 104.584L36.6187 98.1718Z" fill="white"/>
<path id="Vector_19" d="M36.6182 98.1714V102.982L48.4332 109.803V104.992L36.6182 98.1714Z" fill="#37474F"/>
<path id="Vector_20" d="M48.4334 109.803L36.6184 102.982L35.9316 103.39L48.4334 110.598V109.803Z" fill="#263238"/>
<path id="Vector_21" d="M35.9346 104.193V103.394L48.433 110.599V111.408L35.9346 104.193Z" fill="#455A64"/>
<path id="Vector_22" d="M48.4336 103.387V113.013L58.1576 118.626V109.001L48.4336 103.387Z" fill="#37474F"/>
<path id="Vector_23" d="M58.1572 109V118.626L67.8812 124.239V114.617L58.1572 109Z" fill="#37474F"/>
<path id="Vector_24" d="M67.8809 124.239L70.6587 122.634V114.614L69.2715 115.416L67.8809 114.617V124.239Z" fill="#263238"/>
<path id="Vector_25" d="M57.8066 118.422V108.8L58.5002 109.201V118.823L57.8066 118.422Z" fill="#263238"/>
<path id="Vector_26" d="M62.6689 114.815V113.21L63.3625 113.611L63.3659 115.216L62.6689 114.815Z" fill="#E0E0E0"/>
<path id="Vector_27" d="M52.9453 109.204V107.6L53.6389 107.997L53.6423 109.606L52.9453 109.204Z" fill="#E0E0E0"/>
<path id="Vector_28" opacity="0.2" d="M47.7225 102.976V109.395L47.0459 109.799V110.605L48.4331 111.408V103.387L47.7225 102.976Z" fill="black"/>
<path id="Vector_29" d="M19.2646 86.5471L69.2719 115.416L69.2752 112.22L19.2646 83.3511V86.5471Z" fill="#249C6B"/>
<g id="Group" opacity="0.6">
<path id="Vector_30" d="M19.2646 86.5471L69.2719 115.416L69.2752 112.22L19.2646 83.3511V86.5471Z" fill="white"/>
</g>
<path id="Vector_31" d="M69.2715 115.416L70.6587 114.614V111.408L69.2715 112.21V115.416Z" fill="#249C6B"/>
<g id="Group_2" opacity="0.5">
<path id="Vector_32" d="M69.2715 115.416L70.6587 114.614V111.408L69.2715 112.21V115.416Z" fill="white"/>
</g>
<g id="Group_3" opacity="0.1">
<path id="Vector_33" d="M69.2715 115.416L70.6587 114.614V111.408L69.2715 112.21V115.416Z" fill="black"/>
</g>
<path id="Vector_34" d="M53.9922 63.2876L19.2646 83.351L69.2719 112.21L103.999 92.1604L53.9922 63.2876Z" fill="#249C6B"/>
<g id="Group_4" opacity="0.8">
<path id="Vector_35" d="M53.9922 63.2876L19.2646 83.351L69.2719 112.21L103.999 92.1604L53.9922 63.2876Z" fill="white"/>
</g>
</g>
<g id="freepik--Gift--inject-18">
<g id="freepik--Box--inject-18">
<g id="freepik--box--inject-18">
<path id="Vector_36" d="M23.4297 44.0402L67.8813 69.7034L99.8311 51.2584L55.3795 25.5952L23.4297 44.0402Z" fill="#455A64"/>
<path id="Vector_37" d="M67.8813 109.803V69.7032L23.4297 44.04V84.1396L67.8813 109.803Z" fill="#37474F"/>
<path id="Vector_38" d="M67.8809 109.803L99.8307 91.3579V51.2583L67.8809 69.7033V109.803Z" fill="#263238"/>
</g>
<path id="Vector_39" d="M55.0494 97.4914C54.7981 97.3153 54.5924 97.0819 54.4493 96.8105C54.3063 96.5391 54.2299 96.2376 54.2266 95.9308V93.5508L55.8994 94.5334L56.0082 94.513V94.6728V96.808C56.0201 96.9479 55.995 97.0886 55.9353 97.2157C55.8756 97.3428 55.7835 97.452 55.6682 97.5322C55.588 97.5764 55.4979 97.5998 55.4064 97.6002C55.2802 97.5942 55.1574 97.5568 55.0494 97.4914ZM55.2364 94.921L55.114 95.7574H54.4952V95.9308C54.4998 96.1895 54.5635 96.4438 54.6814 96.6741C54.7992 96.9045 54.9681 97.105 55.1752 97.2602C55.2269 97.297 55.2873 97.3199 55.3504 97.3264C55.4136 97.333 55.4774 97.3231 55.5356 97.2976C55.6069 97.2393 55.6622 97.1637 55.6961 97.078C55.73 96.9923 55.7415 96.8993 55.7294 96.808V94.8292L55.2364 94.921ZM54.9984 94.6898L55.4914 94.6014L54.4952 94.0132V95.4888H54.8828L54.9984 94.6898Z" fill="#E0E0E0"/>
<path id="Vector_40" d="M55.118 99.3041C55.1357 99.3041 55.1532 99.3005 55.1695 99.2936C55.1859 99.2868 55.2006 99.2767 55.213 99.264C55.2253 99.2513 55.235 99.2363 55.2415 99.2198C55.248 99.2034 55.251 99.1858 55.2506 99.1681V97.3762C55.2506 97.3411 55.2366 97.3074 55.2118 97.2825C55.1869 97.2576 55.1532 97.2437 55.118 97.2437C55.0828 97.2437 55.0491 97.2576 55.0242 97.2825C54.9994 97.3074 54.9854 97.3411 54.9854 97.3762V99.1681C54.9849 99.1858 54.988 99.2034 54.9945 99.2198C55.001 99.2363 55.0106 99.2513 55.023 99.264C55.0354 99.2767 55.0501 99.2868 55.0665 99.2936C55.0828 99.3005 55.1003 99.3041 55.118 99.3041Z" fill="#E0E0E0"/>
<path id="Vector_41" d="M55.8965 99.7525C55.9201 99.7528 55.9434 99.7467 55.9638 99.7347C55.9842 99.7227 56.0009 99.7053 56.0121 99.6845C56.0212 99.6694 56.0272 99.6526 56.0298 99.6351C56.0323 99.6176 56.0313 99.5998 56.0269 99.5827C56.0225 99.5656 56.0147 99.5495 56.0039 99.5355C55.9932 99.5214 55.9798 99.5097 55.9645 99.5009L54.4005 98.5999C54.3857 98.5903 54.3692 98.584 54.3518 98.5812C54.3345 98.5784 54.3168 98.5793 54.2998 98.5838C54.2828 98.5882 54.267 98.5962 54.2533 98.6072C54.2396 98.6182 54.2283 98.6319 54.2203 98.6475C54.2111 98.6626 54.2051 98.6794 54.2026 98.6969C54.2 98.7144 54.201 98.7322 54.2054 98.7493C54.2098 98.7664 54.2177 98.7825 54.2284 98.7965C54.2391 98.8105 54.2525 98.8223 54.2679 98.8311L55.8285 99.7321C55.8492 99.7441 55.8725 99.7511 55.8965 99.7525Z" fill="#E0E0E0"/>
<path id="Vector_42" d="M60.5715 102.523C60.6228 102.525 60.6734 102.512 60.7177 102.486C60.772 102.453 60.8157 102.405 60.844 102.347C60.8722 102.29 60.8839 102.226 60.8775 102.163V101.796C60.8724 101.764 60.8561 101.735 60.8315 101.714C60.8069 101.693 60.7756 101.681 60.7432 101.681C60.7109 101.681 60.6796 101.693 60.655 101.714C60.6304 101.735 60.614 101.764 60.6089 101.796V102.163C60.6089 102.217 60.6089 102.248 60.5817 102.255C60.5514 102.258 60.5208 102.25 60.4967 102.231C60.4136 102.154 60.3481 102.059 60.3047 101.954C60.2613 101.849 60.241 101.736 60.2451 101.622V99.2425C60.2456 99.2248 60.2425 99.2071 60.236 99.1907C60.2296 99.1742 60.2199 99.1592 60.2075 99.1465C60.1952 99.1338 60.1804 99.1237 60.1641 99.1169C60.1478 99.11 60.1302 99.1064 60.1125 99.1064C60.0765 99.1064 60.0419 99.1208 60.0164 99.1463C59.9909 99.1718 59.9765 99.2064 59.9765 99.2425V101.622C59.9696 101.783 60.0005 101.942 60.0666 102.088C60.1328 102.234 60.2324 102.362 60.3573 102.462C60.4223 102.501 60.4961 102.522 60.5715 102.523Z" fill="#E0E0E0"/>
<path id="Vector_43" d="M58.416 98.3792V98.301C58.3751 98.0712 58.406 97.8344 58.5045 97.6228C58.6029 97.4112 58.7642 97.2351 58.9663 97.1184C59.1685 97.0017 59.4017 96.9502 59.6341 96.9707C59.8666 96.9913 60.0871 97.083 60.2656 97.2334C60.7658 97.5591 61.182 97.9983 61.4804 98.5152C61.7788 99.0322 61.9508 99.6123 61.9826 100.208V100.44L58.416 98.3792ZM59.096 97.3592C58.9586 97.4578 58.8484 97.5897 58.7759 97.7425C58.7033 97.8954 58.6708 98.0641 58.6812 98.233L61.7004 99.9772C61.6339 99.4716 61.4591 98.9864 61.188 98.5546C60.917 98.1227 60.556 97.7544 60.1296 97.4748C59.925 97.3474 59.6905 97.2759 59.4496 97.2674C59.3279 97.265 59.2075 97.293 59.0994 97.349L59.096 97.3592Z" fill="#E0E0E0"/>
<path id="Vector_44" d="M65.9602 105.536C65.9779 105.536 65.9954 105.532 66.0118 105.526C66.0281 105.519 66.0428 105.509 66.0552 105.496C66.0676 105.483 66.0773 105.468 66.0837 105.452C66.0902 105.435 66.0933 105.418 66.0928 105.4V100.834C66.0933 100.816 66.0902 100.798 66.0837 100.782C66.0773 100.765 66.0676 100.75 66.0552 100.738C66.0428 100.725 66.0281 100.715 66.0118 100.708C65.9954 100.701 65.9779 100.698 65.9602 100.698C65.9241 100.698 65.8896 100.712 65.8641 100.738C65.8385 100.763 65.8242 100.798 65.8242 100.834V105.4C65.8242 105.436 65.8385 105.471 65.8641 105.496C65.8896 105.522 65.9241 105.536 65.9602 105.536Z" fill="#E0E0E0"/>
<path id="Vector_45" d="M66.3577 101.874C66.3757 101.878 66.3942 101.878 66.4121 101.874C66.4283 101.867 66.443 101.857 66.4552 101.844C66.4674 101.831 66.477 101.816 66.4833 101.8C66.4896 101.784 66.4926 101.766 66.4921 101.748C66.4915 101.731 66.4875 101.713 66.4801 101.697L66.0041 100.592L65.4703 101.211C65.4473 101.238 65.436 101.273 65.4389 101.309C65.4418 101.344 65.4586 101.377 65.4856 101.4C65.5127 101.423 65.5478 101.434 65.5832 101.431C65.6185 101.428 65.6514 101.412 65.6743 101.384L65.9259 101.092L66.2353 101.803C66.2469 101.825 66.2645 101.843 66.2862 101.856C66.3079 101.869 66.3327 101.875 66.3577 101.874Z" fill="#E0E0E0"/>
<path id="Vector_46" d="M64.7266 104.829C64.762 104.828 64.7958 104.813 64.8205 104.788C64.8453 104.762 64.8592 104.728 64.8592 104.693V100.127C64.8623 100.107 64.8611 100.087 64.8558 100.068C64.8505 100.05 64.8411 100.032 64.8283 100.017C64.8156 100.002 64.7997 99.99 64.7818 99.9818C64.764 99.9735 64.7445 99.9692 64.7249 99.9692C64.7052 99.9692 64.6858 99.9735 64.6679 99.9818C64.65 99.99 64.6342 100.002 64.6214 100.017C64.6086 100.032 64.5993 100.05 64.5939 100.068C64.5886 100.087 64.5875 100.107 64.5906 100.127V104.693C64.5906 104.729 64.6049 104.764 64.6304 104.789C64.6559 104.815 64.6905 104.829 64.7266 104.829Z" fill="#E0E0E0"/>
<path id="Vector_47" d="M65.1175 101.167C65.1355 101.17 65.1539 101.17 65.1719 101.167C65.1881 101.16 65.2028 101.15 65.215 101.137C65.2272 101.124 65.2367 101.109 65.2431 101.093C65.2494 101.076 65.2524 101.059 65.2518 101.041C65.2513 101.024 65.2473 101.006 65.2399 100.99L64.7639 99.8853L64.2301 100.501C64.2116 100.528 64.2038 100.562 64.2082 100.594C64.2126 100.627 64.2289 100.658 64.254 100.679C64.279 100.701 64.3112 100.713 64.3444 100.712C64.3776 100.712 64.4095 100.7 64.4341 100.677L64.6857 100.385L64.9951 101.096C65.0067 101.118 65.0243 101.136 65.046 101.149C65.0677 101.162 65.0925 101.168 65.1175 101.167Z" fill="#E0E0E0"/>
<path id="Vector_48" d="M37.7637 81.3419V88.6961C37.7637 88.9783 37.5631 89.0939 37.3183 88.9511L25.8399 82.3211C25.71 82.2376 25.6018 82.1243 25.5244 81.9907C25.4469 81.8571 25.4024 81.7069 25.3945 81.5527V74.1951C25.3945 73.9095 25.5951 73.7973 25.8399 73.9367L37.3217 80.5803C37.4496 80.6641 37.5561 80.7766 37.6328 80.9088C37.7095 81.041 37.7544 81.1893 37.7637 81.3419Z" fill="#FAFAFA"/>
<path id="Vector_49" d="M26.1055 74.9902L26.4761 75.2044V81.8888L26.1055 81.6746V74.9902Z" fill="#455A64"/>
<path id="Vector_50" d="M27.6152 75.8608L28.2544 76.2382V82.9226L27.6152 82.5486V75.8608Z" fill="#455A64"/>
<path id="Vector_51" d="M29.125 76.7314L29.4956 76.9456V83.6334L29.125 83.4193V76.7314Z" fill="#455A64"/>
<path id="Vector_52" d="M30.2637 77.3774L31.0049 77.8194V84.5038L30.2637 84.0652V77.3774Z" fill="#455A64"/>
<path id="Vector_53" d="M32.1436 78.4756L32.5142 78.6898V85.3742L32.1436 85.16V78.4756Z" fill="#455A64"/>
<path id="Vector_54" d="M33.2285 79.0874L34.0241 79.56V86.2444L33.2285 85.7752V79.0874Z" fill="#455A64"/>
<path id="Vector_55" d="M35.1631 80.2163L35.5337 80.4305L35.5303 87.1183L35.1631 86.9007V80.2163Z" fill="#455A64"/>
<path id="Vector_56" d="M36.0234 80.7061L36.207 80.8149V87.4993L36.0234 87.3939V80.7061Z" fill="#455A64"/>
<path id="Vector_57" d="M34.4727 79.8525L34.6597 79.9579V86.6457L34.4727 86.5369V79.8525Z" fill="#455A64"/>
<path id="Vector_58" d="M31.4336 78.0708L31.6206 78.1796V84.864L31.4336 84.7586V78.0708Z" fill="#455A64"/>
<path id="Vector_59" d="M29.7676 77.1152L29.9546 77.224V83.9084L29.7676 83.803V77.1152Z" fill="#455A64"/>
<path id="Vector_60" d="M28.5737 76.4561L28.7573 76.5649V83.2493L28.5703 83.1405L28.5737 76.4561Z" fill="#455A64"/>
<path id="Vector_61" d="M26.9521 75.4697L27.1357 75.5785V82.2629L26.9521 82.1575V75.4697Z" fill="#455A64"/>
<path id="Vector_62" d="M36.6723 81.0864L37.0395 81.3006V87.9884L36.6689 87.7742L36.6723 81.0864Z" fill="#455A64"/>
</g>
<g id="freepik--Ribbon--inject-18">
<path id="Vector_63" d="M48.4335 98.5763V58.4767L42.8779 55.2671V95.3667L48.4335 98.5763Z" fill="#249C6B"/>
<g id="Group_5" opacity="0.3">
<path id="Vector_64" d="M48.4335 98.5763V58.4767L42.8779 55.2671V95.3667L48.4335 98.5763Z" fill="black"/>
</g>
<path id="Vector_65" d="M81.083 102.184V62.0841L86.6386 58.8745V98.9741L81.083 102.184Z" fill="#249C6B"/>
<g id="Group_6" opacity="0.45">
<path id="Vector_66" d="M81.083 102.184V62.0841L86.6386 58.8745V98.9741L81.083 102.184Z" fill="black"/>
</g>
<path id="Vector_67" d="M42.8779 55.2668L74.8277 36.8218L80.3833 40.028L48.4335 58.4764L42.8779 55.2668Z" fill="#249C6B"/>
<g id="Group_7" opacity="0.15">
<path id="Vector_68" d="M42.8779 55.2668L74.8277 36.8218L80.3833 40.028L48.4335 58.4764L42.8779 55.2668Z" fill="black"/>
</g>
<g id="Group_8" opacity="0.15">
<path id="Vector_69" d="M55.0635 48.2323L60.6463 51.4249L61.6323 50.8571L56.0767 47.6475L55.0635 48.2323Z" fill="black"/>
</g>
<path id="Vector_70" d="M86.639 58.8742L42.1806 33.2144L36.625 36.4206L81.0834 62.0838L86.639 58.8742Z" fill="#249C6B"/>
<g id="Group_9" opacity="0.15">
<path id="Vector_71" d="M86.639 58.8742L42.1806 33.2144L36.625 36.4206L81.0834 62.0838L86.639 58.8742Z" fill="black"/>
</g>
<g id="freepik--ribbon--inject-18">
<path id="Vector_72" opacity="0.2" d="M64.0697 47.2598C64.0697 47.2598 71.9577 54.1482 84.8403 52.6556C84.8403 52.6556 79.584 56.3956 72.8893 55.5966C72.8893 55.5966 73.7325 59.3026 78.9447 61.3086C78.9447 61.3086 64.1513 61.091 61.5605 48.9428L64.0697 47.2598Z" fill="black"/>
<path id="Vector_73" d="M63.7401 46.5493C63.7401 46.5493 71.6281 53.0977 84.5107 51.6051C84.5107 51.6051 79.0435 55.1853 72.3489 54.3761C72.3489 54.3761 73.3077 56.8173 78.9449 59.7923C78.9449 59.7923 64.8655 59.9181 61.2275 48.2323L63.7401 46.5493Z" fill="#249C6B"/>
<path id="Vector_74" opacity="0.25" d="M63.7401 46.5493C63.7401 46.5493 71.6281 53.0977 84.5107 51.6051C84.5107 51.6051 79.0435 55.1853 72.3489 54.3761C72.3489 54.3761 73.3077 56.8173 78.9449 59.7923C78.9449 59.7923 64.8655 59.9181 61.2275 48.2323L63.7401 46.5493Z" fill="white"/>
<path id="Vector_75" opacity="0.1" d="M63.1859 49.8508C65.9603 50.5886 68.7109 49.3918 68.7109 49.3918L68.1941 49.164L68.1159 49.1266L67.6569 48.9124L67.5549 48.8614L67.1367 48.654L67.0313 48.603L66.6505 48.4024L66.5451 48.3446L66.2051 48.1542C66.1734 48.1341 66.1405 48.1159 66.1065 48.0998L65.7869 47.9128L65.6985 47.8618L65.4061 47.685L65.3245 47.634L65.0627 47.4742L64.9879 47.4232L64.7601 47.2736L64.6921 47.2294L64.4949 47.0968L64.4337 47.056L64.2705 46.9404L64.2161 46.903L64.0835 46.8044L64.0393 46.7704L63.9373 46.699L63.8931 46.6616L63.8353 46.6174L63.7945 46.5834H63.7707L63.7503 46.5664L62.9275 47.1172L61.2275 48.246C64.8655 59.9352 78.9415 59.806 78.9449 59.806C71.6995 59.4558 64.0903 53.958 63.1859 49.8508Z" fill="black"/>
<path id="Vector_76" d="M81.2299 37.9814C81.2299 37.9814 79.6625 36.1522 74.8583 36.9784C71.9581 37.4782 67.0383 40.8578 64.6039 46.4984C64.2945 47.2124 63.6043 47.4504 63.2439 47.9298C63.1586 48.0374 63.0654 48.1386 62.9651 48.2324H61.4453C61.4453 42.976 64.3931 37.6686 67.1845 34.5984C69.9759 31.5282 74.5659 30.0254 77.8435 29.8996C79.0054 29.8473 80.1633 30.0697 81.2231 30.549C82.1071 33.0446 82.4743 35.5096 81.2299 37.9814Z" fill="#249C6B"/>
<path id="Vector_77" opacity="0.5" d="M81.2299 37.9814C81.2299 37.9814 79.6625 36.1522 74.8583 36.9784C71.9581 37.4782 67.0383 40.8578 64.6039 46.4984C64.2945 47.2124 63.6043 47.4504 63.2439 47.9298C63.1586 48.0374 63.0654 48.1386 62.9651 48.2324H61.4453C61.4453 42.976 64.3931 37.6686 67.1845 34.5984C69.9759 31.5282 74.5659 30.0254 77.8435 29.8996C79.0054 29.8473 80.1633 30.0697 81.2231 30.549C82.1071 33.0446 82.4743 35.5096 81.2299 37.9814Z" fill="white"/>
<path id="Vector_78" opacity="0.3" d="M64.94 45.7776C64.94 45.7776 62.203 44.8528 63.3318 40.4702C62.1516 42.8915 61.509 45.5395 61.4482 48.2324H62.968C63.0684 48.1386 63.1615 48.0375 63.2468 47.9298C63.6174 47.4504 64.3076 47.2124 64.6068 46.4984C64.7054 46.24 64.821 46.0122 64.94 45.7776Z" fill="#249C6B"/>
<path id="Vector_79" opacity="0.1" d="M64.94 45.7776C64.94 45.7776 62.203 44.8528 63.3318 40.4702C62.1516 42.8915 61.509 45.5395 61.4482 48.2324H62.968C63.0684 48.1386 63.1615 48.0375 63.2468 47.9298C63.6174 47.4504 64.3076 47.2124 64.6068 46.4984C64.7054 46.24 64.821 46.0122 64.94 45.7776Z" fill="black"/>
<path id="Vector_80" opacity="0.3" d="M81.2301 37.9814C81.2301 37.9814 81.4715 32.2014 77.8301 29.8996C78.992 29.8473 80.1499 30.0697 81.2097 30.549C82.1073 33.0446 82.4745 35.5096 81.2301 37.9814Z" fill="#249C6B"/>
<path id="Vector_81" opacity="0.1" d="M81.2301 37.9814C81.2301 37.9814 81.4715 32.2014 77.8301 29.8996C78.992 29.8473 80.1499 30.0697 81.2097 30.549C82.1073 33.0446 82.4745 35.5096 81.2301 37.9814Z" fill="black"/>
<path id="Vector_82" d="M78.4248 41.3506C79.5773 40.4266 80.5314 39.2794 81.2298 37.9778C82.4776 35.506 82.107 33.041 81.2298 30.5454C84.0484 31.7932 85.7314 35.455 86.374 38.4062C86.714 40.0586 86.7548 41.5002 86.476 42.1632C85.6872 44.023 81.0564 51.5404 61.2412 48.2288L61.265 46.148C66.2086 45.8488 74.8752 44.3392 78.4248 41.3506Z" fill="#249C6B"/>
<path id="Vector_83" opacity="0.4" d="M78.4248 41.3506C79.5773 40.4266 80.5314 39.2794 81.2298 37.9778C82.4776 35.506 82.107 33.041 81.2298 30.5454C84.0484 31.7932 85.7314 35.455 86.374 38.4062C86.714 40.0586 86.7548 41.5002 86.476 42.1632C85.6872 44.023 81.0564 51.5404 61.2412 48.2288L61.265 46.148C66.2086 45.8488 74.8752 44.3392 78.4248 41.3506Z" fill="white"/>
<path id="Vector_84" opacity="0.2" d="M59.2042 47.2598C59.2042 47.2598 51.3162 54.1482 38.4336 52.6556C38.4336 52.6556 43.69 56.3956 50.3846 55.5966C50.3846 55.5966 49.5414 59.3026 44.3292 61.3086C44.3292 61.3086 59.1226 61.091 61.7134 48.9428L59.2042 47.2598Z" fill="black"/>
<path id="Vector_85" d="M59.5338 46.5493C59.5338 46.5493 51.6458 53.0977 38.7598 51.6051C38.7598 51.6051 44.227 55.1853 50.9216 54.3761C50.9216 54.3761 49.9628 56.8173 44.3256 59.7923C44.3256 59.7923 58.405 59.9181 62.043 48.2323L59.5338 46.5493Z" fill="#249C6B"/>
<path id="Vector_86" opacity="0.25" d="M59.5338 46.5493C59.5338 46.5493 51.6458 53.0977 38.7598 51.6051C38.7598 51.6051 44.227 55.1853 50.9216 54.3761C50.9216 54.3761 49.9628 56.8173 44.3256 59.7923C44.3256 59.7923 58.405 59.9181 62.043 48.2323L59.5338 46.5493Z" fill="white"/>
<path id="Vector_87" opacity="0.1" d="M60.0915 49.8508C57.3137 50.5886 54.5631 49.3918 54.5631 49.3918L55.0799 49.164L55.1581 49.1266L55.6171 48.9124L55.7191 48.8614L56.1373 48.654L56.2427 48.603L56.6269 48.4024L56.7289 48.3446L57.0689 48.1542L57.1675 48.0998L57.4871 47.9128L57.5755 47.8618L57.8679 47.685L57.9495 47.634L58.2113 47.4742L58.2861 47.4232L58.5139 47.2736L58.5819 47.2294L58.7791 47.0968L58.8403 47.056L59.0069 46.9404L59.0579 46.903L59.1905 46.8044L59.2347 46.7704L59.3367 46.699L59.3809 46.6616L59.4387 46.6174L59.4795 46.5834H59.5033L59.5237 46.5664L60.3465 47.1172L62.0465 48.246C58.4085 59.9352 44.3325 59.806 44.3291 59.806C51.5745 59.4558 59.1837 53.958 60.0915 49.8508Z" fill="black"/>
<path id="Vector_88" d="M42.0485 37.9814C42.0485 37.9814 43.6125 36.1522 48.4167 36.9784C51.3169 37.4782 56.2367 40.8578 58.6745 46.4984C58.9805 47.2124 59.6707 47.4504 60.0345 47.9298C60.1198 48.0374 60.213 48.1386 60.3133 48.2324H61.8331C61.8331 42.976 58.8853 37.6686 56.0939 34.5984C53.3025 31.5282 48.7125 30.0254 45.4349 29.8996C44.2729 29.8473 43.1151 30.0697 42.0553 30.549C41.1679 33.0446 40.8007 35.5096 42.0485 37.9814Z" fill="#249C6B"/>
<path id="Vector_89" opacity="0.5" d="M42.0485 37.9814C42.0485 37.9814 43.6125 36.1522 48.4167 36.9784C51.3169 37.4782 56.2367 40.8578 58.6745 46.4984C58.9805 47.2124 59.6707 47.4504 60.0345 47.9298C60.1198 48.0374 60.213 48.1386 60.3133 48.2324H61.8331C61.8331 42.976 58.8853 37.6686 56.0939 34.5984C53.3025 31.5282 48.7125 30.0254 45.4349 29.8996C44.2729 29.8473 43.1151 30.0697 42.0553 30.549C41.1679 33.0446 40.8007 35.5096 42.0485 37.9814Z" fill="white"/>
<path id="Vector_90" opacity="0.3" d="M58.3408 45.7776C58.3408 45.7776 61.0608 44.8528 59.949 40.4702C61.1293 42.8915 61.7719 45.5395 61.8326 48.2324H60.3128C60.2125 48.1386 60.1193 48.0375 60.034 47.9298C59.6634 47.4504 58.9732 47.2124 58.674 46.4984C58.5686 46.24 58.453 46.0122 58.3408 45.7776Z" fill="#249C6B"/>
<path id="Vector_91" opacity="0.1" d="M58.3408 45.7776C58.3408 45.7776 61.0608 44.8528 59.949 40.4702C61.1293 42.8915 61.7719 45.5395 61.8326 48.2324H60.3128C60.2125 48.1386 60.1193 48.0375 60.034 47.9298C59.6634 47.4504 58.9732 47.2124 58.674 46.4984C58.5686 46.24 58.453 46.0122 58.3408 45.7776Z" fill="black"/>
<path id="Vector_92" opacity="0.3" d="M42.0482 37.9814C42.0482 37.9814 41.8034 32.2014 45.4482 29.8996C44.2862 29.8473 43.1283 30.0697 42.0686 30.549C41.1676 33.0446 40.8004 35.5096 42.0482 37.9814Z" fill="#249C6B"/>
<path id="Vector_93" opacity="0.1" d="M42.0482 37.9814C42.0482 37.9814 41.8034 32.2014 45.4482 29.8996C44.2862 29.8473 43.1283 30.0697 42.0686 30.549C41.1676 33.0446 40.8004 35.5096 42.0482 37.9814Z" fill="black"/>
<path id="Vector_94" d="M44.8496 41.3506C43.6971 40.4266 42.7431 39.2794 42.0446 37.9778C40.7968 35.506 41.1674 33.041 42.0446 30.5454C39.2226 31.7932 37.5396 35.455 36.9004 38.4062C36.5604 40.0586 36.5162 41.5002 36.795 42.1632C37.5838 44.023 42.2146 51.5404 62.0298 48.2288L62.0094 46.148C57.0658 45.8488 48.3992 44.3392 44.8496 41.3506Z" fill="#249C6B"/>
<path id="Vector_95" opacity="0.4" d="M44.8496 41.3506C43.6971 40.4266 42.7431 39.2794 42.0446 37.9778C40.7968 35.506 41.1674 33.041 42.0446 30.5454C39.2226 31.7932 37.5396 35.455 36.9004 38.4062C36.5604 40.0586 36.5162 41.5002 36.795 42.1632C37.5838 44.023 42.2146 51.5404 62.0298 48.2288L62.0094 46.148C57.0658 45.8488 48.3992 44.3392 44.8496 41.3506Z" fill="white"/>
<path id="Vector_96" d="M64.3489 46.8587C64.3276 46.6581 64.2534 46.4668 64.1339 46.3043C64.0145 46.1419 63.854 46.014 63.6689 45.9339C63.0149 45.7024 62.3217 45.6019 61.6289 45.6381C60.9124 45.6032 60.1966 45.719 59.5277 45.9781C59.3575 46.0619 59.2114 46.1876 59.1031 46.3434C58.9949 46.4993 58.928 46.6801 58.9089 46.8689C58.8375 47.4945 58.7933 48.5485 59.2047 49.1435C59.8801 49.7237 60.7455 50.0348 61.6357 50.0173C62.5222 50.0369 63.3841 49.7254 64.0531 49.1435C64.4611 48.5349 64.4203 47.4843 64.3489 46.8587Z" fill="#249C6B"/>
<path id="Vector_97" opacity="0.5" d="M64.3489 46.8587C64.3276 46.6581 64.2534 46.4668 64.1339 46.3043C64.0145 46.1419 63.854 46.014 63.6689 45.9339C63.0149 45.7024 62.3217 45.6019 61.6289 45.6381C60.9124 45.6032 60.1966 45.719 59.5277 45.9781C59.3575 46.0619 59.2114 46.1876 59.1031 46.3434C58.9949 46.4993 58.928 46.6801 58.9089 46.8689C58.8375 47.4945 58.7933 48.5485 59.2047 49.1435C59.8801 49.7237 60.7455 50.0348 61.6357 50.0173C62.5222 50.0369 63.3841 49.7254 64.0531 49.1435C64.4611 48.5349 64.4203 47.4843 64.3489 46.8587Z" fill="white"/>
<path id="Vector_98" opacity="0.3" d="M64.3897 47.8416C64.3897 48.0864 64.1177 48.4774 63.5873 48.8616C63.1404 49.12 62.6406 49.2732 62.1258 49.3098C61.6109 49.3463 61.0945 49.2651 60.6157 49.0724C60.1776 48.9443 59.7836 48.6973 59.4775 48.3588C59.1714 48.0202 58.9652 47.6035 58.8817 47.1548C58.8341 47.7804 58.8511 48.627 59.2047 49.1404C59.88 49.7206 60.7455 50.0317 61.6357 50.0142C62.5221 50.0338 63.384 49.7223 64.0531 49.1404C64.2801 48.7456 64.3964 48.2969 64.3897 47.8416Z" fill="#249C6B"/>
<path id="Vector_99" opacity="0.1" d="M64.3897 47.8416C64.3897 48.0864 64.1177 48.4774 63.5873 48.8616C63.1404 49.12 62.6406 49.2732 62.1258 49.3098C61.6109 49.3463 61.0945 49.2651 60.6157 49.0724C60.1776 48.9443 59.7836 48.6973 59.4775 48.3588C59.1714 48.0202 58.9652 47.6035 58.8817 47.1548C58.8341 47.7804 58.8511 48.627 59.2047 49.1404C59.88 49.7206 60.7455 50.0317 61.6357 50.0142C62.5221 50.0338 63.384 49.7223 64.0531 49.1404C64.2801 48.7456 64.3964 48.2969 64.3897 47.8416Z" fill="black"/>
</g>
</g>
</g>
<g id="freepik--Cab--inject-18">
<g id="freepik--percentage-box--inject-18">
<path id="Vector_100" d="M134.708 85.126L137.265 83.6402C137.351 83.5779 137.451 83.5398 137.556 83.5296C137.662 83.5194 137.768 83.5377 137.863 83.5824C138.013 83.6708 138.316 83.8544 138.465 83.9224C138.552 83.9827 138.622 84.0654 138.666 84.1616C138.71 84.2579 138.728 84.3644 138.717 84.4698V90.6102C138.701 90.902 138.616 91.186 138.47 91.4389C138.323 91.6919 138.119 91.9065 137.874 92.0654L135.32 93.5682C135.235 93.63 135.135 93.6682 135.031 93.679C134.926 93.6897 134.821 93.6726 134.725 93.6294C134.572 93.541 134.27 93.354 134.117 93.269C134.03 93.208 133.962 93.1251 133.918 93.0289C133.875 92.9327 133.857 92.8266 133.868 92.7216V86.5812C133.884 86.2896 133.968 86.0058 134.114 85.7529C134.26 85.5 134.464 85.2852 134.708 85.126Z" fill="#FAFAFA"/>
<path id="Vector_101" d="M133.865 86.5811V92.7215C133.853 92.8266 133.87 92.9328 133.914 93.0291C133.958 93.1253 134.026 93.2081 134.113 93.2689C134.263 93.3505 134.49 93.4967 134.705 93.6089C134.625 93.5459 134.563 93.4641 134.523 93.3709C134.483 93.2777 134.467 93.176 134.477 93.0751V86.9415C134.486 86.6496 134.57 86.3651 134.722 86.1153L134.113 85.7549C133.961 86.0044 133.875 86.2889 133.865 86.5811Z" fill="#E0E0E0"/>
<path id="Vector_102" d="M137.874 92.0821L135.32 93.5679C134.854 93.8365 134.48 93.6189 134.48 93.0851V86.9413C134.496 86.6498 134.58 86.3661 134.726 86.1133C134.872 85.8604 135.076 85.6456 135.32 85.4861L137.877 84.0003C138.343 83.7317 138.72 83.9493 138.72 84.4865V90.6269C138.704 90.9191 138.619 91.2033 138.472 91.4562C138.325 91.7092 138.12 91.9236 137.874 92.0821Z" fill="#F0F0F0"/>
</g>
<path id="Vector_103" d="M134.559 97.1858C134.521 97.185 134.485 97.1746 134.453 97.1555C134.421 97.1364 134.394 97.1094 134.375 97.077C134.361 97.053 134.352 97.0264 134.348 96.9988C134.345 96.9712 134.347 96.9431 134.354 96.9163C134.361 96.8894 134.374 96.8642 134.391 96.8422C134.408 96.8202 134.429 96.8018 134.453 96.788L136.235 95.7681C136.267 95.7495 136.294 95.7227 136.312 95.6904C136.331 95.6582 136.341 95.6216 136.34 95.5844V88.849C136.336 88.8189 136.339 88.7883 136.348 88.7592C136.357 88.7301 136.372 88.7033 136.392 88.6805C136.412 88.6577 136.437 88.6394 136.465 88.6269C136.492 88.6144 136.522 88.6079 136.553 88.6079C136.583 88.6079 136.613 88.6144 136.641 88.6269C136.669 88.6394 136.693 88.6577 136.714 88.6805C136.734 88.7033 136.749 88.7301 136.758 88.7592C136.766 88.7883 136.769 88.8189 136.765 88.849V95.5742C136.765 95.6865 136.735 95.7967 136.679 95.8939C136.623 95.9912 136.543 96.072 136.446 96.1284L134.664 97.1484C134.633 97.1707 134.597 97.1836 134.559 97.1858Z" fill="#263238"/>
<path id="Vector_104" d="M81.5452 132.002L88.7702 128.663C88.7702 128.663 88.2058 121.863 83.4356 123.492C78.6654 125.12 81.5452 132.002 81.5452 132.002Z" fill="#249C6B"/>
<g id="Group_10" opacity="0.5">
<path id="Vector_105" d="M81.5452 132.002L88.7702 128.663C88.7702 128.663 88.2058 121.863 83.4356 123.492C78.6654 125.12 81.5452 132.002 81.5452 132.002Z" fill="black"/>
</g>
<path id="Vector_106" d="M85.5197 131.152L83.9795 128.064L87.6787 125.922C88.8585 125.242 90.4225 125.324 92.1429 126.317C95.7979 128.428 98.7593 133.868 98.7593 138.472C98.7593 140.879 97.9467 142.582 96.6479 143.354L96.5935 143.385L92.8025 145.574L91.1603 142.317C88.0357 139.944 85.6387 135.259 85.5197 131.152Z" fill="#263238"/>
<path id="Vector_107" d="M81.6611 133.052C81.6611 137.02 83.8643 141.613 86.8155 144.153C87.2673 144.544 87.7531 144.893 88.2673 145.197C91.9223 147.305 94.8871 145.285 94.8837 140.682C94.8837 137.207 93.1837 133.246 90.8037 130.611L90.7833 130.591C90.0602 129.779 89.2161 129.084 88.2809 128.53C84.6225 126.432 81.6611 128.452 81.6611 133.052Z" fill="#37474F"/>
<path id="Vector_108" d="M88.2776 131.318C85.952 129.958 84.0684 131.373 84.0684 134.443C84.0684 137.513 85.952 141.086 88.2776 142.429C90.6032 143.772 92.4868 142.372 92.4868 139.305C92.4868 136.238 90.6032 132.661 88.2776 131.318Z" fill="#455A64"/>
<path id="Vector_109" d="M88.2775 133.991C87.0705 133.311 86.0947 134.018 86.0947 135.613C86.0947 137.207 87.0705 139.06 88.2775 139.757C89.4845 140.454 90.4637 139.727 90.4637 138.135C90.4637 136.544 89.4845 134.688 88.2775 133.991Z" fill="#E0E0E0"/>
<path id="Vector_110" d="M87.5805 133.96C87.4306 133.873 87.2692 133.808 87.1011 133.766C86.4959 133.929 86.0811 134.592 86.0811 135.612C86.1196 136.814 86.5493 137.971 87.3051 138.907C87.3891 138.97 87.4765 139.03 87.5669 139.084C88.6413 139.703 89.5083 139.06 89.5083 137.642C89.5083 136.224 88.6549 134.579 87.5805 133.96Z" fill="#F5F5F5"/>
<path id="Vector_111" d="M81.6611 133.052C81.6611 137.02 83.8643 141.613 86.8155 144.153C84.7683 141.834 83.3269 139.045 82.6199 136.034C82.0589 133.382 82.2799 129.574 84.5477 128.612C86.8155 127.65 89.8313 129.676 90.7799 130.601C90.0568 129.789 89.2127 129.094 88.2775 128.54C84.6225 126.432 81.6611 128.452 81.6611 133.052Z" fill="#455A64"/>
<path id="Vector_112" d="M107.208 146.809L100.663 143.028L99.8031 142.531L98.1541 141.573L97.3721 141.117C97.3999 141.043 97.4115 140.964 97.4061 140.886C97.4331 140.766 97.4434 140.644 97.4367 140.522C97.4367 135.459 93.8837 129.302 89.4773 126.772C89.0638 126.532 88.6331 126.323 88.1887 126.147C87.9949 126.072 87.8113 126.007 87.6277 125.953C84.1461 124.899 81.5519 127.014 81.5519 131.345V132.002L70.6719 125.715V76.1191L84.1937 83.9391L95.9985 92.6329L101.35 118.66L105.501 124.76L105.722 125.083L108.259 128.802L109.082 138.924L109.286 141.137L109.374 142.049L109.578 144.238L109.673 145.258C109.699 145.558 109.641 145.859 109.507 146.128C109.373 146.397 109.167 146.624 108.913 146.784C108.658 146.944 108.365 147.031 108.064 147.035C107.763 147.04 107.467 146.961 107.208 146.809Z" fill="#249C6B"/>
<g id="Group_11" opacity="0.15">
<path id="Vector_113" d="M107.208 146.809L100.663 143.028L99.8031 142.531L98.1541 141.573L97.3721 141.117C97.3999 141.043 97.4115 140.964 97.4061 140.886C97.4331 140.766 97.4434 140.644 97.4367 140.522C97.4367 135.459 93.8837 129.302 89.4773 126.772C89.0638 126.532 88.6331 126.323 88.1887 126.147C87.9949 126.072 87.8113 126.007 87.6277 125.953C84.1461 124.899 81.5519 127.014 81.5519 131.345V132.002L70.6719 125.715V76.1191L84.1937 83.9391L95.9985 92.6329L101.35 118.66L105.501 124.76L105.722 125.083L108.259 128.802L109.082 138.924L109.286 141.137L109.374 142.049L109.578 144.238L109.673 145.258C109.699 145.558 109.641 145.859 109.507 146.128C109.373 146.397 109.167 146.624 108.913 146.784C108.658 146.944 108.365 147.031 108.064 147.035C107.763 147.04 107.467 146.961 107.208 146.809Z" fill="black"/>
</g>
<path id="Vector_114" d="M89.4878 93.4353V109.48C89.4878 110.071 89.0764 110.309 88.5664 110.014L75.2588 102.34C74.9894 102.165 74.7652 101.928 74.6045 101.65C74.4438 101.372 74.3511 101.059 74.334 100.738V83.8507C74.334 83.2625 74.7454 83.0245 75.2588 83.3169L83.259 87.9375C83.769 88.2333 84.568 88.7535 85.0406 89.1037L88.6276 91.7387C88.8809 91.9463 89.0881 92.2043 89.2362 92.4964C89.3843 92.7885 89.47 93.1082 89.4878 93.4353Z" fill="#455A64"/>
<path id="Vector_115" d="M93.7648 113.002C93.3165 112.711 92.9434 112.317 92.6757 111.854C92.4081 111.391 92.2535 110.871 92.2246 110.337V96.1486C92.2246 95.166 92.5884 94.6424 93.0372 94.979L93.8498 95.5876C94.4547 96.0931 94.8833 96.7777 95.0738 97.5426L98.3514 114.577C98.484 115.257 98.11 115.512 97.5218 115.168L93.7648 113.002Z" fill="#455A64"/>
<g id="Group_12" opacity="0.15">
<path id="Vector_116" d="M90.164 90.9738L84.7886 87.057C84.3874 86.7646 83.7108 86.3226 83.2824 86.0778L73.7454 80.58C73.6416 80.5063 73.5196 80.4623 73.3926 80.4527C73.2656 80.4431 73.1384 80.4683 73.0246 80.5256C72.9184 80.5963 72.8331 80.6941 72.7775 80.8089C72.7219 80.9237 72.698 81.0513 72.7084 81.1784V124.44C72.7225 124.739 72.8079 125.03 72.9576 125.289C73.1072 125.548 73.3168 125.768 73.5686 125.929L79.828 129.54C79.9586 129.622 80.1091 129.667 80.2632 129.669C80.3571 129.671 80.4501 129.651 80.5352 129.611C80.6503 129.558 80.7481 129.473 80.8174 129.367C80.8935 129.252 80.9444 129.122 80.967 128.986C81.1914 127.843 81.885 125.797 84.027 124.936C85.1501 124.524 86.377 124.488 87.5222 124.834C88.1253 124.994 88.7107 125.214 89.2698 125.491C89.5146 125.61 89.739 125.729 89.9498 125.831C90.053 125.905 90.1742 125.951 90.301 125.963C90.4277 125.975 90.5553 125.953 90.6706 125.899C90.7413 125.855 90.8007 125.796 90.844 125.725C90.9283 125.586 90.9697 125.425 90.963 125.263V92.531C90.9479 92.2297 90.8688 91.935 90.731 91.6665C90.5933 91.398 90.4 91.1619 90.164 90.9738ZM90.419 125.613C90.3351 125.623 90.2502 125.605 90.1776 125.562L90.1198 125.535C89.2135 125.003 88.229 124.618 87.2026 124.392C86.1044 124.134 84.9544 124.208 83.8978 124.603C81.8374 125.433 81.0316 127.262 80.7188 128.506C80.678 128.653 80.6474 128.782 80.6236 128.911C80.6166 128.987 80.5916 129.06 80.5509 129.125C80.5101 129.189 80.4546 129.243 80.389 129.282C80.3256 129.304 80.2578 129.31 80.1915 129.3C80.1252 129.29 80.0623 129.264 80.0082 129.224L73.7454 125.616C73.5485 125.486 73.3846 125.311 73.2666 125.107C73.1486 124.902 73.0797 124.673 73.0654 124.437V81.1716C73.0586 81.1082 73.0675 81.044 73.0912 80.9847C73.1149 80.9255 73.1527 80.8729 73.2014 80.8316C73.2369 80.8127 73.2768 80.8033 73.317 80.8044C73.4066 80.8094 73.4933 80.8375 73.5686 80.886L83.1056 86.394C83.5272 86.6354 84.1868 87.074 84.5778 87.3494L89.9566 91.2696C90.1457 91.4253 90.3006 91.6182 90.4118 91.8364C90.5229 92.0546 90.5879 92.2934 90.6026 92.5378V125.276C90.6131 125.338 90.608 125.402 90.5879 125.461C90.5677 125.52 90.533 125.574 90.487 125.616C90.469 125.626 90.4494 125.631 90.4292 125.633L90.419 125.613Z" fill="black"/>
</g>
<path id="Vector_117" d="M143.885 124.396C143.885 124.396 138.952 131.216 128.191 137.656C119.259 142.994 109.525 144.242 109.525 144.242L108.253 128.799L142.613 108.957L143.885 124.396Z" fill="#249C6B"/>
<g id="Group_13" opacity="0.3">
<path id="Vector_118" d="M143.885 124.396C143.885 124.396 138.952 131.216 128.191 137.656C119.259 142.994 109.525 144.242 109.525 144.242L108.253 128.799L142.613 108.957L143.885 124.396Z" fill="black"/>
</g>
<path id="Vector_119" d="M142.613 108.95C142.613 108.95 137.68 115.774 126.919 122.21C117.987 127.548 108.253 128.796 108.253 128.796L101.364 118.66L135.731 98.8213L142.613 108.95Z" fill="#249C6B"/>
<path id="Vector_120" d="M144.5 122.121C144.439 122.057 144.385 122.067 144.32 122.176C144.32 122.176 139.387 128.996 128.622 135.436C119.68 140.76 109.953 142.018 109.953 142.018C105.778 142.399 100.664 137.989 100.664 137.989L101.368 137.476C101.368 137.476 106.216 141.148 108.681 141.148C110.806 141.148 118.402 140.182 128.707 134.348C139.013 128.513 143.667 121.458 143.667 121.458C143.852 121.488 144.025 121.564 144.171 121.68C144.317 121.797 144.43 121.949 144.5 122.121Z" fill="#37474F"/>
<path id="Vector_121" d="M144.317 122.176C144.317 122.176 139.38 128.996 128.619 135.436C119.69 140.774 109.953 142.021 109.953 142.021C105.778 142.402 100.664 137.999 100.664 137.999V143.888C100.664 143.888 105.764 148.308 109.953 147.914C109.953 147.914 119.69 146.662 128.619 141.328C139.38 134.895 144.317 128.068 144.317 128.068C145.18 126.609 144.813 121.302 144.317 122.176Z" fill="#455A64"/>
<path id="Vector_122" d="M112.801 131.883C114.338 131.519 115.729 132.563 115.905 134.205C115.985 135.012 115.775 135.82 115.313 136.486C114.852 137.153 114.169 137.634 113.386 137.843C113.026 137.933 112.651 137.942 112.287 137.869C111.923 137.796 111.58 137.642 111.283 137.42C110.986 137.198 110.742 136.912 110.57 136.583C110.397 136.255 110.3 135.892 110.285 135.521C110.139 133.875 111.264 132.26 112.801 131.883Z" fill="white"/>
<path id="Vector_123" d="M140.145 116.233C139.21 117.164 138.611 119.16 138.805 120.693C138.999 122.227 139.876 122.71 140.76 121.771C141.644 120.833 142.242 118.837 142.1 117.31C141.957 115.784 141.076 115.301 140.145 116.233Z" fill="white"/>
<path id="Vector_124" d="M118.535 129.88C121.506 128.944 124.358 127.666 127.035 126.072C127.46 125.824 127.8 126.017 127.8 126.507V127.129C127.787 127.398 127.712 127.659 127.579 127.893C127.446 128.126 127.259 128.325 127.035 128.472C124.358 130.067 121.506 131.345 118.535 132.28C118.434 132.318 118.326 132.329 118.22 132.314C118.115 132.299 118.014 132.257 117.929 132.193C117.843 132.128 117.776 132.043 117.732 131.946C117.688 131.848 117.669 131.741 117.678 131.634V131.012C117.689 130.759 117.776 130.515 117.929 130.312C118.083 130.11 118.294 129.959 118.535 129.88Z" fill="#37474F"/>
<path id="Vector_125" d="M137.02 119.768V120.391C136.991 120.948 136.748 121.474 136.34 121.856C134.307 123.559 132.181 125.148 129.972 126.616C129.564 126.885 129.228 126.701 129.228 126.211V125.596C129.246 125.329 129.322 125.069 129.45 124.834C129.579 124.599 129.757 124.395 129.972 124.236C132.18 122.767 134.306 121.178 136.34 119.476C136.728 119.139 137.02 119.279 137.02 119.768Z" fill="#37474F"/>
<path id="Vector_126" d="M118.534 134.225C121.505 133.291 124.358 132.014 127.034 130.421C127.459 130.172 127.799 130.363 127.799 130.856V131.478C127.785 131.746 127.709 132.007 127.576 132.24C127.443 132.473 127.257 132.672 127.034 132.821C124.357 134.413 121.505 135.69 118.534 136.626C118.434 136.664 118.326 136.677 118.219 136.662C118.113 136.647 118.012 136.605 117.926 136.54C117.841 136.476 117.773 136.39 117.729 136.292C117.686 136.194 117.668 136.087 117.677 135.98V135.357C117.689 135.104 117.778 134.861 117.931 134.659C118.084 134.457 118.294 134.306 118.534 134.225Z" fill="#37474F"/>
<path id="Vector_127" d="M137.02 124.131V124.753C136.99 125.31 136.747 125.833 136.34 126.215C134.307 127.918 132.181 129.507 129.972 130.975C129.564 131.247 129.228 131.063 129.228 130.57V129.948C129.246 129.681 129.322 129.421 129.45 129.186C129.579 128.951 129.757 128.747 129.972 128.588C132.179 127.117 134.305 125.528 136.34 123.828C136.728 123.498 137.02 123.638 137.02 124.131Z" fill="#37474F"/>
<g id="Group_14" opacity="0.15">
<path id="Vector_128" d="M119.812 112.391C115.242 114.861 110.51 117.019 105.648 118.851C105.546 118.884 105.453 118.941 105.377 119.017C105.301 119.092 105.244 119.185 105.211 119.288C105.178 119.39 105.169 119.498 105.186 119.604C105.203 119.71 105.245 119.811 105.308 119.898L105.332 119.932C105.485 120.142 105.693 120.306 105.933 120.406C106.172 120.506 106.435 120.538 106.692 120.5C108.779 120.044 114.423 118.575 121.438 114.805C121.538 114.753 121.626 114.68 121.696 114.591C121.766 114.502 121.815 114.399 121.842 114.289C121.868 114.179 121.871 114.064 121.849 113.953C121.828 113.842 121.782 113.737 121.716 113.645L121.081 112.7C120.942 112.504 120.738 112.364 120.505 112.308C120.271 112.251 120.026 112.28 119.812 112.391Z" fill="black"/>
</g>
<g id="Group_15" opacity="0.15">
<path id="Vector_129" d="M134.487 102.218C130.837 105.361 126.927 108.189 122.798 110.67C122.699 110.728 122.613 110.805 122.545 110.897C122.477 110.99 122.43 111.096 122.405 111.207C122.38 111.319 122.379 111.435 122.402 111.548C122.424 111.66 122.47 111.766 122.536 111.86L123.179 112.812C123.316 113.009 123.522 113.147 123.756 113.199C123.99 113.251 124.236 113.214 124.443 113.094C130.801 109.262 134.201 105.89 135.759 104.054C135.913 103.851 136.003 103.605 136.014 103.35C136.026 103.095 135.959 102.842 135.823 102.626L135.65 102.367C135.59 102.272 135.511 102.192 135.416 102.131C135.322 102.071 135.215 102.032 135.104 102.017C134.993 102.003 134.88 102.014 134.773 102.048C134.666 102.083 134.569 102.141 134.487 102.218Z" fill="black"/>
</g>
<path id="Vector_130" d="M135.731 98.8043C135.731 98.8043 130.053 104.513 120.696 109.96C111.339 115.406 101.367 118.64 101.367 118.64L95.9951 92.6061L117.47 80.2131L127.347 74.5147L130.359 72.7671L135.731 98.8043Z" fill="#455A64"/>
<path id="Vector_131" d="M130.359 72.7603L127.347 74.5045L117.47 80.2131L95.9951 92.6061L101.367 118.64L101.734 118.517L101.809 118.494L102.183 118.364L102.34 118.32H102.374H102.408L102.663 118.228L103.06 118.089L103.455 117.946L103.713 117.851L104.053 117.725L105.202 117.29L105.461 117.191C106.382 116.834 107.426 116.42 108.558 115.947L109.673 115.474L109.854 115.396L110.058 115.311C110.292 115.202 110.537 115.1 110.782 114.992L110.993 114.9L111.482 114.679L112.043 114.427C112.451 114.244 112.866 114.05 113.284 113.853C113.702 113.655 114.124 113.455 114.549 113.251C114.869 113.094 115.188 112.938 115.508 112.775L116.283 112.387L116.365 112.346L117.157 111.935L117.221 111.901L117.918 111.534L118.476 111.235C118.929 110.992 119.37 110.747 119.799 110.5L120.679 109.997L121.482 109.48C121.709 109.348 121.934 109.208 122.162 109.072C122.247 109.021 122.335 108.97 122.417 108.916C122.672 108.763 122.93 108.603 123.178 108.447L123.27 108.389L123.634 108.158C123.794 108.056 123.947 107.954 124.106 107.855L124.559 107.556L125.007 107.263C125.194 107.141 125.381 107.019 125.562 106.893C125.932 106.641 126.293 106.396 126.646 106.148L126.718 106.097L127.126 105.815C127.663 105.434 128.18 105.06 128.669 104.7L129.036 104.424L129.376 104.159L129.716 103.894C129.948 103.721 130.169 103.554 130.396 103.381L130.424 103.36L130.699 103.146L131.328 102.643L131.726 102.327C131.807 102.259 131.886 102.191 131.964 102.129C132.042 102.068 132.12 101.997 132.195 101.939L132.423 101.752C132.422 101.746 132.422 101.741 132.423 101.735L132.94 101.32C133.575 100.783 134.109 100.3 134.531 99.9263C134.584 99.8715 134.641 99.8204 134.701 99.7733L134.735 99.7393L134.912 99.5761C135.411 99.1171 135.683 98.845 135.721 98.8076L130.359 72.7603ZM118.782 109.14C118.784 109.147 118.784 109.154 118.782 109.161C118.775 109.213 118.765 109.266 118.751 109.317V109.361C118.734 109.402 118.721 109.446 118.704 109.487C118.697 109.506 118.689 109.524 118.68 109.541C118.662 109.592 118.639 109.641 118.612 109.688C118.521 109.852 118.399 109.996 118.252 110.113C118.203 110.151 118.151 110.184 118.095 110.211C116.83 110.891 115.566 111.551 114.331 112.153L113.682 112.472C113.163 112.719 112.649 112.96 112.142 113.193L111.435 113.533L110.224 114.07C110.024 114.162 109.826 114.247 109.633 114.329L109.058 114.577C108.296 114.917 107.569 115.202 106.882 115.481C106.518 115.631 106.161 115.77 105.821 115.906L105.321 116.1C104.502 116.416 103.781 116.688 103.173 116.909C102.976 116.989 102.757 116.996 102.556 116.928C102.355 116.86 102.185 116.722 102.078 116.539C102.026 116.443 101.988 116.34 101.966 116.233L98.6607 99.7699C98.613 99.4693 98.6539 99.1614 98.7783 98.8837C98.9026 98.6059 99.1052 98.3704 99.3611 98.2059L113.301 90.1581C113.406 90.0865 113.527 90.0427 113.654 90.0307C113.78 90.0187 113.908 90.039 114.024 90.0895C114.14 90.1401 114.242 90.2194 114.32 90.32C114.397 90.4206 114.448 90.5391 114.467 90.6647L117.769 104.448L118.768 108.623L118.785 108.691V108.742C118.789 108.762 118.789 108.781 118.785 108.8C118.787 108.819 118.787 108.839 118.785 108.858C118.789 108.899 118.789 108.94 118.785 108.98C118.788 109.034 118.787 109.087 118.782 109.14ZM131.063 101.497L130.818 101.704C130.005 102.361 129.081 103.064 128.064 103.836C127.724 104.095 127.36 104.353 126.99 104.618L126.592 104.907C126.051 105.295 125.49 105.682 124.892 106.08L124.314 106.468C124.12 106.6 123.919 106.73 123.719 106.859C123.518 106.988 123.314 107.127 123.11 107.257C122.379 107.729 121.621 108.202 120.839 108.668C120.736 108.741 120.616 108.786 120.491 108.799C120.366 108.813 120.239 108.793 120.123 108.743C120.007 108.694 119.906 108.615 119.83 108.515C119.753 108.414 119.704 108.296 119.686 108.171L119.663 108.069L118.66 103.908L115.389 90.1581C115.331 89.8587 115.366 89.5491 115.487 89.2695C115.608 88.9899 115.811 88.7533 116.069 88.5907L118.711 87.0709L129.465 80.8489L129.944 80.5769L129.985 80.5565C130.088 80.4932 130.204 80.4569 130.325 80.451C130.445 80.4451 130.565 80.4698 130.673 80.5228C130.782 80.5757 130.875 80.6552 130.944 80.7538C131.013 80.8525 131.056 80.967 131.07 81.0869L134.357 97.4069C134.432 97.9088 134.32 98.4208 134.041 98.8451C134.004 98.9029 133.963 98.9607 133.922 99.0117C133.882 99.0583 133.839 99.1026 133.793 99.1443L133.62 99.3007C133.541 99.3755 133.46 99.4469 133.378 99.5183L132.644 100.157C132.382 100.385 132.093 100.63 131.787 100.885L131.144 101.415L131.066 101.477L131.063 101.497Z" fill="#249C6B"/>
<g id="Group_16" opacity="0.3">
<path id="Vector_132" d="M130.359 72.7603L127.347 74.5045L117.47 80.2131L95.9951 92.6061L101.367 118.64L101.734 118.517L101.809 118.494L102.183 118.364L102.34 118.32H102.374H102.408L102.663 118.228L103.06 118.089L103.455 117.946L103.713 117.851L104.053 117.725L105.202 117.29L105.461 117.191C106.382 116.834 107.426 116.42 108.558 115.947L109.673 115.474L109.854 115.396L110.058 115.311C110.292 115.202 110.537 115.1 110.782 114.992L110.993 114.9L111.482 114.679L112.043 114.427C112.451 114.244 112.866 114.05 113.284 113.853C113.702 113.655 114.124 113.455 114.549 113.251C114.869 113.094 115.188 112.938 115.508 112.775L116.283 112.387L116.365 112.346L117.157 111.935L117.221 111.901L117.918 111.534L118.476 111.235C118.929 110.992 119.37 110.747 119.799 110.5L120.679 109.997L121.482 109.48C121.709 109.348 121.934 109.208 122.162 109.072C122.247 109.021 122.335 108.97 122.417 108.916C122.672 108.763 122.93 108.603 123.178 108.447L123.27 108.389L123.634 108.158C123.794 108.056 123.947 107.954 124.106 107.855L124.559 107.556L125.007 107.263C125.194 107.141 125.381 107.019 125.562 106.893C125.932 106.641 126.293 106.396 126.646 106.148L126.718 106.097L127.126 105.815C127.663 105.434 128.18 105.06 128.669 104.7L129.036 104.424L129.376 104.159L129.716 103.894C129.948 103.721 130.169 103.554 130.396 103.381L130.424 103.36L130.699 103.146L131.328 102.643L131.726 102.327C131.807 102.259 131.886 102.191 131.964 102.129C132.042 102.068 132.12 101.997 132.195 101.939L132.423 101.752C132.422 101.746 132.422 101.741 132.423 101.735L132.94 101.32C133.575 100.783 134.109 100.3 134.531 99.9263C134.584 99.8715 134.641 99.8204 134.701 99.7733L134.735 99.7393L134.912 99.5761C135.411 99.1171 135.683 98.845 135.721 98.8076L130.359 72.7603ZM118.782 109.14C118.784 109.147 118.784 109.154 118.782 109.161C118.775 109.213 118.765 109.266 118.751 109.317V109.361C118.734 109.402 118.721 109.446 118.704 109.487C118.697 109.506 118.689 109.524 118.68 109.541C118.662 109.592 118.639 109.641 118.612 109.688C118.521 109.852 118.399 109.996 118.252 110.113C118.203 110.151 118.151 110.184 118.095 110.211C116.83 110.891 115.566 111.551 114.331 112.153L113.682 112.472C113.163 112.719 112.649 112.96 112.142 113.193L111.435 113.533L110.224 114.07C110.024 114.162 109.826 114.247 109.633 114.329L109.058 114.577C108.296 114.917 107.569 115.202 106.882 115.481C106.518 115.631 106.161 115.77 105.821 115.906L105.321 116.1C104.502 116.416 103.781 116.688 103.173 116.909C102.976 116.989 102.757 116.996 102.556 116.928C102.355 116.86 102.185 116.722 102.078 116.539C102.026 116.443 101.988 116.34 101.966 116.233L98.6607 99.7699C98.613 99.4693 98.6539 99.1614 98.7783 98.8837C98.9026 98.6059 99.1052 98.3704 99.3611 98.2059L113.301 90.1581C113.406 90.0865 113.527 90.0427 113.654 90.0307C113.78 90.0187 113.908 90.039 114.024 90.0895C114.14 90.1401 114.242 90.2194 114.32 90.32C114.397 90.4206 114.448 90.5391 114.467 90.6647L117.769 104.448L118.768 108.623L118.785 108.691V108.742C118.789 108.762 118.789 108.781 118.785 108.8C118.787 108.819 118.787 108.839 118.785 108.858C118.789 108.899 118.789 108.94 118.785 108.98C118.788 109.034 118.787 109.087 118.782 109.14ZM131.063 101.497L130.818 101.704C130.005 102.361 129.081 103.064 128.064 103.836C127.724 104.095 127.36 104.353 126.99 104.618L126.592 104.907C126.051 105.295 125.49 105.682 124.892 106.08L124.314 106.468C124.12 106.6 123.919 106.73 123.719 106.859C123.518 106.988 123.314 107.127 123.11 107.257C122.379 107.729 121.621 108.202 120.839 108.668C120.736 108.741 120.616 108.786 120.491 108.799C120.366 108.813 120.239 108.793 120.123 108.743C120.007 108.694 119.906 108.615 119.83 108.515C119.753 108.414 119.704 108.296 119.686 108.171L119.663 108.069L118.66 103.908L115.389 90.1581C115.331 89.8587 115.366 89.5491 115.487 89.2695C115.608 88.9899 115.811 88.7533 116.069 88.5907L118.711 87.0709L129.465 80.8489L129.944 80.5769L129.985 80.5565C130.088 80.4932 130.204 80.4569 130.325 80.451C130.445 80.4451 130.565 80.4698 130.673 80.5228C130.782 80.5757 130.875 80.6552 130.944 80.7538C131.013 80.8525 131.056 80.967 131.07 81.0869L134.357 97.4069C134.432 97.9088 134.32 98.4208 134.041 98.8451C134.004 98.9029 133.963 98.9607 133.922 99.0117C133.882 99.0583 133.839 99.1026 133.793 99.1443L133.62 99.3007C133.541 99.3755 133.46 99.4469 133.378 99.5183L132.644 100.157C132.382 100.385 132.093 100.63 131.787 100.885L131.144 101.415L131.066 101.477L131.063 101.497Z" fill="black"/>
</g>
<path id="Vector_133" d="M98.8414 96.8185L129.846 78.9107C130.046 78.783 130.204 78.6 130.302 78.3839C130.4 78.1678 130.433 77.928 130.397 77.6935L129.832 74.8953C129.822 74.7988 129.787 74.7065 129.731 74.6277C129.674 74.5489 129.598 74.4865 129.509 74.4465C129.421 74.4066 129.323 74.3906 129.227 74.4001C129.13 74.4097 129.038 74.4445 128.959 74.5009L97.9574 92.4087C97.7566 92.5364 97.5975 92.7199 97.4996 92.9368C97.4018 93.1536 97.3694 93.3943 97.4066 93.6293L97.9676 96.4241C97.9774 96.5207 98.0125 96.613 98.0692 96.6918C98.126 96.7705 98.2024 96.833 98.2909 96.8729C98.3794 96.9129 98.4768 96.9289 98.5734 96.9193C98.67 96.9098 98.7624 96.875 98.8414 96.8185Z" fill="#455A64"/>
<path id="Vector_134" d="M118.762 108.678C118.822 108.972 118.788 109.278 118.667 109.553C118.545 109.828 118.34 110.058 118.082 110.211C113.273 112.793 108.285 115.027 103.156 116.896C103.033 116.945 102.9 116.966 102.767 116.958C102.634 116.949 102.505 116.911 102.389 116.845C102.273 116.78 102.174 116.69 102.097 116.581C102.021 116.472 101.971 116.347 101.949 116.216L101.731 115.131C104.744 112.941 112.061 107.716 117.677 104.472C117.699 104.457 117.722 104.443 117.745 104.431L118.762 108.678Z" fill="#37474F"/>
<path id="Vector_135" d="M134.055 98.8553C133.984 98.97 133.897 99.0742 133.797 99.1647C129.785 102.735 125.448 105.922 120.843 108.685C120.74 108.758 120.62 108.803 120.495 108.816C120.369 108.83 120.242 108.81 120.127 108.76C120.011 108.711 119.91 108.632 119.833 108.532C119.757 108.431 119.707 108.313 119.69 108.188L118.67 103.914C123.046 101.501 127.601 99.4267 132.294 97.7095L134.055 98.8553Z" fill="#37474F"/>
<path id="Vector_136" opacity="0.1" d="M131.893 95.3223L128.136 93.1599C127.687 92.8678 127.314 92.4737 127.046 92.0099C126.778 91.5461 126.624 91.0257 126.596 90.4909V82.5179L129.476 80.8519L129.952 80.5765C129.965 80.5667 129.98 80.5587 129.996 80.5527L132.716 94.7273C132.855 95.3971 132.481 95.6623 131.893 95.3223Z" fill="white"/>
<path id="Vector_137" opacity="0.1" d="M123.858 84.0991V89.6207C123.858 90.2123 123.447 90.4503 122.933 90.1545L118.156 87.3971L118.724 87.0571L123.858 84.0991Z" fill="white"/>
<path id="Vector_138" d="M130.359 72.7635L95.9955 92.6025L84.1839 83.9223L70.6621 76.1159L105.026 56.2803L118.548 64.0867L130.359 72.7635Z" fill="#249C6B"/>
<g id="freepik--percentage-box--inject-18_2">
<path id="Vector_139" d="M92.4799 109.157L95.0401 107.671C95.1249 107.609 95.2249 107.571 95.3297 107.56C95.4344 107.55 95.5399 107.568 95.6351 107.613L96.2403 107.974C96.3268 108.034 96.3955 108.116 96.4392 108.212C96.4829 108.307 96.4999 108.413 96.4885 108.518V114.658C96.4731 114.95 96.389 115.233 96.243 115.486C96.0971 115.739 95.8934 115.954 95.6487 116.113L93.0885 117.599C93.0039 117.662 92.904 117.7 92.7994 117.711C92.6947 117.722 92.5891 117.704 92.4935 117.66C92.3439 117.572 92.0379 117.385 91.8883 117.3C91.8018 117.239 91.7332 117.156 91.6895 117.06C91.6459 116.964 91.6288 116.858 91.6401 116.752V110.612C91.6558 110.321 91.74 110.037 91.886 109.784C92.0319 109.531 92.2354 109.316 92.4799 109.157Z" fill="#FAFAFA"/>
<path id="Vector_140" d="M91.6302 110.612V116.756C91.6192 116.86 91.6364 116.966 91.68 117.062C91.7237 117.157 91.7922 117.24 91.8784 117.3C92.0246 117.381 92.2558 117.528 92.4666 117.64C92.3872 117.577 92.3248 117.495 92.285 117.402C92.2452 117.309 92.2293 117.207 92.2388 117.106V110.972C92.2501 110.686 92.3331 110.406 92.4802 110.16L91.8682 109.799C91.7227 110.046 91.6409 110.325 91.6302 110.612Z" fill="#E0E0E0"/>
<path id="Vector_141" d="M95.6393 116.113L93.0791 117.599C92.6167 117.868 92.2393 117.65 92.2393 117.116V110.976C92.2552 110.684 92.3396 110.4 92.4854 110.147C92.6313 109.893 92.8346 109.678 93.0791 109.517L95.6393 108.032C96.1017 107.766 96.4791 107.981 96.4791 108.518V114.658C96.4636 114.95 96.3795 115.234 96.2336 115.486C96.0876 115.739 95.884 115.954 95.6393 116.113Z" fill="#F0F0F0"/>
</g>
<path id="Vector_142" d="M97.9198 117.133C98.1706 117.298 98.3793 117.519 98.5287 117.779C98.6782 118.038 98.7643 118.33 98.78 118.629C98.78 119.18 98.3958 119.405 97.9198 119.129C97.6685 118.965 97.4596 118.744 97.3101 118.484C97.1606 118.224 97.0747 117.933 97.0596 117.633C97.0596 117.082 97.4438 116.858 97.9198 117.133Z" fill="#37474F"/>
<path id="Vector_143" d="M94.8943 120.02C94.7819 120.019 94.6718 119.988 94.5747 119.932C94.4777 119.877 94.3971 119.796 94.3415 119.7C94.2859 119.603 94.2573 119.493 94.2585 119.381V113.152C94.2547 113.122 94.2574 113.091 94.2663 113.062C94.2752 113.033 94.2902 113.007 94.3103 112.984C94.3304 112.961 94.3552 112.943 94.3829 112.93C94.4106 112.918 94.4406 112.911 94.471 112.911C94.5014 112.911 94.5315 112.918 94.5592 112.93C94.5869 112.943 94.6116 112.961 94.6317 112.984C94.6518 113.007 94.6669 113.033 94.6758 113.062C94.6847 113.091 94.6874 113.122 94.6835 113.152V119.388C94.6822 119.425 94.6914 119.462 94.71 119.495C94.7287 119.527 94.756 119.554 94.7889 119.571C94.8207 119.591 94.8572 119.601 94.8943 119.601C94.9315 119.601 94.9679 119.591 94.9997 119.571L97.8149 117.946C97.839 117.932 97.8656 117.923 97.8932 117.92C97.9208 117.916 97.9489 117.918 97.9757 117.925C98.0026 117.932 98.0278 117.945 98.0498 117.962C98.0718 117.979 98.0902 118 98.1039 118.024C98.1314 118.074 98.1386 118.132 98.124 118.186C98.1094 118.241 98.0742 118.288 98.0257 118.317L95.2003 119.939C95.1066 119.991 95.0015 120.019 94.8943 120.02Z" fill="#263238"/>
</g>
</g>
</g>
<g id="freepik--Character--inject-18">
<g id="freepik--character--inject-18">
<g id="freepik--Bottom--inject-18">
<path id="Vector_144" d="M33.1775 126.211C33.0359 126.519 32.9796 126.86 33.0143 127.197C33.1355 127.634 33.1906 128.087 33.1775 128.54C33.1231 129.22 32.9769 129.427 32.9259 129.9C32.8516 130.373 32.9545 130.858 33.2149 131.26C33.5073 131.699 34.1601 132.049 35.3603 131.96C36.3327 131.889 36.7441 131.345 36.7441 130.77L33.1775 126.211Z" fill="#263238"/>
<path id="Vector_145" d="M33.6598 125.637C34.2718 125.977 35.2714 125.579 36.016 125.181L36.798 120.557L33.415 119.806L33.6598 125.637Z" fill="#FFA8A7"/>
<path id="Vector_146" d="M33.4083 124.814C33.3828 124.939 33.368 125.066 33.3641 125.194C33.3369 125.419 33.2757 125.636 33.2315 125.874C33.2315 125.932 33.2077 125.993 33.1975 126.051C33.1686 126.505 33.1834 126.96 33.2417 127.411C33.2257 127.95 33.1516 128.486 33.0207 129.009C32.8371 129.965 32.8405 130.56 33.7007 131.182C34.1339 131.468 34.6533 131.594 35.1695 131.539C35.5877 131.539 36.1657 131.427 36.3765 131.199C36.5518 131.05 36.6716 130.846 36.7165 130.621C36.7165 129.601 36.3051 128.462 36.1963 127.462C36.1575 127.193 36.1404 126.921 36.1453 126.65C36.1691 126.31 36.2711 125.97 36.2949 125.63C36.3177 125.504 36.2973 125.375 36.2371 125.262C36.1782 125.202 36.1073 125.154 36.0288 125.122C35.9503 125.091 35.8661 125.076 35.7815 125.079C35.3395 125.038 34.8975 125.011 34.4521 124.994C34.3998 124.985 34.3463 124.988 34.2949 125.001C34.2435 125.014 34.1952 125.037 34.1529 125.069C34.0713 125.147 34.0747 125.279 34.0543 125.392C34.0339 125.504 33.9557 125.636 33.8435 125.619C33.8068 125.61 33.7739 125.59 33.749 125.561C33.7241 125.533 33.7085 125.497 33.7041 125.46C33.7041 125.385 33.6361 124.803 33.6361 124.729C33.6157 124.735 33.4593 124.715 33.4083 124.814Z" fill="#37474F"/>
<path id="Vector_147" d="M36.7953 130.447C36.7947 130.235 36.7384 130.026 36.6321 129.842C36.1391 128.958 33.6639 129.019 32.9227 129.948C32.902 130.195 32.9493 130.443 33.0596 130.666C33.1699 130.888 33.3389 131.076 33.5483 131.209C33.9767 131.529 34.6533 131.573 35.2075 131.549C35.6394 131.549 36.0612 131.418 36.4179 131.175C36.5382 131.097 36.6362 130.988 36.7023 130.861C36.7684 130.733 36.8005 130.591 36.7953 130.447Z" fill="#455A64"/>
<path id="Vector_148" d="M40.025 125.772C40.5418 126.891 41.3544 126.452 42.405 125.725L42.9184 119.03L39.6748 119.907L40.025 125.772Z" fill="#FFA8A7"/>
<path id="Vector_149" d="M46.6822 128.326C46.7429 128.506 46.732 128.704 46.6516 128.877C46.5734 129.036 45.7302 129.512 44.5946 129.438C43.7503 129.377 42.9372 129.093 42.2384 128.615C41.8001 128.357 41.2983 128.228 40.79 128.241C40.2256 128.21 39.4878 127.928 39.362 127.663C39.2988 127.427 39.3059 127.177 39.3824 126.945L46.6822 128.326Z" fill="#263238"/>
<path id="Vector_150" d="M42.7009 124.78C42.7421 124.862 42.7784 124.948 42.8097 125.035C42.9364 125.349 43.1412 125.627 43.4047 125.84C43.7864 126.129 44.1993 126.374 44.6355 126.571C44.9075 126.707 45.1999 126.755 45.4787 126.864C45.7955 126.98 46.0996 127.128 46.3865 127.306C46.4973 127.381 46.588 127.483 46.6506 127.601C46.7133 127.72 46.746 127.852 46.746 127.986C46.746 128.12 46.7133 128.252 46.6506 128.37C46.588 128.489 46.4973 128.59 46.3865 128.666C45.5056 129.067 44.5092 129.136 43.5815 128.86C42.9219 128.673 42.1909 127.969 41.3239 127.901C40.7731 127.857 39.7327 127.704 39.3791 127.285C39.2669 126.677 39.4233 126.51 39.5661 126.004C39.6431 125.717 39.6898 125.423 39.7055 125.126C39.7055 124.97 39.6273 124.518 39.9571 124.477V124.817C39.9571 124.817 40.0149 124.933 40.3549 125.007C40.4637 125.031 40.5453 125.177 40.5997 125.313C40.6541 125.449 40.6847 125.548 40.7935 125.551C40.8317 125.549 40.8684 125.536 40.8997 125.514C40.9309 125.491 40.9553 125.461 40.9703 125.426C40.9992 125.355 41.023 125.282 41.0417 125.208C41.0909 125.093 41.1643 124.989 41.257 124.905C41.3497 124.82 41.4595 124.757 41.5789 124.718C41.7771 124.661 41.9813 124.627 42.1875 124.616C42.3473 124.599 42.4765 124.538 42.6125 124.674C42.6466 124.705 42.6763 124.741 42.7009 124.78Z" fill="#37474F"/>
<path id="Vector_151" d="M39.6409 125.643C39.6171 125.769 39.5933 125.891 39.5593 126.014C39.4165 126.52 39.2601 126.694 39.3723 127.295C39.6443 127.615 40.3209 127.782 40.8683 127.86C41.0553 126.819 40.4059 126.041 39.6409 125.643Z" fill="#455A64"/>
<path id="Vector_152" d="M33.9015 99.0655C33.7587 103.4 33.8199 105.138 33.8369 113.111C33.4683 114.333 33.2715 115.601 33.2521 116.878C33.1977 118.874 33.4085 122.998 33.4085 122.998C33.4085 122.998 35.0609 124.018 36.4685 123.209C36.4685 123.209 37.5905 117.14 38.0223 114.369C38.3997 111.924 38.7873 108.347 38.7873 108.347L39.3279 113.43C39.1738 114.712 39.1431 116.005 39.2361 117.293C39.3279 118.598 39.6849 123.202 39.6849 123.202C39.6849 123.202 41.1809 124.246 42.7449 123.409C42.7449 123.409 43.4793 114.25 43.5031 113.063C43.5269 111.703 42.9999 97.9639 42.9999 97.9639L33.9015 99.0655Z" fill="#455A64"/>
<path id="Vector_153" d="M38.7773 108.337L39.5967 103.604C39.5967 103.604 41.3749 103.448 42.3609 102.455C42.3609 102.455 42.1841 103.431 39.9469 104.012L39.1275 108.772L39.3179 113.406L38.7773 108.337Z" fill="#263238"/>
<path id="Vector_154" d="M46.4066 127.278C46.1506 127.14 45.8819 127.026 45.6042 126.938C45.1046 126.976 44.6388 127.205 44.3037 127.577C43.9686 127.95 43.7902 128.437 43.8056 128.938C44.6668 129.175 45.5846 129.097 46.393 128.717C46.5069 128.635 46.6 128.528 46.6646 128.403C46.7292 128.279 46.7636 128.141 46.7649 128.001C46.7662 127.861 46.7345 127.722 46.6722 127.597C46.6099 127.471 46.519 127.362 46.4066 127.278Z" fill="#455A64"/>
</g>
<g id="freepik--Top--inject-18">
<g id="freepik--Arm--inject-18">
<path id="Vector_155" d="M40.1604 87.958C40.9254 87.9376 42.3534 87.9205 43.3462 89.2057C44.0466 90.1101 45.9608 92.2895 47.0386 93.7209C47.8036 92.9627 49.6532 91.1268 49.9626 90.5828C50.2539 90.0732 50.4931 89.5355 50.6766 88.978C50.796 88.6529 50.8837 88.317 50.9384 87.975C51.0087 87.5538 51.0293 87.1259 50.9996 86.7C50.9996 86.3192 51.564 86.5266 51.768 87.1386C51.8687 87.4771 51.9157 87.8293 51.9074 88.1823L52.8356 87.7573C53.1756 87.6111 54.2398 87.2644 54.3282 87.8628C54.3182 87.9982 54.3274 88.1344 54.3554 88.2673C54.3878 88.3229 54.4253 88.3753 54.4676 88.4238C54.5379 88.521 54.5813 88.6352 54.5932 88.7546C54.6051 88.874 54.5853 88.9945 54.5356 89.1038C54.4822 89.1988 54.4596 89.3081 54.471 89.4165C54.4926 89.5288 54.4926 89.6442 54.471 89.7565C54.4325 89.8424 54.3858 89.9244 54.3316 90.0013C54.278 90.1078 54.2434 90.2229 54.2296 90.3413C54.2166 90.4583 54.1868 90.5728 54.1412 90.6813C54.0188 90.9431 53.6992 90.9976 53.4612 91.0792C53.0828 91.1963 52.7106 91.3324 52.346 91.4871C51.7476 91.8645 50.0918 94.7001 48.4394 96.5055C47.8716 97.1243 47.3684 97.5085 46.8448 97.4269C46.4198 97.4099 45.9064 97.0122 45.4134 96.5634C43.8392 95.1422 41.296 92.4834 41.296 92.4834C40.2352 91.1948 40.0176 88.8318 40.1604 87.958Z" fill="#FFA8A7"/>
<path id="Vector_156" d="M40.1606 87.9578C40.8969 87.857 41.6466 87.9753 42.3162 88.2978C42.9962 88.6378 43.1322 88.852 43.7748 89.6068C44.4174 90.3616 45.3116 91.4972 45.3116 91.4972C45.3116 91.4972 44.805 93.646 42.714 94.1798L39.96 90.9804L40.1606 87.9578Z" fill="#455A64"/>
<path id="Vector_157" d="M52.322 88.2607C51.982 88.3661 51.9038 88.6007 51.9174 89.0631C51.9174 89.3453 51.846 89.8689 51.54 90.0831C51.6875 90.0658 51.8262 90.0041 51.9378 89.9063C52.084 89.7567 52.1214 89.7397 52.203 89.8247C52.2649 89.8796 52.338 89.9202 52.4172 89.9437C52.3655 90.0038 52.3346 90.0789 52.329 90.158C52.3235 90.237 52.3437 90.3157 52.3866 90.3823C52.5362 90.6237 53.1958 90.6237 53.7466 90.3381C53.7466 90.3381 52.8694 90.6203 52.662 90.3381C52.4546 90.0559 52.9204 89.7057 53.2672 89.6071C53.2672 89.6071 52.4172 89.8179 52.2846 89.5425C52.152 89.2671 52.5022 89.0495 53.002 88.9169C53.002 88.9169 52.3016 89.0495 52.1792 88.8149C52.1313 88.7211 52.1193 88.6129 52.1456 88.5108C52.1719 88.4087 52.2347 88.3198 52.322 88.2607Z" fill="#F28F8F"/>
</g>
<path id="Vector_158" d="M42.8404 91.2697C42.65 89.8791 42.4664 88.0091 40.3108 87.9241L37.5092 87.7915C36.8292 87.9683 33.7692 88.8557 33.7692 88.8557V93.2757C33.7692 93.2757 33.8712 95.1219 33.997 97.4509C33.997 97.4509 33.7454 100.171 33.7692 101.228C35.7616 102.49 41.0486 102.129 43.1498 100.861C43.2484 98.9401 43.041 92.6467 42.8404 91.2697Z" fill="#249C6B"/>
<path id="Vector_159" d="M39.4025 83.3748L35.0199 83.147C34.1869 83.8066 32.6399 85.187 32.6399 85.5644V85.8262C32.637 85.8362 32.637 85.8468 32.6399 85.8568C32.7997 86.1492 33.3641 86.3192 34.2345 86.3158C35.2545 86.3158 36.8695 86.1832 37.2945 85.8126C37.9167 85.2516 39.4059 83.623 39.4059 83.623H39.1849L39.4025 83.3748Z" fill="#249C6B"/>
<path id="Vector_160" opacity="0.2" d="M39.4025 83.3748L35.0199 83.147C34.1869 83.8066 32.6399 85.187 32.6399 85.5644V85.8262C32.637 85.8362 32.637 85.8468 32.6399 85.8568C32.7997 86.1492 33.3641 86.3192 34.2345 86.3158C35.2545 86.3158 36.8695 86.1832 37.2945 85.8126C37.9167 85.2516 39.4059 83.623 39.4059 83.623H39.1849L39.4025 83.3748Z" fill="black"/>
<path id="Vector_161" d="M35.0198 83.3916C34.146 84.0716 32.4936 85.5642 32.6568 85.8566C32.82 86.149 33.381 86.319 34.2514 86.3156C35.2714 86.3156 36.8864 86.183 37.3114 85.8124C37.9336 85.2514 39.4228 83.6228 39.4228 83.6228L35.0198 83.3916Z" fill="#249C6B"/>
<path id="Vector_162" opacity="0.4" d="M35.0198 83.3916C34.146 84.0716 32.4936 85.5642 32.6568 85.8566C32.82 86.149 33.381 86.319 34.2514 86.3156C35.2714 86.3156 36.8864 86.183 37.3114 85.8124C37.9336 85.2514 39.4228 83.6228 39.4228 83.6228L35.0198 83.3916Z" fill="black"/>
<path id="Vector_163" d="M35.0205 83.3915C35.0205 83.5207 35.4625 83.7757 35.4625 83.7757L35.3197 83.0073L35.0205 83.3915Z" fill="#249C6B"/>
<path id="Vector_164" opacity="0.3" d="M35.0205 83.3915C35.0205 83.5207 35.4625 83.7757 35.4625 83.7757L35.3197 83.0073L35.0205 83.3915Z" fill="black"/>
<path id="Vector_165" d="M41.9389 80.5154C41.7256 80.1211 41.4228 79.7822 41.0549 79.526C40.4055 79.0772 39.5657 79.0058 38.7769 79.0364C38.2737 79.0455 37.7739 79.1221 37.2911 79.2642C36.8334 79.4039 36.4158 79.6512 36.0733 79.9854C35.7308 80.3196 35.4733 80.7311 35.3225 81.1852C35.138 81.7475 35.0793 82.3435 35.1504 82.9309C35.2215 83.5184 35.4207 84.0832 35.7339 84.5852C36.0093 85.017 36.1861 85.4862 36.4139 85.9452C36.6077 86.3226 36.7539 86.6252 36.7539 86.6252L36.6893 85.4318L37.8249 85.3332C38.1516 85.2781 38.4835 85.2598 38.8143 85.2788C39.1254 85.2938 39.4316 85.1973 39.6779 85.0068C40.2151 84.6648 40.7275 84.2854 41.2113 83.8712C41.5265 83.6191 41.8047 83.3238 42.0375 82.994C42.0916 82.9176 42.1393 82.8368 42.1803 82.7526C42.2554 82.6102 42.3059 82.4562 42.3299 82.297C42.3695 82.0726 42.3797 81.8441 42.3605 81.617C42.3193 81.3836 42.252 81.1555 42.1599 80.937C42.094 80.7926 42.0202 80.6518 41.9389 80.5154Z" fill="#263238"/>
<path id="Vector_166" d="M38.9913 81.5015C38.7332 81.4672 38.4777 81.4161 38.2263 81.3485H38.1549C38.062 81.6321 37.8969 81.8867 37.6757 82.087C37.4545 82.2873 37.1849 82.4265 36.8935 82.4909C36.9845 82.9663 36.996 83.4534 36.9275 83.9325C36.9086 84.0356 36.8718 84.1346 36.8187 84.2249C36.7902 84.2684 36.7527 84.3051 36.7087 84.3327C36.6646 84.3603 36.6152 84.378 36.5637 84.3847C36.4243 84.3847 36.3665 84.3099 36.3223 84.2011C36.2622 84.0612 36.1917 83.926 36.1115 83.7965C36.0782 83.7389 36.037 83.6863 35.9891 83.6401C35.9096 83.556 35.81 83.4936 35.6997 83.4587C35.5894 83.4238 35.472 83.4176 35.3587 83.4408C35.2453 83.4639 35.1397 83.5156 35.0519 83.591C34.9641 83.6663 34.897 83.7628 34.8569 83.8713C34.7482 84.2054 34.7652 84.5678 34.9048 84.8902C35.0444 85.2126 35.297 85.473 35.6151 85.6223C36.4889 85.8637 36.6759 85.2823 36.6759 85.2823L36.8459 88.3933C37.3185 88.8863 39.1137 89.5663 39.6305 90.1511C39.8617 89.7533 40.5247 88.7741 39.6509 88.2199L39.6169 87.2713C40.0038 87.3196 40.3947 87.3264 40.7831 87.2917C41.4155 87.1727 41.7283 86.6389 41.8983 85.9317C42.1703 84.8165 42.1363 82.6949 42.0513 81.8517C42.0276 81.551 41.9833 81.2522 41.9187 80.9575C41.9459 81.0425 41.3203 81.2975 41.2387 81.2975C40.9567 81.3924 40.6646 81.454 40.3683 81.4811C40.0294 81.5151 39.6887 81.5276 39.3483 81.5185C39.2291 81.5196 39.1099 81.5139 38.9913 81.5015Z" fill="#FFA8A7"/>
<path id="Vector_167" d="M39.6169 87.244C38.9599 87.1402 38.3135 86.9775 37.6857 86.7578C37.39 86.6142 37.1437 86.3858 36.9785 86.1016C37.0636 86.3882 37.2046 86.6551 37.3933 86.887C37.7707 87.3392 39.6271 87.5432 39.6271 87.5432L39.6169 87.244Z" fill="#F28F8F"/>
<path id="Vector_168" d="M39.0079 83.5548C39.0079 83.607 38.9925 83.658 38.9637 83.7014C38.9348 83.7449 38.8938 83.7789 38.8457 83.7991C38.7977 83.8194 38.7447 83.825 38.6935 83.8153C38.6422 83.8056 38.5949 83.781 38.5576 83.7446C38.5203 83.7082 38.4945 83.6616 38.4835 83.6106C38.4725 83.5596 38.4768 83.5065 38.4958 83.458C38.5149 83.4094 38.5478 83.3675 38.5905 83.3376C38.6332 83.3077 38.6838 83.291 38.7359 83.2896C38.7713 83.2887 38.8066 83.2949 38.8395 83.3078C38.8725 83.3208 38.9025 83.3402 38.9279 83.3649C38.9532 83.3896 38.9734 83.4191 38.9871 83.4518C39.0009 83.4844 39.008 83.5194 39.0079 83.5548Z" fill="#263238"/>
<path id="Vector_169" d="M38.6517 82.2529L37.9717 82.4535C37.9461 82.3633 37.9567 82.2667 38.0011 82.1842C38.0455 82.1017 38.1203 82.0398 38.2097 82.0115C38.2545 81.9959 38.3021 81.9899 38.3493 81.9938C38.3966 81.9978 38.4425 82.0115 38.4842 82.0343C38.5258 82.057 38.5622 82.0882 38.5911 82.1259C38.6199 82.1635 38.6406 82.2068 38.6517 82.2529Z" fill="#263238"/>
<path id="Vector_170" d="M39.1007 85.4043L40.0799 85.7443C40.0605 85.8095 40.0283 85.8702 39.9851 85.9227C39.9419 85.9753 39.8887 86.0187 39.8285 86.0504C39.7683 86.0821 39.7024 86.1014 39.6346 86.1072C39.5668 86.113 39.4986 86.1053 39.4339 86.0843C39.2998 86.0379 39.1895 85.9404 39.1271 85.813C39.0646 85.6856 39.0551 85.5387 39.1007 85.4043Z" fill="#B16668"/>
<path id="Vector_171" d="M39.2156 85.6084C39.1729 85.6083 39.1304 85.6152 39.0898 85.6288C39.0993 85.7274 39.1361 85.8213 39.1962 85.9001C39.2563 85.9788 39.3372 86.0391 39.4298 86.0742C39.4996 86.0988 39.574 86.107 39.6474 86.098C39.649 86.0856 39.649 86.073 39.6474 86.0606C39.6484 85.9439 39.6039 85.8314 39.5232 85.7469C39.4426 85.6625 39.3323 85.6128 39.2156 85.6084Z" fill="#F28F8F"/>
<path id="Vector_172" d="M41.8204 82.3989L41.1846 82.1574C41.2173 82.0762 41.2801 82.0107 41.3599 81.9746C41.4397 81.9385 41.5303 81.9345 41.613 81.9637C41.6552 81.9785 41.6941 82.0016 41.7275 82.0315C41.7608 82.0615 41.7879 82.0977 41.8071 82.1381C41.8264 82.1786 41.8375 82.2224 41.8398 82.2672C41.842 82.3119 41.8355 82.3567 41.8204 82.3989Z" fill="#263238"/>
<path id="Vector_173" d="M37.6928 82.6504L35.4658 83.4154C35.5901 83.4158 35.7127 83.4452 35.8236 83.5013C35.9346 83.5573 36.031 83.6385 36.105 83.7384L37.6826 83.14L37.6928 82.6504Z" fill="#37474F"/>
<path id="Vector_174" d="M41.4396 83.5108C41.4389 83.5627 41.423 83.6132 41.3938 83.6561C41.3647 83.699 41.3237 83.7325 41.2757 83.7523C41.2278 83.7721 41.1751 83.7774 41.1242 83.7676C41.0733 83.7578 41.0263 83.7333 40.9892 83.6971C40.9521 83.6609 40.9264 83.6145 40.9153 83.5639C40.9042 83.5132 40.9082 83.4604 40.9269 83.412C40.9455 83.3636 40.9779 83.3217 41.0201 83.2915C41.0622 83.2614 41.1123 83.2442 41.1642 83.2422C41.1999 83.2418 41.2353 83.2484 41.2685 83.2616C41.3017 83.2749 41.3319 83.2945 41.3575 83.3195C41.3831 83.3444 41.4035 83.3741 41.4176 83.407C41.4316 83.4398 41.4391 83.4751 41.4396 83.5108Z" fill="#263238"/>
<path id="Vector_175" d="M42.6361 82.5417L42.4933 82.5247C42.0064 82.4671 41.5132 82.4924 41.0347 82.5995C40.5689 82.7525 40.4023 82.9157 40.1439 82.9225C39.8855 82.9293 39.6985 82.7695 39.2055 82.6335C38.691 82.5494 38.1662 82.5494 37.6517 82.6335C37.5973 82.6335 37.5429 82.6335 37.4953 82.6539C37.4398 82.6714 37.3918 82.707 37.3591 82.7552C37.3264 82.8033 37.3109 82.8611 37.3151 82.9191C37.3312 83.0327 37.3823 83.1385 37.4613 83.2217C37.4833 83.2599 37.4993 83.3011 37.5089 83.3441C37.5432 83.6284 37.6012 83.9093 37.6823 84.1839C37.7294 84.295 37.7949 84.3973 37.8761 84.4865C37.9078 84.5175 37.9419 84.5459 37.9781 84.5715L38.0359 84.6123C38.0907 84.6455 38.1488 84.6728 38.2093 84.6939H38.2365H38.2841H38.3317C38.3822 84.7045 38.4333 84.7113 38.4847 84.7143H38.6343C38.8582 84.7283 39.0811 84.6737 39.2731 84.5576C39.4651 84.4416 39.6171 84.2697 39.7087 84.0649C39.8753 83.7419 39.8413 83.2931 40.1371 83.2863H40.1915C40.4057 83.3339 40.3717 83.7487 40.5043 84.0445C40.5547 84.1623 40.6236 84.2714 40.7083 84.3675C40.7225 84.385 40.7384 84.401 40.7559 84.4151L40.7831 84.4389C40.7905 84.4486 40.7998 84.4566 40.8103 84.4627L40.8341 84.4797L40.8613 84.5001H40.8817H40.8987C40.9777 84.5442 41.0624 84.5774 41.1503 84.5987H41.1741C41.2757 84.6206 41.3797 84.6298 41.4835 84.6259C41.6798 84.6339 41.8736 84.5802 42.0377 84.4722C42.2018 84.3642 42.3278 84.2075 42.3981 84.0241C42.4865 83.7465 42.5525 83.4623 42.5953 83.1741C42.6054 83.1326 42.6252 83.0942 42.6531 83.0619C42.7292 82.9735 42.7777 82.8648 42.7925 82.7491C42.8027 82.6709 42.7177 82.5485 42.6361 82.5417ZM39.5489 83.7929C39.5125 83.9595 39.4341 84.114 39.3211 84.2417C39.2299 84.3333 39.1203 84.4045 38.9996 84.4508C38.8789 84.4971 38.7498 84.5174 38.6207 84.5103C38.4899 84.5225 38.3582 84.5 38.2388 84.4451C38.1194 84.3902 38.0166 84.3048 37.9407 84.1975L37.9203 84.1635C37.9034 84.1329 37.9034 84.1329 37.8864 84.1023C37.8852 84.0944 37.8852 84.0864 37.8863 84.0785V84.0547C37.8855 84.0491 37.8855 84.0433 37.8863 84.0377C37.885 84.0264 37.885 84.015 37.8863 84.0037C37.8863 83.9731 37.8625 83.9425 37.8523 83.9119C37.8523 83.9119 37.8523 83.8745 37.8523 83.8575C37.843 83.8275 37.8362 83.7968 37.8319 83.7657V83.7317C37.7843 83.5107 37.7367 83.0721 37.8319 82.9701C38.0953 82.8089 38.4081 82.7486 38.7125 82.8001H38.7635C38.8349 82.8001 38.9063 82.8205 38.9777 82.8341L39.0627 82.8545C39.1343 82.8714 39.2047 82.893 39.2735 82.9191L39.3381 82.9463L39.4061 82.9803H39.4333C39.4871 83.0091 39.5345 83.0484 39.5727 83.0959C39.6469 83.3238 39.6385 83.5706 39.5489 83.7929ZM42.3267 83.6467C42.307 83.7938 42.2554 83.9348 42.1755 84.0599C42.0956 84.1849 41.9894 84.2911 41.8643 84.3709C41.7576 84.4211 41.6421 84.45 41.5243 84.4559C41.387 84.4704 41.2483 84.4463 41.124 84.3862C40.9996 84.3261 40.8945 84.2325 40.8205 84.1159V84.0955V84.0717C40.8163 84.0586 40.8106 84.0461 40.8035 84.0343V83.9935V83.9731C40.8035 83.9731 40.8035 83.9731 40.8035 83.9561C40.7848 83.9031 40.7711 83.8485 40.7627 83.7929C40.6981 83.5692 40.7077 83.3307 40.7899 83.1129C41.0074 82.9187 41.2816 82.7995 41.5719 82.7729L41.7929 82.7525H41.9833H42.0445L42.1533 82.7695H42.1771H42.1975H42.2213H42.2519L42.3063 82.7899C42.3494 82.8071 42.3886 82.8325 42.4219 82.8647C42.4423 82.9803 42.3777 83.4223 42.3267 83.6399V83.6467Z" fill="#263238"/>
<path id="Vector_176" d="M40.0557 83.327L40.1067 85.18L41.1267 84.8808L40.1747 83.2998C40.1334 83.2995 40.0927 83.3088 40.0557 83.327Z" fill="#F28F8F"/>
<path id="Vector_177" d="M34.806 82.3309C34.8222 82.7009 34.8933 83.0664 35.0168 83.4155C35.0868 83.2989 35.1739 83.1935 35.2752 83.1027C35.8522 82.6015 36.5128 82.2056 37.2268 81.9331C38.8512 81.2447 40.6634 81.1378 42.3574 81.6305C42.3246 81.3135 42.2491 81.0025 42.133 80.7057C41.538 79.2505 40.382 78.5059 38.5664 78.7303C36.438 78.9989 34.704 80.2195 34.806 82.3309Z" fill="#249C6B"/>
<path id="Vector_178" d="M38.6816 80.9473C39.371 80.7469 40.0924 80.6811 40.8066 80.7535C40.9768 80.6054 41.1236 80.4323 41.2418 80.2401C41.4084 79.9647 41.3438 79.6179 41.1772 79.5601C41.0106 79.5023 41.0072 79.7063 40.385 80.0293C40.4643 79.8268 40.4786 79.6046 40.4258 79.3935C40.317 79.1419 40.1096 79.6043 39.6506 79.9103C39.1916 80.2163 38.7292 80.3795 38.6816 80.9473Z" fill="#263238"/>
<path id="Vector_179" d="M39.6308 90.1237C39.2908 89.9095 38.536 89.5389 38.1484 89.9503C37.7608 90.3617 37.5568 90.4807 37.3018 90.4059C37.0468 90.3311 36.241 89.5015 35.9418 89.0459C35.6018 88.5257 35.6834 88.3149 35.6834 88.3149L36.3192 87.4785C36.496 87.2439 36.5538 87.2167 36.7782 87.1997L36.8088 87.8185C36.8346 87.9708 36.8903 88.1164 36.9725 88.2471C37.0548 88.3778 37.1621 88.491 37.2882 88.5801C37.9206 89.0119 39.165 89.1275 39.6308 90.1237Z" fill="#455A64"/>
<path id="Vector_180" d="M39.6309 90.1235C39.8383 89.9297 40.3109 89.4435 40.6509 89.5489C40.9909 89.6543 41.1473 89.8515 41.1541 89.6679C41.045 89.2254 40.8548 88.8069 40.5931 88.4337C40.3651 88.0742 40.0347 87.7912 39.6445 87.6211L39.6649 88.1923C39.6649 88.1923 40.0729 88.7091 40.0253 89.0185C39.9777 89.3279 39.6717 89.8209 39.6309 90.1235Z" fill="#455A64"/>
<g id="freepik--arm--inject-18">
<path id="Vector_181" d="M48.4978 95.4277L41.1164 96.6925L38.1992 105.454L45.2304 104.067L48.4978 95.4277Z" fill="#263238"/>
<path id="Vector_182" opacity="0.15" d="M42.2151 101.929C42.1355 102.218 41.9806 102.481 41.7662 102.692C41.5518 102.902 41.2855 103.052 40.9945 103.126C40.3367 103.25 39.6576 103.193 39.0293 102.962L39.2741 102.231L42.2151 101.929Z" fill="black"/>
<path id="Vector_183" opacity="0.15" d="M46.2705 96.5361L46.3555 96.2675C46.3997 96.1179 45.9781 96.0737 45.4103 96.1689L44.3223 96.3525C43.7545 96.4477 43.2581 96.6449 43.2105 96.7945L43.1289 97.0631L46.2705 96.5361Z" fill="black"/>
<path id="Vector_184" d="M46.8624 95.5397C46.8896 95.4479 46.723 95.4071 46.485 95.4513L46.0532 95.5295C46.0532 95.5295 46.23 94.9447 45.278 95.0705C45.0251 95.0853 44.7803 95.1654 44.5675 95.3031C44.3548 95.4407 44.1814 95.6312 44.0642 95.8559L43.6018 95.9443C43.4016 95.9618 43.2144 96.0512 43.0748 96.1959L43.0068 96.3625L46.808 95.7131C46.808 95.7131 46.8318 95.6349 46.8624 95.5397Z" fill="#249C6B"/>
<path id="Vector_185" opacity="0.3" d="M46.8624 95.5397C46.8896 95.4479 46.723 95.4071 46.485 95.4513L46.0532 95.5295C46.0532 95.5295 46.23 94.9447 45.278 95.0705C45.0251 95.0853 44.7803 95.1654 44.5675 95.3031C44.3548 95.4407 44.1814 95.6312 44.0642 95.8559L43.6018 95.9443C43.4016 95.9618 43.2144 96.0512 43.0748 96.1959L43.0068 96.3625L46.808 95.7131C46.808 95.7131 46.8318 95.6349 46.8624 95.5397Z" fill="black"/>
<path id="Vector_186" d="M43.2555 96.8216C43.2929 96.6992 43.6465 96.5429 44.0885 96.4375V96.3966C44.1259 96.264 44.0885 96.1824 43.8063 96.2266V96.1212L46.4379 95.6895L46.3223 95.7949C45.9823 95.8493 45.8293 95.8798 45.7579 96.111L45.7409 96.162C46.1523 96.1246 46.4209 96.1621 46.3937 96.2981L46.3087 96.5666L43.1807 97.0937L43.2555 96.8216Z" fill="#249C6B"/>
<path id="Vector_187" opacity="0.4" d="M43.2555 96.8216C43.2929 96.6992 43.6465 96.5429 44.0885 96.4375V96.3966C44.1259 96.264 44.0885 96.1824 43.8063 96.2266V96.1212L46.4379 95.6895L46.3223 95.7949C45.9823 95.8493 45.8293 95.8798 45.7579 96.111L45.7409 96.162C46.1523 96.1246 46.4209 96.1621 46.3937 96.2981L46.3087 96.5666L43.1807 97.0937L43.2555 96.8216Z" fill="black"/>
<path id="Vector_188" d="M39.8108 100.616C40.7016 100.939 41.7046 100.858 42.6396 100.888C42.728 100.888 42.8368 100.888 42.8742 100.987C42.8839 101.026 42.8812 101.067 42.8666 101.105C42.852 101.143 42.8262 101.175 42.7926 101.198C42.7246 101.243 42.6629 101.296 42.609 101.357C42.5376 101.463 42.5648 101.602 42.5444 101.728C42.4953 101.91 42.3936 102.073 42.252 102.197C42.1166 102.36 41.9586 102.502 41.7828 102.619C41.1278 102.931 40.3879 103.019 39.6782 102.867C39.2388 102.771 38.8096 102.633 38.3964 102.456C38.002 102.299 35.6118 101.531 35.3364 101.436C33.2284 100.643 30.3248 99.6642 30.1752 98.6544C30.0256 97.6446 30.8994 94.3194 31.3414 91.766C31.763 89.3418 32.664 89.0461 34.0308 88.7979C34.5057 89.4791 34.7856 90.2772 34.8401 91.1059C34.8946 91.9346 34.7218 92.7624 34.3402 93.5L33.4528 97.4406C34.837 98.334 36.2682 99.1523 37.7402 99.892C38.0228 99.9397 38.3129 99.9151 38.5834 99.8206C39.0847 99.6709 39.6122 99.6304 40.1304 99.7016" fill="#FFA8A7"/>
<path id="Vector_189" d="M34.0814 88.7671C32.6398 88.9303 31.9598 89.2839 31.6198 90.4399C31.2798 91.5959 30.7256 94.3431 30.7256 94.3431C31.664 95.2101 32.939 95.3631 34.0066 95.3835L34.486 93.4557C34.8396 92.6839 35.4856 90.4569 34.0814 88.7671Z" fill="#455A64"/>
</g>
</g>
</g>
</g>
</g>
</svg>
