<svg width="256" height="170" viewBox="0 0 256 170" fill="none" xmlns="http://www.w3.org/2000/svg">
<g id="Free shipping-cuate 1">
<g id="freepik--background-complete--inject-5">
<path id="Vector" d="M54.9886 46.2401L25.2012 46.1925C25.2012 46.1925 26.6836 44.2681 28.319 44.0301C28.319 44.0301 31.5082 34.5815 36.819 34.5101C41.7592 34.4557 43.7312 40.3343 43.7312 40.3343C43.7312 40.3343 46.0262 37.7027 48.2124 38.9131C50.3986 40.1235 51.6328 43.5745 51.6328 43.5745C51.6328 43.5745 54.0978 44.9005 54.9886 46.2401Z" fill="#EBEBEB"/>
<path id="Vector_2" d="M91.96 52.8937L129.629 52.9515C129.629 52.9515 129.629 50.5443 124.444 50.0649C124.444 50.0649 119.721 39.5249 112.486 40.9427C107.981 41.8165 105.669 47.9977 105.669 47.9977C105.669 47.9977 102.269 43.1255 99.5488 44.0605C96.8288 44.9955 95.2002 50.1805 95.2002 50.1805C95.2002 50.1805 92.402 51.5337 91.96 52.8937Z" fill="#EBEBEB"/>
<path id="Vector_3" d="M72.0801 26.0134L97.6923 26.0542C97.6923 26.0542 95.2783 23.8 94.2039 23.8C93.1295 23.8 90.0049 16.2384 85.9997 16.5546C81.9945 16.8708 79.8593 22.491 79.8593 22.491C79.8593 22.491 74.9905 20.9576 72.0801 26.0134Z" fill="#EBEBEB"/>
<path id="Vector_4" d="M131.101 33.9048L153.003 33.9388C153.003 33.9388 151.919 32.521 150.719 32.3408C150.719 32.3408 148.393 25.3844 144.483 25.33C140.848 25.279 139.383 29.597 139.383 29.597C139.383 29.597 137.7 27.6556 136.092 28.5396C134.484 29.4236 133.569 31.96 133.569 31.96C133.569 31.96 131.76 32.9324 131.101 33.9048Z" fill="#EBEBEB"/>
<path id="Vector_5" d="M240.687 61.2748C240.703 70.9996 237.623 80.4771 231.894 88.3354C227.263 94.7056 221.076 99.7812 213.923 103.077C206.77 106.372 198.891 107.777 191.039 107.158C183.188 106.538 175.627 103.915 169.08 99.5382C162.532 95.1616 157.217 89.1783 153.642 82.1606C150.068 75.1428 148.354 67.3253 148.664 59.4558C148.974 51.5862 151.298 43.9278 155.413 37.2131C159.529 30.4983 165.298 24.9517 172.17 21.1038C179.041 17.2558 186.785 15.2353 194.661 15.2354C195.922 15.2354 197.174 15.283 198.401 15.385C205.531 15.9554 212.429 18.1901 218.539 21.9096C223.255 24.7799 227.419 28.4717 230.834 32.81C237.228 40.9139 240.702 50.9381 240.694 61.2612L240.687 61.2748Z" fill="#EBEBEB"/>
<path id="Vector_6" d="M204.595 83.0008C204.017 84.5478 204.983 84.6124 205.047 85.2584C205.112 85.9044 205.047 87.125 203.177 88.9984C201.307 90.8718 198.213 90.4808 197.571 91.256C196.928 92.0312 195.83 95.3156 194.283 96.4138C192.736 97.512 192.477 96.8626 190.284 97.3148C188.091 97.767 186.415 100.603 185.773 101.956C185.13 103.309 185.902 105.567 184.355 105.631C182.808 105.696 182.097 102.343 180.679 100.531C179.262 98.719 178.809 97.1142 178.357 94.9892C177.905 92.8642 178.616 88.4136 178.357 86.6728C178.099 84.932 173.458 81.838 171.782 79.7096C170.105 77.5812 167.78 73.3312 167.916 71.9134C168.112 70.5376 168.798 69.2787 169.847 68.3672C170.622 67.7858 170.299 67.4662 170.428 66.9494C170.558 66.4326 171.204 66.3034 171.333 65.6608C171.462 65.0182 170.945 63.0802 170.313 62.7572C169.68 62.4342 169.218 63.5324 168.83 63.3386C168.443 63.1448 167.283 61.7916 166.831 61.6624C166.379 61.5332 166.512 62.5022 165.866 61.2748C165.22 60.0474 164.886 56.9568 164.38 56.44C163.873 55.9232 163.475 57.3444 162.251 56.44C161.027 55.5356 160.511 53.7982 159.997 53.5398C159.484 53.2814 158.77 53.6044 158.239 52.5742C157.709 51.544 158.705 49.6706 158.239 49.8542C157.774 50.0378 156.774 51.5304 156.516 50.1126C156.257 48.6948 157.804 43.9246 157.536 41.3474C157.267 38.7702 158.182 36.0604 159.987 33.8674C159.987 33.8674 160.242 32.4496 160.5 31.5486C160.759 30.6476 166.304 27.0334 166.96 26.0032C167.229 25.5714 167.321 24.8982 167.416 24.1706C175.31 18.3528 184.864 15.222 194.67 15.2388C195.932 15.2388 197.183 15.2864 198.41 15.3884C198.451 15.4462 198.495 15.504 198.54 15.5584C199.097 16.269 199.699 16.7212 201.334 17.323C202.97 17.9248 203.351 18.683 203.011 19.3426C202.671 20.0022 202.106 20.1144 201.464 20.1586C200.821 20.2028 200.216 19.856 199.529 20.2878C198.842 20.7196 198.169 23.0384 197.251 23.1676C196.333 23.2968 194.759 21.1038 194.412 20.4476C194.065 19.7914 195.187 18.428 194.66 17.7854C194.133 17.1428 193.212 17.2686 191.75 17.1394C190.288 17.0102 186.891 17.5712 187.02 18.1288C187.15 18.6864 192.005 18.0404 192.12 19.1488C192.236 20.2572 188.554 22.1578 187.911 21.9844C187.269 21.811 186.415 20.74 185.46 20.5972C184.504 20.4544 183.76 21.2432 183.148 21.3282C182.536 21.4132 181.852 20.6856 180.948 20.8556C180.044 21.0256 179.829 21.8008 179.357 22.1034C178.884 22.406 177.769 22.4026 177.64 23.0894C177.511 23.7762 179.058 24.1672 179.445 24.5956C179.833 25.024 178.969 26.486 179.357 26.7852C179.744 27.0844 182.152 24.9832 182.757 24.4664C183.362 23.9496 183.872 21.7158 185.164 21.7464C186.456 21.777 186.881 23.9802 187.313 24.1944C187.745 24.4086 188.673 23.6776 190.108 23.9802C191.542 24.2828 192.511 27.3802 192.77 28.322C193.028 29.2638 193.63 30.2124 193.11 30.6C192.59 30.9876 190.274 30.3416 189.975 29.7398C189.676 29.138 191.522 28.2336 191.393 28.0194C191.264 27.8052 190.189 27.5026 189.628 27.8392C189.067 28.1758 188.812 28.8796 188.21 29.053C187.609 29.2264 186.021 27.4176 185.589 27.9344C185.157 28.4512 186.021 30.0832 186.449 30.4708C186.878 30.8584 188.469 31.0692 188.598 31.4908C188.727 31.9124 187.524 32.8508 186.062 32.7794C184.6 32.708 183.399 31.5758 182.838 32.0484C182.277 32.521 182.58 33.7688 182.192 34.1972C181.805 34.6256 179.7 34.3264 178.67 35.445C177.64 36.5636 177.167 38.2364 176.134 39.185C175.1 40.1336 174.631 38.93 173.254 40.2628C171.877 41.5956 171.666 44.5604 171.622 45.5906C171.578 46.6208 171.622 47.4368 171.282 47.2906C170.942 47.1444 170.466 46.2706 170.337 45.7028C170.207 45.135 170.636 44.1966 170.636 43.8532C170.636 43.5098 168.66 41.7486 167.498 41.5752C166.335 41.4018 165.308 42.3504 164.438 43.0372C163.567 43.724 162.03 43.5982 161.473 44.1558C160.915 44.7134 160.483 49.657 160.912 50.8164C161.34 51.9758 161.901 51.9758 163.292 51.374C164.682 50.7722 163.894 49.6128 164.71 49.8712C165.076 50.0093 165.392 50.2562 165.615 50.5789C165.837 50.9017 165.955 51.2847 165.954 51.6766C165.954 52.3566 164.322 53.9954 164.536 54.468C164.75 54.9406 166.172 54.383 166.858 54.5972C167.545 54.8114 167.878 55.2432 167.674 57.0044C167.47 58.7656 167.589 60.1426 168.62 60.724C169.65 61.3054 170.231 59.8842 170.683 60.078C171.136 60.2718 171.778 61.302 172.424 61.2374C173.07 61.1728 172.747 60.5948 173.971 60.2174C175.195 59.84 174.743 59.5714 174.991 58.7996C175.239 58.0278 176.011 57.3818 176.861 57.7796C177.711 58.1774 177.12 58.7486 177.201 59.3912C177.283 60.0338 178.748 60.1018 179.921 60.4894C181.094 60.877 181.727 60.4894 184.049 61.2612C186.371 62.033 186.497 64.3552 187.466 64.7428C188.435 65.1304 191.655 64.4844 193.977 66.1606C196.299 67.8368 195.653 70.9206 196.812 71.8352C197.972 72.7498 202.293 73.9636 203.952 74.2832C205.612 74.6028 205.884 73.4468 207.24 73.7698C208.597 74.0928 209.365 74.477 209.817 76.347C210.215 78.0062 205.18 81.4538 204.595 83.0008Z" fill="#DBDBDB"/>
<path id="Vector_7" d="M169.956 50.0379C170 50.4017 171.075 50.5547 172.363 51.2823C173.652 52.0099 174.124 54.1621 174.811 54.1213C175.498 54.0805 175.284 53.1013 175.542 52.8293C175.801 52.5573 176.222 52.0133 175.542 51.4693C174.862 50.9253 174.182 49.7081 172.931 49.5347C171.68 49.3613 171.459 48.8547 170.891 48.8921C170.751 48.8952 170.612 48.9288 170.486 48.9905C170.36 49.0522 170.248 49.1406 170.159 49.2495C170.071 49.3584 170.006 49.4853 169.971 49.6214C169.936 49.7575 169.931 49.8996 169.956 50.0379Z" fill="#DBDBDB"/>
<path id="Vector_8" d="M177.049 53.6485C176.855 54.1755 177.049 54.5495 178.409 54.8929C179.769 55.2363 181.075 54.5529 180.646 54.2707C180.218 53.9885 179.572 54.1211 179.827 53.6485C180.082 53.1759 179.997 52.4857 178.882 52.6285C177.766 52.7713 177.219 53.1759 177.049 53.6485Z" fill="#DBDBDB"/>
<path id="Vector_9" d="M181.859 53.7948C181.394 53.8628 181.132 54.6788 181.604 55.1956C182.077 55.7124 182.077 55.624 182.624 55.1956C183.172 54.7672 184.042 54.5496 183.828 54.1212C183.614 53.6928 182.335 53.72 181.859 53.7948Z" fill="#DBDBDB"/>
<path id="Vector_10" d="M185.599 55.5489C185.81 54.9063 186.888 55.5489 187.361 56.2289C187.833 56.9089 187.619 57.9051 187.361 58.6361C187.102 59.3671 186.932 60.2273 186.341 59.8839C185.749 59.5405 186.385 58.5069 186.296 57.9051C186.208 57.3033 185.429 56.0759 185.599 55.5489Z" fill="#DBDBDB"/>
<path id="Vector_11" d="M204.123 19.6962C203.899 20.2368 204.939 20.4272 205.541 20.7706C206.143 21.114 206.615 21.3282 206.959 20.7706C207.302 20.213 206.829 19.567 206.357 19.4378C205.884 19.3086 204.337 19.1794 204.123 19.6962Z" fill="#DBDBDB"/>
<path id="Vector_12" d="M212.245 24.7247C212.643 25.1429 213.319 25.0647 213.792 25.6699C214.265 26.2751 214.095 27.3019 214.696 27.6045C215.298 27.9071 215.716 27.6045 215.771 27.1727C215.825 26.7409 214.911 25.6699 214.996 25.4727C215.081 25.2755 216.243 25.7719 216.502 26.4179C216.76 27.0639 216.243 27.9649 216.842 28.1179C217.44 28.2709 217.314 27.5161 217.573 27.3461C217.831 27.1761 218.389 27.2577 218.345 26.7443C218.3 26.2309 217.614 25.1089 217.056 24.7247C216.498 24.3405 216.067 23.9087 215.121 23.7047C214.176 23.5007 213.275 23.6639 212.799 24.0447C212.323 24.4255 212 24.4799 212.245 24.7247Z" fill="#DBDBDB"/>
<path id="Vector_13" d="M230.84 32.8236C230.814 32.9977 230.728 33.1575 230.598 33.2758C229.694 33.9218 228.619 31.6846 227.375 31.2562C226.131 30.8278 225.58 29.24 225.311 29.58C225.043 29.92 225.138 30.396 224.75 30.94C224.363 31.484 223.805 31.3718 223.55 32.4462C223.295 33.5206 224.75 35.5062 224.41 36.142C224.07 36.7778 223.635 36.5704 222.945 36.5296C222.255 36.4888 222.387 37.0872 221.486 36.8288C220.585 36.5704 221.357 35.4688 219.939 34.1088C218.521 32.7488 218.045 32.5176 218.351 31.9158C218.657 31.314 218.219 30.4572 218.865 30.3688C219.511 30.2804 220.024 31.229 220.453 31.4874C220.881 31.7458 221.442 30.9706 221.473 30.2838C221.503 29.597 219.966 28.6518 219.409 28.118C218.851 27.5842 218.807 25.6428 219.021 25.2552C219.235 24.8676 219.881 24.9968 220.041 24.0516C220.14 23.4974 219.263 22.5692 218.518 21.896C223.246 24.7719 227.419 28.4731 230.84 32.8236Z" fill="#DBDBDB"/>
<path id="Vector_14" d="M237.259 71.3557C237.388 69.9787 236.702 69.8937 237.388 67.3573C238.075 64.8209 236.657 62.1145 236.141 61.5569C235.624 60.9993 234.509 61.1693 233.604 61.7269C232.7 62.2845 233.349 62.7163 232.744 62.9305C232.139 63.1447 231.544 62.8013 230.983 62.8455C230.422 62.8897 229.908 64.3041 228.705 64.2633C227.501 64.2225 226.729 62.5021 225.828 61.2747C224.927 60.0473 223.074 59.2789 222.476 57.7727C221.878 56.2665 223.034 53.9477 222.775 52.1865C222.517 50.4253 221.357 50.8095 221.143 49.8065C220.929 48.8035 221.313 49.2897 221.616 48.3445C221.918 47.3993 221.276 46.8825 221.874 45.2505C222.473 43.6185 223.55 42.7991 223.292 42.0715C223.034 41.3439 222.218 40.1369 222.173 39.2801C222.129 38.4233 222.989 38.4607 224.621 37.2401C226.253 36.0195 226.685 36.1215 227.933 36.5601C228.827 36.8925 229.747 37.1517 230.684 37.3353C231.415 37.4645 232.404 39.3549 232.703 39.2699C233.002 39.1849 233.043 38.6239 233.176 37.8079C233.258 37.4527 233.445 37.1304 233.713 36.8831C238.564 44.6626 240.982 53.713 240.658 62.8751C240.334 72.0372 237.282 80.8941 231.894 88.3115C236.28 81.6441 237.14 72.7293 237.259 71.3557Z" fill="#DBDBDB"/>
<path id="Vector_15" d="M167.018 35.1457L166.943 34.9009L167.283 34.8057L167.355 35.0505L167.018 35.1457Z" fill="#C7C7C7"/>
<path id="Vector_16" d="M227.93 45.2912L227.437 44.8186L227.614 44.635L228.107 45.111L227.93 45.2912ZM226.941 44.3528L226.434 43.8972L226.604 43.7068C226.774 43.8564 226.944 44.0094 227.114 44.1658L226.941 44.3528ZM225.921 43.4484L225.4 43.0064L225.564 42.8092L226.087 43.2546L225.921 43.4484ZM224.87 42.5746C224.693 42.4318 224.53 42.289 224.336 42.1496L224.493 41.949L225.03 42.374L224.87 42.5746ZM223.792 41.7348L223.245 41.3302L223.394 41.1228L223.945 41.5308L223.792 41.7348ZM222.691 40.9324L222.126 40.5414L222.272 40.3306L222.837 40.7216L222.691 40.9324ZM221.562 40.164C221.368 40.0382 221.178 39.9124 220.987 39.7934L221.123 39.5758L221.701 39.9498L221.562 40.164ZM220.406 39.4296L219.821 39.0896L219.954 38.8686L220.542 39.2086L220.406 39.4296ZM219.233 38.7496L218.638 38.4096L218.76 38.1852L219.359 38.5252L219.233 38.7496ZM218.033 38.0798L217.427 37.7636L217.543 37.5392C217.747 37.6412 217.951 37.7466 218.152 37.8554L218.033 38.0798ZM216.815 37.4576C216.611 37.3556 216.407 37.257 216.203 37.1618L216.312 36.9306L216.931 37.2298L216.815 37.4576ZM215.585 36.8728L214.959 36.5906L215.064 36.3594L215.69 36.6382L215.585 36.8728ZM214.333 36.322C214.123 36.2302 213.912 36.1452 213.701 36.0602L213.8 35.8222C214.01 35.9083 214.221 35.9967 214.432 36.0874L214.333 36.322ZM213.069 35.8052L212.433 35.5638L212.525 35.3258L213.164 35.5706L213.069 35.8052ZM211.797 35.3292L211.151 35.1014L211.236 34.86L211.882 35.0878L211.797 35.3292ZM210.508 34.8838L209.859 34.6764L209.937 34.4316L210.587 34.6424L210.508 34.8838ZM168.008 34.8838L167.94 34.639L168.603 34.4588L168.668 34.707L168.008 34.8838ZM169.331 34.5438L169.27 34.2956L169.95 34.1324L170.011 34.3806L169.331 34.5438ZM209.22 34.4962L208.564 34.3024L208.635 34.0576L209.291 34.2514L209.22 34.4962ZM170.664 34.2242L170.606 33.976L171.286 33.823L171.34 34.0712L170.664 34.2242ZM207.901 34.0916C207.68 34.0338 207.462 33.9726 207.241 33.9182L207.306 33.67L207.965 33.8468L207.901 34.0916ZM171.986 33.8978L171.935 33.6496L172.615 33.5068L172.666 33.7584L171.986 33.8978ZM206.581 33.7482L205.901 33.5884L205.959 33.3402C206.18 33.3946 206.405 33.4456 206.639 33.5034L206.581 33.7482ZM173.329 33.6224L173.278 33.3708L173.958 33.2416L174.006 33.4932L173.329 33.6224ZM205.255 33.4388L204.575 33.2926L204.63 33.0444L205.31 33.1906L205.255 33.4388ZM174.655 33.3674L174.611 33.1158L175.291 32.9968L175.332 33.2484L174.655 33.3674ZM203.895 33.1566L203.215 33.0274L203.263 32.7758C203.487 32.82 203.712 32.8608 203.943 32.9084L203.895 33.1566ZM176.015 33.1328L175.971 32.8812L176.651 32.769L176.689 33.0206L176.015 33.1328ZM177.375 32.9186L177.338 32.6636L178.018 32.565L178.052 32.8166L177.375 32.9186ZM202.576 32.9186L201.896 32.8064L201.937 32.5548L202.617 32.667L202.576 32.9186ZM178.732 32.735L178.695 32.4834L179.375 32.3916L179.405 32.6466L178.732 32.735ZM201.226 32.6976L200.546 32.599L200.584 32.3474L201.264 32.446L201.226 32.6976ZM180.089 32.5616L180.055 32.2998L180.735 32.2216L180.765 32.4732L180.089 32.5616ZM199.873 32.5072L199.193 32.4222L199.224 32.1706L199.904 32.2556L199.873 32.5072ZM181.449 32.4052L181.421 32.1536L182.101 32.0822L182.125 32.3372L181.449 32.4052ZM198.517 32.344L197.837 32.2726L197.86 32.0176L198.54 32.089L198.517 32.344ZM182.809 32.2726L182.788 32.0176L183.468 31.9598L183.489 32.2114L182.809 32.2726ZM197.153 32.208L196.473 32.1502L196.494 31.8952L197.174 31.953L197.153 32.208ZM184.172 32.157L184.155 31.9054L184.835 31.8544L184.852 32.1094L184.172 32.157ZM195.79 32.0992L195.11 32.055V31.8L195.79 31.8442V32.0992ZM185.539 32.0652L185.522 31.8102L186.202 31.7728V32.0278L185.539 32.0652ZM194.426 32.0142L193.746 31.9836V31.7286L194.426 31.7626V32.0142ZM186.906 31.9938V31.7388L187.586 31.7116V31.9666L186.906 31.9938ZM193.06 31.9598C192.833 31.9598 192.606 31.953 192.38 31.9394V31.6844C192.607 31.6844 192.839 31.6844 193.06 31.7048V31.9598ZM188.272 31.9598V31.7048H188.952V31.9598H188.272ZM191.693 31.9394H191.013V31.6844H191.693V31.9394ZM189.653 31.9394V31.6538H190.333V31.9088L189.653 31.9394Z" fill="#C7C7C7"/>
<path id="Vector_17" d="M228.674 46.0427L228.439 45.8013L228.62 45.6211L228.858 45.8659L228.674 46.0427Z" fill="#C7C7C7"/>
<path id="Vector_18" d="M177.351 62.8691C177.327 62.7472 177.316 62.6228 177.32 62.4985H177.575C177.571 62.6022 177.579 62.7061 177.599 62.8079L177.351 62.8691Z" fill="#C7C7C7"/>
<path id="Vector_19" d="M177.599 61.8257H177.344C177.344 61.6421 177.368 61.4381 177.382 61.2137V61.1423L177.637 61.1593V61.2273C177.64 61.4381 177.609 61.6421 177.599 61.8257ZM177.684 60.4657L177.429 60.4487C177.429 60.2345 177.456 60.0101 177.47 59.7687H177.722C177.711 60.0237 177.698 60.2515 177.684 60.4657ZM177.756 59.1057H177.501C177.501 58.8881 177.501 58.6603 177.521 58.4257H177.776C177.773 58.6535 177.762 58.8813 177.756 59.1023V59.1057ZM177.79 57.7457H177.535C177.535 57.5723 177.535 57.4057 177.535 57.2187V57.0657H177.79V57.2187C177.793 57.3819 177.793 57.5587 177.79 57.7321V57.7457ZM177.531 56.3857C177.531 56.1647 177.531 55.9369 177.511 55.7057H177.766C177.766 55.9403 177.766 56.1681 177.786 56.3857H177.531ZM177.48 55.0257C177.48 54.8047 177.453 54.5769 177.436 54.3457L177.691 54.3253C177.708 54.5565 177.722 54.7843 177.735 55.0053L177.48 55.0257ZM177.378 53.6657C177.358 53.4447 177.334 53.2203 177.31 52.9857L177.562 52.9551C177.589 53.1863 177.613 53.4107 177.633 53.6351L177.378 53.6657ZM177.225 52.3057C177.198 52.0847 177.164 51.8603 177.13 51.6257L177.382 51.5883C177.416 51.8161 177.45 52.0405 177.48 52.2683L177.225 52.3057ZM177.018 50.9457C176.977 50.7247 176.933 50.5037 176.889 50.2657L177.14 50.2147C177.184 50.4391 177.229 50.6635 177.266 50.8947L177.018 50.9457ZM176.746 49.6163C176.698 49.3953 176.644 49.1743 176.589 48.9533L176.838 48.8921C176.892 49.1165 176.946 49.3375 176.997 49.5721L176.746 49.6163ZM176.406 48.2971C176.345 48.0829 176.28 47.8653 176.215 47.6477L176.457 47.5729C176.525 47.7905 176.589 48.0115 176.651 48.2291L176.406 48.2971ZM176.008 47.0017C175.936 46.7886 175.861 46.5744 175.784 46.3591L176.025 46.2707C176.103 46.4883 176.178 46.7025 176.249 46.9201L176.008 47.0017ZM175.542 45.7267C175.461 45.5159 175.376 45.3051 175.284 45.0977L175.518 44.9991C175.61 45.2099 175.695 45.4207 175.78 45.6315L175.542 45.7267ZM175.008 44.4789C174.913 44.2749 174.818 44.0709 174.716 43.8669L174.944 43.7513C175.046 43.9587 175.144 44.1661 175.24 44.3701L175.008 44.4789ZM174.403 43.2651C174.298 43.0679 174.189 42.8673 174.063 42.6701L174.284 42.5443C174.4 42.7449 174.512 42.9421 174.624 43.1427L174.403 43.2651ZM173.723 42.0887C173.604 41.8983 173.485 41.7079 173.359 41.5175L173.574 41.3781C173.699 41.5685 173.822 41.7623 173.941 41.9561L173.723 42.0887ZM172.975 40.9565C172.846 40.7729 172.713 40.5927 172.577 40.4091L172.781 40.2561C172.921 40.4397 173.053 40.6233 173.186 40.8103L172.975 40.9565ZM172.163 39.8753C172.02 39.6985 171.877 39.5353 171.731 39.3517L171.925 39.1885C172.074 39.3619 172.217 39.5285 172.36 39.7155L172.163 39.8753ZM171.282 38.8553C171.129 38.6887 170.976 38.5153 170.816 38.3589L171 38.1821C171.161 38.3476 171.317 38.5142 171.469 38.6819L171.282 38.8553ZM170.337 37.8795C170.177 37.7231 170.014 37.5701 169.844 37.4171L170.017 37.2267L170.517 37.6959L170.337 37.8795ZM169.337 36.9649C169.167 36.8187 168.997 36.6759 168.817 36.5297L168.98 36.3325C169.157 36.4787 169.32 36.6249 169.504 36.7711L169.337 36.9649ZM168.287 36.1115C168.106 35.9755 167.926 35.8395 167.739 35.7069L167.889 35.4995L168.44 35.9075L168.287 36.1115Z" fill="#C7C7C7"/>
<path id="Vector_20" d="M167.192 35.3192L166.91 35.1288L167.053 34.918L167.335 35.1084L167.192 35.3192Z" fill="#C7C7C7"/>
<path id="Vector_21" d="M178.072 61.363L177.885 61.1896C177.885 61.1896 177.963 61.1012 178.119 60.9414L178.303 61.1182C178.15 61.2746 178.075 61.3596 178.072 61.363Z" fill="#C7C7C7"/>
<path id="Vector_22" d="M178.786 60.6356L178.605 60.452L179.105 59.976L179.282 60.1596L178.786 60.6356ZM179.785 59.6972L179.615 59.5068C179.775 59.3606 179.955 59.2076 180.132 59.0478L180.299 59.2416C180.118 59.4014 179.945 59.551 179.785 59.6972ZM180.805 58.7928L180.642 58.599C180.812 58.4562 180.982 58.3066 181.172 58.157L181.332 58.3542L180.805 58.7928ZM181.866 57.9224L181.706 57.7218L182.25 57.2934L182.407 57.4974C182.233 57.6402 182.06 57.8 181.88 57.9224H181.866ZM182.951 57.0792L182.798 56.8752C182.974 56.7392 183.161 56.6032 183.348 56.4638L183.501 56.6678C183.325 56.8072 183.141 56.9432 182.964 57.0792H182.951ZM184.056 56.2632L183.906 56.0558L184.47 55.658L184.617 55.8688L184.056 56.2632ZM185.181 55.4778L185.038 55.267L185.609 54.8828L185.749 55.097C185.569 55.2228 185.382 55.352 185.195 55.4778H185.181ZM186.323 54.7196L186.187 54.5054L186.769 54.1348L186.905 54.3524L186.323 54.7196ZM187.486 53.9886L187.354 53.7744L187.945 53.4344L188.074 53.652L187.486 53.9886ZM188.666 53.2882L188.537 53.0672L189.139 52.7272L189.261 52.9482L188.666 53.2882ZM189.863 52.6082L189.74 52.3838L190.346 52.0438L190.465 52.2682L189.863 52.6082ZM191.073 51.9622L190.954 51.7344L191.57 51.4216L191.685 51.6494C191.491 51.7582 191.287 51.8636 191.087 51.969L191.073 51.9622ZM192.297 51.3434L192.185 51.1156L192.807 50.8164L192.916 51.0476L192.297 51.3434ZM193.538 50.7552L193.433 50.524L194.058 50.2384L194.164 50.473L193.538 50.7552ZM194.793 50.1976L194.691 49.963L195.323 49.691L195.422 49.929L194.793 50.1976ZM196.058 49.6672L195.962 49.4292L196.602 49.1742L196.693 49.4122L196.058 49.6672ZM197.336 49.1674L197.244 48.926L197.89 48.688L197.979 48.926C197.775 49.011 197.56 49.0926 197.36 49.1742L197.336 49.1674ZM198.625 48.6948L198.54 48.4534L199.192 48.229L199.274 48.4704L198.625 48.6948ZM199.923 48.2562L199.845 48.0114L200.501 47.804L200.576 48.0454L199.923 48.2562ZM201.232 47.8448L201.161 47.6L201.821 47.4062L201.892 47.651L201.232 47.8448ZM202.552 47.464L202.484 47.2192L203.164 47.039L203.228 47.2872L202.552 47.464ZM203.878 47.124L203.816 46.8758L204.496 46.7126L204.554 46.9608C204.337 47.0118 204.112 47.0662 203.891 47.124H203.878ZM205.214 46.8044L205.156 46.5562L205.836 46.4066L205.89 46.6582L205.214 46.8044ZM206.574 46.5188L206.523 46.2672L207.203 46.1346L207.25 46.3862C207.017 46.427 206.79 46.4712 206.57 46.5188H206.574ZM207.934 46.2604L207.89 46.0088L208.57 45.8932L208.61 46.1448L207.934 46.2604ZM209.294 46.036L209.256 45.7844L209.936 45.6824L209.974 45.934L209.294 46.036ZM227.752 45.934L227.072 45.8456L227.106 45.5906L227.786 45.6824L227.752 45.934ZM210.62 45.8422L210.586 45.5872L211.266 45.5022L211.296 45.7572L210.62 45.8422ZM226.358 45.7606L225.678 45.6858L225.706 45.4342L226.386 45.509L226.358 45.7606ZM211.98 45.679L211.953 45.424L212.633 45.3526L212.656 45.6076L211.98 45.679ZM224.992 45.6178L224.312 45.5566L224.335 45.3016L225.015 45.3628L224.992 45.6178ZM213.357 45.56L213.336 45.305L214.016 45.2506V45.5022L213.357 45.56ZM223.635 45.5158L222.955 45.4682L222.972 45.2132L223.652 45.2608L223.635 45.5158ZM214.724 45.4546V45.203C214.951 45.203 215.179 45.1724 215.404 45.1622V45.4172L214.724 45.4546ZM222.268 45.4274L221.588 45.3934V45.1384L222.268 45.1724V45.4274ZM216.094 45.3832V45.1282L216.774 45.1044V45.3594L216.094 45.3832ZM220.898 45.3662L220.218 45.3458V45.0908L220.898 45.1112V45.3662ZM217.467 45.3424V45.0874C217.699 45.0874 217.926 45.0874 218.147 45.0874V45.3424C217.923 45.3186 217.695 45.322 217.467 45.3288V45.3424ZM219.524 45.3424H218.844V45.0874H219.524V45.3424Z" fill="#C7C7C7"/>
<path id="Vector_23" d="M228.749 46.0799L228.412 46.0289L228.45 45.7773L228.786 45.8283L228.749 46.0799Z" fill="#C7C7C7"/>
<path id="Vector_24" d="M193.28 68.9008L193.028 68.8566C193.028 68.8566 193.049 68.741 193.076 68.5166L193.328 68.5506C193.304 68.7818 193.28 68.9008 193.28 68.9008Z" fill="#C7C7C7"/>
<path id="Vector_25" d="M193.406 67.8708L193.151 67.847C193.151 67.6464 193.185 67.4186 193.199 67.167H193.454C193.44 67.4356 193.423 67.66 193.406 67.8708ZM193.481 66.487H193.226C193.226 66.2694 193.226 66.0416 193.226 65.807H193.481C193.491 66.0348 193.488 66.266 193.481 66.487ZM193.233 65.1066C193.233 64.8822 193.233 64.6544 193.209 64.4266H193.464C193.464 64.6646 193.484 64.8958 193.488 65.1066H193.233ZM193.171 63.7466C193.171 63.5222 193.141 63.2944 193.12 63.0666L193.372 63.0428C193.392 63.2808 193.413 63.5086 193.426 63.7228L193.171 63.7466ZM193.049 62.3866C193.025 62.1622 192.998 61.9378 192.964 61.7066L193.219 61.6692C193.25 61.9038 193.277 62.1316 193.304 62.3492L193.049 62.3866ZM192.865 61.0266C192.831 60.8022 192.791 60.5778 192.75 60.3466L193.001 60.3024C193.042 60.5336 193.083 60.7614 193.117 60.9824L192.865 61.0266ZM192.621 59.6666C192.576 59.4456 192.525 59.2212 192.474 58.9866L192.723 58.9288C192.777 59.1566 192.825 59.381 192.869 59.6088L192.621 59.6666ZM192.315 58.327C192.257 58.1094 192.199 57.8884 192.138 57.664L192.383 57.596C192.444 57.8204 192.505 58.0448 192.559 58.276L192.315 58.327ZM191.947 57.0044C191.879 56.7868 191.811 56.5692 191.74 56.3516L191.981 56.27C192.053 56.491 192.124 56.712 192.189 56.9296L191.947 57.0044ZM191.516 55.6988C191.441 55.488 191.363 55.2704 191.278 55.0562L191.516 54.9644C191.601 55.182 191.679 55.3996 191.757 55.6138L191.516 55.6988ZM191.026 54.4C190.941 54.1926 190.849 53.9818 190.757 53.771L190.992 53.6656C191.084 53.8798 191.176 54.094 191.261 54.3048L191.026 54.4ZM190.475 53.1454C190.38 52.938 190.278 52.734 190.176 52.5266L190.404 52.411C190.509 52.6218 190.608 52.8292 190.706 53.0366L190.475 53.1454ZM189.863 51.9146C189.757 51.7151 189.643 51.5145 189.523 51.3128L189.744 51.187C189.86 51.391 189.969 51.595 190.084 51.7956L189.863 51.9146ZM189.183 50.7178C189.068 50.5206 188.949 50.3268 188.826 50.1296L189.044 49.997C189.166 50.1942 189.285 50.3914 189.404 50.5886L189.183 50.7178ZM188.456 49.555C188.333 49.3646 188.204 49.1742 188.071 48.9838L188.282 48.841C188.414 49.0314 188.543 49.2218 188.67 49.4122L188.456 49.555ZM187.674 48.4262C187.541 48.2426 187.402 48.059 187.262 47.8754L187.466 47.7224C187.606 47.906 187.745 48.0896 187.881 48.2766L187.674 48.4262ZM186.837 47.3382C186.698 47.1614 186.552 46.9982 186.402 46.8078L186.596 46.6446C186.745 46.8214 186.895 46.9846 187.038 47.1784L186.837 47.3382ZM185.953 46.291C185.804 46.121 185.647 45.951 185.491 45.781L185.678 45.6076C185.838 45.7776 185.991 45.9476 186.144 46.121L185.953 46.291ZM185.018 45.271C184.862 45.1078 184.699 44.931 184.535 44.7814L184.716 44.6012L185.202 45.0908L185.018 45.271ZM184.042 44.3054C183.876 44.1524 183.702 43.996 183.536 43.843L183.706 43.6526L184.216 44.1218L184.042 44.3054ZM183.022 43.3874L182.495 42.9454L182.659 42.7482L183.189 43.1936L183.022 43.3874ZM181.962 42.5136C181.785 42.3742 181.622 42.2314 181.421 42.092L181.574 41.8914C181.758 42.0308 181.941 42.1702 182.121 42.313L181.962 42.5136ZM180.87 41.684C180.687 41.5514 180.5 41.4154 180.309 41.2862L180.455 41.0754L181.04 41.48L180.87 41.684ZM179.741 40.8986C179.553 40.7694 179.363 40.6436 179.17 40.5212L179.306 40.307L179.884 40.6844L179.741 40.8986ZM178.589 40.154L178.001 39.814L178.13 39.5964L178.721 39.9364L178.589 40.154ZM177.406 39.4536L176.807 39.1136L176.93 38.8926C177.134 39.0014 177.334 39.1147 177.531 39.2326L177.406 39.4536ZM176.202 38.794C176.001 38.6886 175.797 38.5832 175.59 38.4812L175.706 38.2534C175.913 38.3554 176.117 38.4608 176.321 38.5696L176.202 38.794ZM174.975 38.1752L174.352 37.8794L174.461 37.6482L175.087 37.944L174.975 38.1752ZM173.727 37.5938L173.098 37.3184L173.2 37.0838C173.411 37.1756 173.625 37.2674 173.832 37.3626L173.727 37.5938ZM172.476 37.06L171.836 36.8016L171.932 36.5636L172.571 36.8254L172.476 37.06ZM171.197 36.5534L170.551 36.312L170.64 36.074L171.286 36.3154L171.197 36.5534ZM169.905 36.0808L169.256 35.8598L169.334 35.6184C169.555 35.6898 169.773 35.7646 169.99 35.8428L169.905 36.0808ZM168.6 35.6456C168.385 35.5742 168.164 35.5062 167.943 35.4382L168.022 35.1934L168.678 35.4008L168.6 35.6456Z" fill="#C7C7C7"/>
<path id="Vector_26" d="M167.274 35.2409L166.947 35.1457L167.015 34.9009L167.345 34.9961L167.274 35.2409Z" fill="#C7C7C7"/>
<path id="Vector_27" d="M228.464 46.1482L228.409 45.8966L228.749 45.8286L228.797 46.0802L228.464 46.1482Z" fill="#C7C7C7"/>
<path id="Vector_28" d="M187.082 92.5376L186.83 92.4968C186.864 92.2758 186.901 92.0514 186.935 91.8168L187.187 91.8576C187.16 92.0922 187.116 92.3166 187.082 92.5376ZM187.303 91.2082L187.051 91.164C187.092 90.943 187.129 90.7186 187.173 90.484L187.422 90.5316C187.381 90.7798 187.34 90.9872 187.303 91.2082ZM187.551 89.8822L187.299 89.8346L187.432 89.1546L187.683 89.2056L187.551 89.8822ZM187.823 88.563L187.575 88.5086C187.622 88.2876 187.67 88.0666 187.721 87.849L187.969 87.9068C187.921 88.1244 187.87 88.342 187.84 88.563H187.823ZM188.122 87.2506L187.874 87.1894L188.037 86.5332L188.282 86.5944C188.227 86.812 188.18 87.0398 188.122 87.2506ZM188.462 85.9416L188.217 85.877L188.391 85.2242L188.635 85.2922L188.462 85.9416ZM188.819 84.6428L188.574 84.5714C188.635 84.3538 188.697 84.1396 188.761 83.922L189.006 83.9968C188.928 84.211 188.86 84.4252 188.805 84.6598L188.819 84.6428ZM189.2 83.3508L188.958 83.276C189.023 83.0584 189.091 82.8442 189.159 82.63L189.404 82.7082C189.319 82.9224 189.254 83.1366 189.2 83.3508ZM189.611 82.069L189.37 81.9874C189.441 81.7732 189.513 81.559 189.587 81.3448L189.829 81.4298C189.74 81.6406 189.669 81.8548 189.598 82.069H189.611ZM190.05 80.794L189.808 80.709L190.043 80.0732L190.281 80.1616C190.189 80.369 190.111 80.5798 190.036 80.794H190.05ZM190.519 79.5292L190.281 79.4408L190.526 78.8084L190.764 78.9036L190.519 79.5292ZM191.015 78.278L190.781 78.1828C190.866 77.972 190.954 77.7646 191.043 77.5572L191.277 77.6558L191.015 78.278ZM191.542 77.0404L191.311 76.935C191.4 76.7276 191.495 76.5236 191.587 76.3196L191.818 76.425L191.542 77.0404ZM192.1 75.813L191.869 75.7042C191.964 75.5002 192.063 75.2962 192.161 75.0922L192.389 75.2044C192.277 75.405 192.182 75.609 192.086 75.8198L192.1 75.813ZM192.685 74.5992L192.457 74.487L192.763 73.8818L192.991 73.9974L192.685 74.5992ZM193.3 73.4024L193.076 73.28L193.395 72.685L193.62 72.8074C193.501 73.0046 193.392 73.2018 193.28 73.4024H193.3ZM193.946 72.2192L193.725 72.0934C193.834 71.8962 193.946 71.699 194.065 71.5052L194.286 71.6344L193.946 72.2192ZM194.626 71.053L194.405 70.9204C194.521 70.7266 194.636 70.5328 194.745 70.3424L194.963 70.475C194.837 70.6654 194.721 70.8592 194.609 71.0598L194.626 71.053ZM195.32 69.9038L195.106 69.7678C195.225 69.5774 195.347 69.387 195.469 69.1966L195.684 69.336C195.551 69.523 195.432 69.6998 195.32 69.9038ZM196.054 68.775L195.84 68.6322C195.966 68.4418 196.095 68.2548 196.221 68.0712L196.432 68.214L196.054 68.775ZM196.816 67.6632L196.605 67.5136L196.999 66.9628L197.207 67.1124C197.064 67.296 196.935 67.4762 196.806 67.6598L196.816 67.6632ZM197.605 66.5718L197.401 66.4188C197.537 66.2352 197.669 66.055 197.809 65.8782L198.009 66.0312C197.863 66.2114 197.727 66.3882 197.594 66.5718H197.605ZM198.421 65.5008L198.22 65.341L198.642 64.814L198.839 64.9738L198.421 65.5008ZM199.267 64.4502L199.07 64.287C199.213 64.1136 199.359 63.947 199.505 63.7702L199.699 63.9334C199.543 64.1034 199.4 64.2768 199.257 64.4502H199.267ZM200.138 63.4302L199.944 63.2636C200.093 63.0902 200.243 62.9236 200.393 62.7536L200.583 62.9236C200.42 63.0834 200.277 63.2398 200.127 63.4234L200.138 63.4302ZM201.035 62.4102L200.848 62.2402C201.001 62.0702 201.154 61.9002 201.307 61.7438L201.494 61.9172L201.035 62.4102ZM201.957 61.4276L201.773 61.2508C201.929 61.0876 202.089 60.9278 202.246 60.768L202.429 60.9482L201.957 61.4276ZM202.905 60.4722L202.725 60.2886C202.888 60.1322 203.065 59.9724 203.211 59.8194L203.388 60.003C203.215 60.1798 203.055 60.3192 202.895 60.479L202.905 60.4722ZM203.874 59.5372L203.701 59.3502L204.197 58.8912L204.371 59.0816L203.874 59.5372ZM204.87 58.6294L204.7 58.439L205.207 57.9902L205.377 58.184L204.87 58.6294ZM205.89 57.7454L205.727 57.5516C205.901 57.402 206.067 57.2592 206.244 57.1164L206.407 57.3136L205.89 57.7454ZM206.931 56.8852L206.771 56.688C206.944 56.5452 207.111 56.4058 207.298 56.2664L207.458 56.467L206.931 56.8852ZM207.988 56.0522L207.835 55.8516L208.372 55.4436L208.525 55.6476L207.988 56.0522ZM209.069 55.2464L208.92 55.0424L209.467 54.6446L209.617 54.852L209.069 55.2464ZM210.168 54.4678L210.021 54.257C210.208 54.1278 210.395 53.9986 210.582 53.8762L210.725 54.087C210.525 54.2162 210.338 54.3454 210.154 54.4746L210.168 54.4678ZM211.286 53.713L211.143 53.4988L211.711 53.1316L211.851 53.3458C211.64 53.4716 211.46 53.594 211.273 53.7198L211.286 53.713ZM212.418 52.9854L212.286 52.7678L212.86 52.4278L212.993 52.6454L212.418 52.9854ZM213.571 52.285L213.442 52.064L214.027 51.724L214.152 51.945L213.571 52.285ZM214.741 51.605L214.615 51.384L215.206 51.044L215.329 51.2684L214.741 51.605ZM215.924 50.959L215.801 50.7346L216.403 50.4184L216.519 50.6462L215.924 50.959ZM217.121 50.3402L217.005 50.1124L217.614 49.8132L217.726 50.041L217.121 50.3402ZM218.331 49.752L218.222 49.5208L218.838 49.2352L218.943 49.4664L218.331 49.752ZM219.558 49.1876L219.453 48.9564L220.075 48.6844L220.177 48.919C219.96 49.0176 219.752 49.1094 219.545 49.2012L219.558 49.1876ZM220.796 48.6538L220.697 48.4192L221.326 48.1608L221.422 48.3988L220.796 48.6538ZM222.047 48.1506L221.955 47.9126L222.588 47.6712L222.676 47.9092L222.047 48.1506ZM223.309 47.678L223.224 47.4366L223.863 47.2088L223.948 47.4502C223.727 47.5352 223.513 47.5998 223.295 47.6916L223.309 47.678ZM224.56 47.2598L224.482 47.0184L225.124 46.811L225.202 47.0524L224.56 47.2598ZM225.848 46.8518L225.774 46.6104C226.001 46.539 226.219 46.4778 226.426 46.4166L226.494 46.6614L225.848 46.8518ZM227.144 46.4812L227.079 46.2364L227.739 46.0664L227.8 46.3146L227.144 46.4812Z" fill="#C7C7C7"/>
<path id="Vector_29" d="M186.74 93.1772L186.691 93.5137L186.944 93.5502L186.993 93.2137L186.74 93.1772Z" fill="#C7C7C7"/>
<path id="Vector_30" d="M186.976 93.3742L186.731 93.3096C186.789 93.0886 186.847 92.871 186.901 92.6534L187.146 92.7146C187.095 92.9322 187.037 93.16 186.976 93.3742ZM187.299 92.0482L187.051 91.9938C187.099 91.7728 187.143 91.5518 187.187 91.3308L187.435 91.3784C187.394 91.6028 187.35 91.8238 187.299 92.0482ZM187.558 90.6882L187.303 90.6474C187.34 90.4264 187.374 90.202 187.405 89.9674L187.656 90.0014C187.626 90.2564 187.592 90.4808 187.558 90.7052V90.6882ZM187.741 89.3282L187.486 89.301C187.513 89.0766 187.534 88.8522 187.551 88.621L187.806 88.6414C187.789 88.8998 187.765 89.1276 187.741 89.352V89.3282ZM187.853 87.9682H187.602C187.602 87.7404 187.622 87.516 187.629 87.2882H187.884C187.877 87.5285 187.862 87.7631 187.84 87.992L187.853 87.9682ZM187.898 86.6082H187.643V86.4382C187.643 86.2682 187.643 86.0982 187.643 85.9316H187.898C187.898 86.1016 187.898 86.2716 187.898 86.4416V86.6082ZM187.619 85.2482C187.619 85.0238 187.595 84.796 187.581 84.5682L187.833 84.5512C187.849 84.7779 187.862 85.0045 187.874 85.2312L187.619 85.2482ZM187.524 83.8882C187.503 83.6615 187.479 83.4349 187.452 83.2082L187.707 83.1776C187.734 83.4054 187.758 83.6298 187.779 83.8576L187.524 83.8882ZM187.367 82.5282C187.333 82.3038 187.299 82.0794 187.262 81.8482L187.513 81.8074C187.551 82.0284 187.585 82.2562 187.619 82.4874L187.367 82.5282ZM187.16 81.26C187.116 81.039 187.071 80.818 187.024 80.597L187.272 80.5426C187.32 80.7636 187.367 80.988 187.408 81.2226L187.16 81.26ZM186.874 79.9374L186.711 79.2812L186.956 79.2166C187.014 79.4342 187.068 79.6552 187.122 79.8762L186.874 79.9374ZM186.534 78.6284C186.473 78.4074 186.408 78.1932 186.34 77.9756L186.585 77.9008C186.653 78.1184 186.714 78.336 186.779 78.557L186.534 78.6284ZM186.133 77.333C186.065 77.1154 185.99 76.9012 185.915 76.6904L186.157 76.6054C186.232 76.8196 186.306 77.0338 186.378 77.2514L186.133 77.333ZM185.684 76.0546C185.603 75.8404 185.521 75.633 185.436 75.4222L185.674 75.327C185.759 75.5378 185.841 75.752 185.922 75.9662L185.684 76.0546ZM185.181 74.7966C185.093 74.5858 185.001 74.3784 184.912 74.1744L185.144 74.069C185.235 74.2764 185.327 74.4838 185.416 74.698L185.181 74.7966ZM184.63 73.5556C184.535 73.3516 184.436 73.1476 184.338 72.9436L184.569 72.8314C184.668 73.0354 184.766 73.2394 184.861 73.4502L184.63 73.5556ZM184.035 72.3384C183.933 72.1344 183.828 71.9338 183.722 71.7366L183.947 71.6176C184.052 71.8148 184.158 72.0188 184.263 72.2228L184.035 72.3384ZM183.399 71.1416L183.059 70.55L183.277 70.4242C183.393 70.6169 183.506 70.8141 183.617 71.0158L183.399 71.1416ZM182.719 69.9652C182.604 69.768 182.485 69.5742 182.379 69.3872L182.597 69.2512C182.716 69.4416 182.835 69.6354 182.937 69.836L182.719 69.9652ZM182.005 68.8126C181.88 68.6188 181.757 68.4318 181.631 68.2448L181.846 68.1054L182.22 68.6732L182.005 68.8126ZM181.23 67.66C181.101 67.4696 180.968 67.286 180.843 67.1058L181.047 66.9562C181.179 67.1364 181.308 67.3234 181.441 67.5138L181.23 67.66ZM180.441 66.555L180.033 66.0144L180.237 65.858L180.645 66.4054L180.441 66.555ZM179.615 65.4772L179.19 64.9502L179.387 64.787C179.527 64.9536 179.67 65.127 179.816 65.3208L179.615 65.4772ZM178.755 64.4266L178.32 63.92L178.51 63.7534C178.65 63.9064 178.799 64.0934 178.959 64.2702L178.755 64.4266ZM177.854 63.4066C177.558 63.087 177.385 62.9204 177.385 62.917L177.562 62.7368C177.562 62.7368 177.738 62.9068 178.041 63.2332L177.854 63.4066Z" fill="#C7C7C7"/>
<path id="Vector_31" d="M169.868 30.2089C169.725 28.7673 168.729 27.3291 166.981 27.3291C165.233 27.3291 164.241 28.7673 164.098 30.2089C163.877 32.4359 165.38 34.4555 166.981 36.2949C168.586 34.4555 170.089 32.4359 169.868 30.2089ZM166.981 31.8103C166.668 31.8103 166.362 31.7175 166.102 31.5436C165.842 31.3697 165.64 31.1226 165.52 30.8335C165.401 30.5445 165.369 30.2264 165.431 29.9196C165.492 29.6128 165.643 29.3311 165.864 29.1102C166.086 28.8892 166.368 28.7389 166.675 28.6783C166.982 28.6176 167.3 28.6494 167.588 28.7696C167.877 28.8898 168.124 29.093 168.297 29.3534C168.471 29.6139 168.563 29.9199 168.562 30.2327C168.561 30.6514 168.394 31.0527 168.098 31.3484C167.801 31.6442 167.4 31.8103 166.981 31.8103Z" fill="#A6A6A6"/>
<path id="Vector_32" d="M195.503 63.9198C195.361 62.4782 194.364 61.04 192.617 61.04C190.869 61.04 189.876 62.4782 189.734 63.9198C189.513 66.1468 191.015 68.1664 192.617 70.0058C194.222 68.1528 195.724 66.1332 195.503 63.9198ZM192.617 65.5212C192.305 65.5212 192 65.429 191.741 65.2561C191.481 65.0833 191.278 64.8376 191.158 64.5499C191.038 64.2622 191.006 63.9453 191.065 63.6392C191.124 63.3331 191.273 63.0514 191.492 62.8295C191.711 62.6076 191.991 62.4554 192.296 62.3921C192.601 62.3289 192.919 62.3573 193.208 62.4738C193.497 62.5904 193.745 62.7898 193.922 63.0471C194.098 63.3044 194.194 63.608 194.198 63.9198C194.199 64.128 194.158 64.3343 194.079 64.5269C194 64.7195 193.884 64.8946 193.737 65.0422C193.59 65.1897 193.416 65.3068 193.223 65.3866C193.031 65.4665 192.825 65.5076 192.617 65.5076V65.5212Z" fill="#249C6B"/>
<path id="Vector_33" d="M179.871 57.6435C179.728 56.2019 178.732 54.7637 176.984 54.7637C175.236 54.7637 174.244 56.2019 174.101 57.6435C173.88 59.8705 175.383 61.8901 176.984 63.7295C178.589 61.8799 180.092 59.8705 179.871 57.6435ZM176.984 59.2449C176.671 59.2449 176.366 59.1521 176.106 58.9784C175.846 58.8047 175.643 58.5578 175.523 58.2689C175.404 57.98 175.372 57.6621 175.433 57.3554C175.494 57.0487 175.645 56.767 175.866 56.5459C176.087 56.3248 176.369 56.1743 176.676 56.1132C176.982 56.0522 177.3 56.0836 177.589 56.2032C177.878 56.3229 178.125 56.5255 178.299 56.7855C178.472 57.0455 178.565 57.3512 178.565 57.6639C178.565 58.0832 178.398 58.4853 178.102 58.7818C177.805 59.0783 177.403 59.2449 176.984 59.2449Z" fill="#A6A6A6"/>
<path id="Vector_34" d="M231.653 41.6264C231.51 40.1814 230.514 38.7466 228.766 38.7466C227.019 38.7466 226.026 40.1814 225.883 41.6264C225.662 43.8534 227.165 45.873 228.766 47.7124C230.371 45.873 231.874 43.8602 231.653 41.6264ZM228.766 43.2278C228.454 43.2278 228.148 43.1351 227.888 42.9613C227.628 42.7876 227.425 42.5407 227.306 42.2518C227.186 41.9629 227.155 41.645 227.216 41.3383C227.277 41.0317 227.427 40.75 227.648 40.5288C227.869 40.3077 228.151 40.1572 228.458 40.0962C228.764 40.0352 229.082 40.0665 229.371 40.1861C229.66 40.3058 229.907 40.5084 230.081 40.7684C230.254 41.0284 230.347 41.3341 230.347 41.6468C230.347 42.0661 230.181 42.4682 229.884 42.7647C229.588 43.0612 229.186 43.2278 228.766 43.2278Z" fill="#A6A6A6"/>
<path id="Vector_35" d="M189.69 89.7768C189.547 88.3318 188.551 86.897 186.803 86.897C185.056 86.897 184.063 88.3318 183.92 89.7768C183.699 92.0038 185.202 94.02 186.803 95.8628C188.408 94.02 189.911 92.0038 189.69 89.7768ZM186.82 91.3782C186.508 91.3775 186.202 91.2842 185.943 91.1101C185.683 90.9359 185.481 90.6888 185.362 90.3998C185.243 90.1109 185.212 89.7931 185.274 89.4867C185.335 89.1802 185.486 88.8988 185.707 88.678C185.928 88.4573 186.21 88.307 186.517 88.2463C186.823 88.1856 187.141 88.2171 187.43 88.3368C187.718 88.4566 187.965 88.6593 188.139 88.9192C188.312 89.1791 188.405 89.4846 188.405 89.7972C188.405 90.0051 188.364 90.2109 188.284 90.403C188.204 90.595 188.088 90.7695 187.94 90.9163C187.793 91.0632 187.619 91.1795 187.426 91.2588C187.234 91.3381 187.028 91.3786 186.82 91.3782Z" fill="#249C6B"/>
</g>
<g id="freepik--Shadow--inject-5">
<path id="Vector_36" d="M132.55 153.326C194.118 153.326 244.029 150.603 244.029 147.244C244.029 143.884 194.118 141.161 132.55 141.161C70.9813 141.161 21.0703 143.884 21.0703 147.244C21.0703 150.603 70.9813 153.326 132.55 153.326Z" fill="#EBEBEB"/>
</g>
<g id="freepik--Floor--inject-5">
<path id="Vector_37" d="M10.4961 135.867L39.6885 135.786L68.8775 135.755L127.262 135.701L185.647 135.755L214.836 135.786L244.028 135.867L214.836 135.952L185.647 135.983L127.262 136.037L68.8775 135.979L39.6885 135.952L10.4961 135.867Z" fill="#263238"/>
</g>
<g id="freepik--Plants--inject-5">
<path id="Vector_38" d="M50.5409 135.864C50.5409 135.864 49.9153 132.94 48.6641 132.488C47.4129 132.036 46.6513 133.351 46.6513 133.351C46.6513 133.351 46.3555 130.557 44.5807 129.72C42.8059 128.884 41.4765 130.597 41.4765 130.597C41.4765 130.597 40.1165 127.055 37.6821 127.055C35.2477 127.055 34.0237 132.24 34.0237 132.24C34.0237 132.24 32.5889 130.693 31.1167 131.56C29.6445 132.427 29.6445 135.857 29.6445 135.857L50.5409 135.864Z" fill="#455A64"/>
<path id="Vector_39" d="M96.9243 135.864H74.9297C74.9297 135.864 75.6539 132.764 77.1125 132.543C78.5711 132.322 79.2511 133.763 79.2511 133.763C79.2511 133.763 79.1831 129.438 81.9065 128.701C84.6299 127.963 86.9147 131.784 86.9147 131.784C86.9147 131.784 88.6147 129.605 90.9505 129.744C93.2863 129.884 93.8677 133.484 93.8677 133.484C93.8677 133.484 95.9893 132.233 96.9243 135.864Z" fill="#37474F"/>
<path id="Vector_40" d="M32.6469 135.864H21.0869C21.0869 135.864 21.1141 134.14 22.2497 133.681C22.5586 133.547 22.9027 133.517 23.2302 133.596C23.5576 133.674 23.8507 133.857 24.0653 134.117C24.0653 134.117 24.5311 130.948 26.6493 130.948C28.7675 130.948 29.7875 133.668 29.7875 133.668C29.9661 133.405 30.2179 133.201 30.5116 133.08C30.8054 132.959 31.1282 132.927 31.4399 132.988C32.5993 133.165 32.6469 135.864 32.6469 135.864Z" fill="#37474F"/>
</g>
<g id="freepik--Truck--inject-5">
<path id="Vector_41" d="M126.062 64.8105L128.907 127.983H180.7L175.338 102.34L158.079 96.8997C157.632 96.7421 157.224 96.488 156.886 96.1555C156.548 95.8229 156.286 95.42 156.121 94.9753L145.802 68.4757L126.062 64.8105Z" fill="#249C6B"/>
<path id="Vector_42" d="M131.767 71.4609L133.059 94.2511L151.748 96.0021L143.694 72.2939L131.767 71.4609Z" fill="#455A64"/>
<g id="Group" opacity="0.3">
<path id="Vector_43" d="M132.475 83.9458L132.77 89.1444L138.374 94.7476L143.783 95.2576L132.475 83.9458Z" fill="white"/>
<path id="Vector_44" d="M135.589 71.7295L147.574 83.7145L146.316 79.9983L138.227 71.9097L135.589 71.7295Z" fill="white"/>
<path id="Vector_45" d="M131.92 74.1401L131.954 74.7691L151.011 93.8261L150.702 92.9217L131.92 74.1401Z" fill="white"/>
<path id="Vector_46" d="M132.879 91.062L132.913 91.6944L135.718 94.4994L136.378 94.5606L132.879 91.062Z" fill="white"/>
</g>
<path id="Vector_47" d="M131.767 71.4609L143.694 72.2939L151.748 96.0021L150.497 95.8831L142.885 73.4703L131.824 72.4605L131.767 71.4609Z" fill="#263238"/>
<path id="Vector_48" d="M157.461 97.4644H157.121V127.021H157.461V97.4644Z" fill="#263238"/>
<path id="Vector_49" d="M177.616 102.408L173.403 101.728L175.858 110.401L178.027 110.174C178.259 110.15 178.473 110.036 178.622 109.857C178.771 109.678 178.844 109.447 178.826 109.215L178.367 103.21C178.348 103.013 178.263 102.827 178.128 102.682C177.992 102.537 177.812 102.441 177.616 102.408Z" fill="white"/>
<path id="Vector_50" d="M154.067 89.8756C153.047 90.7358 153.969 98.4742 154.686 98.3416C155.404 98.209 156.944 97.9166 157.563 97.427C158.181 96.9374 161.683 90.6746 160.833 89.3758C159.983 88.077 154.86 89.2126 154.067 89.8756Z" fill="#249C6B"/>
<path id="Vector_51" opacity="0.1" d="M154.067 89.8756C153.047 90.7358 153.969 98.4742 154.686 98.3416C155.404 98.209 156.944 97.9166 157.563 97.427C158.181 96.9374 161.683 90.6746 160.833 89.3758C159.983 88.077 154.86 89.2126 154.067 89.8756Z" fill="black"/>
<path id="Vector_52" opacity="0.1" d="M140.515 100.905H134.1V99.103L140.515 99.4532V100.905Z" fill="black"/>
<path id="Vector_53" d="M127.476 127.983H21.0117L26.6455 52.0641L123.641 46.9165L127.476 127.983Z" fill="#249C6B"/>
<path id="Vector_54" opacity="0.1" d="M127.476 127.979H21.0117L21.3143 123.906L126.973 117.272L127.476 127.979Z" fill="black"/>
<path id="Vector_55" d="M20.4746 131.396H183.073V126.558H20.4746V131.396Z" fill="#EBEBEB"/>
<path id="Vector_56" d="M186.456 124.232L170.238 125.229V132.131H187.667L186.456 124.232Z" fill="#DBDBDB"/>
<path id="Vector_57" d="M27.4754 132.131V125.375L17.2414 124.317L15.9834 132.131H27.4754Z" fill="#DBDBDB"/>
<path id="Vector_58" d="M39.9803 133.103L36.6143 132.61C37.2569 128.234 41.0921 119.955 51.0235 119.955C60.9549 119.955 64.7153 128.248 65.3035 132.63L61.9341 133.086L63.6341 132.858L61.9341 133.089C61.8797 132.691 60.4517 123.355 51.0201 123.355C41.5171 123.355 40.0381 132.705 39.9803 133.103Z" fill="#C7C7C7"/>
<path id="Vector_59" d="M50.9591 122.019C35.1049 122.019 35.0811 146.659 50.9591 146.659C66.8371 146.659 66.8405 122.019 50.9591 122.019Z" fill="#263238"/>
<path id="Vector_60" d="M50.9595 128.748C43.7651 128.748 43.7515 139.93 50.9595 139.93C58.1675 139.93 58.1675 128.748 50.9595 128.748Z" fill="#C7C7C7"/>
<path id="Vector_61" d="M134.95 133.11L131.587 132.6C132.226 128.224 136.061 119.945 145.996 119.945C155.931 119.945 159.685 128.238 160.276 132.621L156.9 133.086L158.6 132.859L156.9 133.09C156.842 132.692 155.414 123.356 145.986 123.356C136.558 123.356 135.011 132.712 134.95 133.11Z" fill="#C7C7C7"/>
<path id="Vector_62" d="M145.989 122.019C130.135 122.019 130.111 146.659 145.989 146.659C161.867 146.659 161.871 122.019 145.989 122.019Z" fill="#263238"/>
<path id="Vector_63" d="M145.989 128.748C138.794 128.748 138.781 139.93 145.989 139.93C153.197 139.93 153.197 128.748 145.989 128.748Z" fill="#C7C7C7"/>
</g>
<g id="freepik--Boxes--inject-5">
<path id="Vector_64" d="M213.982 128.605H196.054V148.461H213.982V128.605Z" fill="#249C6B"/>
<path id="Vector_65" opacity="0.1" d="M213.982 128.605H196.054V148.461H213.982V128.605Z" fill="black"/>
<path id="Vector_66" d="M186.796 148.461H196.054V128.605H186.796V148.461Z" fill="#249C6B"/>
<path id="Vector_67" opacity="0.32" d="M186.796 148.461H196.054V128.605H186.796V148.461Z" fill="black"/>
<path id="Vector_68" d="M203.497 132.896H203.878H204.163L204.327 132.566L204.554 132.896L204.864 132.216L205.156 132.896H205.996H206.377L206.516 132.444L206.649 132.896H206.897V128.605H203.497V132.896Z" fill="white"/>
<path id="Vector_69" d="M187.436 147.094C188.116 145.68 188.796 144.263 189.476 142.844L191.485 138.574L193.464 134.3C194.123 132.87 194.774 131.433 195.415 129.989C194.735 131.403 194.055 132.82 193.375 134.239L191.366 138.509L189.387 142.8C188.732 144.221 188.082 145.653 187.436 147.094Z" fill="#249C6B"/>
<path id="Vector_70" d="M187.436 129.972C188.079 131.413 188.73 132.85 189.387 134.283L191.369 138.574L193.379 142.844C194.059 144.265 194.739 145.682 195.419 147.094C194.775 145.652 194.124 144.215 193.467 142.783L191.485 138.492L189.476 134.222C188.8 132.8 188.12 131.384 187.436 129.972Z" fill="#249C6B"/>
<path id="Vector_71" d="M222.282 108.749H204.354V128.605H222.282V108.749Z" fill="#249C6B"/>
<path id="Vector_72" opacity="0.1" d="M222.282 108.749H204.354V128.605H222.282V108.749Z" fill="black"/>
<path id="Vector_73" d="M195.098 128.608H204.356V108.752H195.098V128.608Z" fill="#249C6B"/>
<path id="Vector_74" opacity="0.32" d="M195.098 128.608H204.356V108.752H195.098V128.608Z" fill="black"/>
<path id="Vector_75" d="M211.8 113.04H212.177H212.463L212.626 112.71L212.854 113.04L213.163 112.36L213.456 113.04H214.295H214.68L214.819 112.588L214.948 113.04H215.196V108.749H211.8V113.04Z" fill="white"/>
<path id="Vector_76" d="M195.734 127.238C196.414 125.826 197.094 124.409 197.774 122.988L199.784 118.718L201.78 114.43C202.439 112.996 203.091 111.558 203.735 110.119C203.055 111.529 202.375 112.945 201.695 114.366L199.685 118.636L197.7 122.927C197.033 124.359 196.378 125.797 195.734 127.238Z" fill="#249C6B"/>
<path id="Vector_77" d="M195.734 110.119C196.38 111.561 197.031 112.998 197.686 114.43L199.668 118.718L201.678 122.988C202.358 124.409 203.038 125.826 203.718 127.238C203.072 125.797 202.42 124.359 201.763 122.927L199.78 118.636L197.771 114.366C197.102 112.945 196.423 111.529 195.734 110.119Z" fill="#249C6B"/>
<path id="Vector_78" d="M237.017 128.605H219.089V148.461H237.017V128.605Z" fill="#249C6B"/>
<path id="Vector_79" opacity="0.1" d="M237.017 128.605H219.089V148.461H237.017V128.605Z" fill="black"/>
<path id="Vector_80" d="M209.831 148.461H219.089V128.605H209.831V148.461Z" fill="#249C6B"/>
<path id="Vector_81" opacity="0.32" d="M209.831 148.461H219.089V128.605H209.831V148.461Z" fill="black"/>
<path id="Vector_82" d="M226.531 132.896H226.912H227.198L227.361 132.566L227.589 132.896L227.898 132.216L228.19 132.896H229.03H229.414L229.55 132.444L229.683 132.896H229.931V128.605H226.531V132.896Z" fill="white"/>
<path id="Vector_83" d="M210.47 147.094C211.15 145.68 211.83 144.263 212.51 142.844L214.519 138.574L216.498 134.3C217.158 132.87 217.808 131.433 218.45 129.989C217.77 131.403 217.09 132.82 216.41 134.239L214.4 138.509L212.421 142.8C211.766 144.221 211.116 145.653 210.47 147.094Z" fill="#249C6B"/>
<path id="Vector_84" d="M210.47 129.972C211.113 131.413 211.764 132.85 212.421 134.283L214.404 138.574L216.399 142.844C217.079 144.265 217.759 145.682 218.439 147.094C217.796 145.652 217.145 144.215 216.488 142.783L214.506 138.492L212.496 134.222C211.83 132.8 211.154 131.384 210.47 129.972Z" fill="#249C6B"/>
</g>
<g id="freepik--Character--inject-5">
<path id="Vector_85" d="M167.012 148.696C167.664 148.903 186.225 148.665 186.925 148.206C187.194 148.036 187.316 145.33 187.371 142.056V141.954C187.371 141.274 187.391 140.594 187.395 139.88C187.395 139.781 187.395 139.686 187.395 139.587L186.494 129.958L174.077 130.084L175.301 139.604V139.982L175.376 141.957V142.161C175.376 142.161 168.31 145.428 167.593 146.017C166.876 146.605 166.362 148.488 167.012 148.696Z" fill="#AD6359"/>
<path id="Vector_86" d="M167.012 148.696C167.664 148.903 186.225 148.665 186.925 148.206C187.194 148.036 187.316 145.33 187.371 142.055V141.953C187.371 141.273 187.391 140.593 187.395 139.879C187.395 139.781 187.395 139.686 187.395 139.587L175.301 139.621V139.998L175.376 141.974V142.178C175.376 142.178 168.31 145.445 167.593 146.033C166.876 146.622 166.362 148.488 167.012 148.696Z" fill="#EBEBEB"/>
<path id="Vector_87" d="M167.012 148.692C167.352 148.801 172.387 148.791 177.317 148.692C178.306 148.675 179.292 148.652 180.234 148.624C183.746 148.529 186.653 148.383 186.922 148.21C187.191 148.036 187.31 145.408 187.364 142.195C187.364 142.151 187.364 142.103 187.364 142.059C187.364 142.015 187.364 141.988 187.364 141.954L175.403 141.977V142.181C175.403 142.181 168.341 145.449 167.624 146.034C166.906 146.618 166.359 148.485 167.012 148.692Z" fill="#249C6B"/>
<path id="Vector_88" d="M167.213 147.972C170.341 147.856 182.968 147.676 186.069 147.798C186.093 147.798 186.093 147.815 186.069 147.819C182.972 148.002 170.344 148.077 167.213 148.023C167.148 148.023 167.148 147.975 167.213 147.972Z" fill="#263238"/>
<path id="Vector_89" d="M174.063 142.025C175.291 141.78 176.783 141.95 177.752 142.814C177.786 142.848 177.752 142.899 177.698 142.889C176.517 142.524 175.301 142.287 174.07 142.181C174.06 142.182 174.049 142.18 174.04 142.177C174.03 142.173 174.021 142.168 174.014 142.161C174.006 142.154 174 142.146 173.996 142.136C173.991 142.127 173.989 142.117 173.988 142.107C173.988 142.096 173.989 142.086 173.993 142.076C173.997 142.067 174.002 142.058 174.009 142.05C174.016 142.043 174.024 142.037 174.033 142.032C174.043 142.028 174.053 142.025 174.063 142.025Z" fill="#263238"/>
<path id="Vector_90" d="M173.179 142.572C174.41 142.327 175.899 142.498 176.868 143.361C176.906 143.395 176.868 143.446 176.817 143.436C175.636 143.071 174.418 142.834 173.186 142.729C173.165 142.73 173.145 142.722 173.13 142.708C173.115 142.694 173.105 142.675 173.105 142.654C173.104 142.633 173.111 142.613 173.125 142.598C173.139 142.582 173.159 142.573 173.179 142.572Z" fill="#263238"/>
<path id="Vector_91" d="M172.299 143.12C173.526 142.875 175.036 143.045 175.988 143.908C176.025 143.942 175.988 143.993 175.937 143.98C174.754 143.618 173.537 143.382 172.305 143.276C172.285 143.277 172.264 143.27 172.249 143.256C172.234 143.242 172.225 143.222 172.224 143.201C172.223 143.181 172.23 143.16 172.244 143.145C172.258 143.13 172.278 143.121 172.299 143.12Z" fill="#263238"/>
<path id="Vector_92" d="M177.316 148.689C178.306 148.672 179.292 148.648 180.234 148.621C183.746 148.526 186.653 148.38 186.921 148.206C187.19 148.033 187.309 145.405 187.363 142.192C187.363 142.147 187.363 142.1 187.363 142.056C187.363 142.011 187.363 141.984 187.363 141.95C185.718 143.099 179.941 146.945 177.316 148.689Z" fill="#263238"/>
<path id="Vector_93" d="M174.529 142.015H187.898C187.898 142.015 185.205 110.796 185.311 110.248C185.443 109.551 186.235 106.393 187.283 102.262C187.623 100.97 187.963 99.586 188.337 98.1478C189.333 94.265 190.434 90.0218 191.397 86.326L193.96 76.5H182.618C182.618 76.5 181.299 80.6854 179.636 86.1322C176.916 94.9722 173.302 107.161 172.945 110.123C172.363 114.896 174.529 142.015 174.529 142.015Z" fill="#263238"/>
<path id="Vector_94" d="M175.172 139.74C177.212 139.699 176.627 139.682 178.67 139.662C179.666 139.662 186.235 139.597 187.17 139.75C187.176 139.75 187.181 139.753 187.185 139.756C187.188 139.76 187.191 139.765 187.191 139.771C187.191 139.776 187.188 139.781 187.185 139.785C187.181 139.789 187.176 139.791 187.17 139.791C186.239 139.948 179.67 139.89 178.67 139.88C176.63 139.859 177.215 139.842 175.172 139.801C175.134 139.795 175.134 139.74 175.172 139.74Z" fill="#37474F"/>
<path id="Vector_95" d="M182.845 108.341C183.284 106.41 183.94 104.516 184.508 102.619C185.668 98.7657 186.834 94.9124 188.006 91.059C188.591 89.1346 189.178 87.208 189.767 85.279C190.067 84.3066 190.367 83.3354 190.668 82.3652C190.968 81.4166 191.304 80.4748 191.573 79.5194C191.682 79.1284 191.743 79.3426 191.603 79.839C191.321 80.8352 191.042 81.8348 190.753 82.8276C190.171 84.8042 189.591 86.775 189.013 88.7402C187.857 92.657 186.688 96.5704 185.507 100.48C184.918 102.441 184.328 104.402 183.739 106.362C183.44 107.295 183.198 108.246 183.015 109.208C182.858 110.215 182.818 111.236 182.896 112.251C183.025 114.291 183.263 116.331 183.45 118.371C183.637 120.411 183.831 122.451 184.018 124.491C184.394 128.571 184.768 132.641 185.14 136.701C185.184 137.217 185.232 137.721 185.269 138.248C185.269 138.421 185.021 138.407 185.004 138.248C184.562 134.225 184.225 130.19 183.848 126.161C183.471 122.132 183.097 118.14 182.723 114.128C182.627 113.108 182.522 112.115 182.519 111.102C182.525 110.173 182.634 109.247 182.845 108.341Z" fill="#37474F"/>
<path id="Vector_96" d="M183.954 76.5C184.743 82.586 186.242 93.993 187.334 102.269C189.88 92.2352 193.998 76.5 193.998 76.5H183.954Z" fill="#37474F"/>
<path id="Vector_97" d="M181.172 148.873C181.821 149.087 200.382 148.913 201.086 148.458C201.354 148.288 201.487 145.581 201.555 142.307V142.205C201.555 141.525 201.582 140.845 201.586 140.131C201.586 140.036 201.586 139.937 201.586 139.842C201.63 135.116 201.29 130.213 201.29 130.213L189.155 130.292L189.495 139.832V140.209L189.563 142.185V142.385C189.563 142.385 182.488 145.629 181.767 146.214C181.046 146.799 180.523 148.665 181.172 148.873Z" fill="#AD6359"/>
<path id="Vector_98" d="M181.172 148.873C181.821 149.087 200.382 148.913 201.086 148.458C201.354 148.288 201.487 145.581 201.555 142.307V142.205C201.555 141.525 201.582 140.845 201.586 140.131C201.586 140.036 201.586 139.937 201.586 139.842H189.495V140.22L189.563 142.195V142.396C189.563 142.396 182.488 145.639 181.767 146.224C181.046 146.809 180.523 148.665 181.172 148.873Z" fill="#EBEBEB"/>
<path id="Vector_99" d="M181.173 148.872C181.822 149.087 200.383 148.913 201.087 148.458C201.355 148.288 201.488 145.581 201.556 142.307V142.205L189.581 142.185V142.385C189.581 142.385 182.506 145.629 181.785 146.214C181.064 146.798 180.523 148.665 181.173 148.872Z" fill="#249C6B"/>
<path id="Vector_100" d="M181.379 148.152C184.507 148.046 197.135 147.914 200.232 148.046C200.26 148.046 200.26 148.063 200.232 148.067C197.135 148.24 184.507 148.267 181.379 148.203C181.311 148.203 181.308 148.155 181.379 148.152Z" fill="#263238"/>
<path id="Vector_101" d="M188.248 142.229C189.475 141.988 190.968 142.165 191.933 143.032C191.967 143.066 191.933 143.117 191.879 143.106C190.7 142.736 189.485 142.494 188.255 142.386C188.244 142.386 188.234 142.384 188.224 142.381C188.215 142.377 188.206 142.372 188.198 142.365C188.191 142.358 188.185 142.35 188.18 142.34C188.176 142.331 188.173 142.321 188.173 142.311C188.172 142.3 188.174 142.29 188.178 142.281C188.181 142.271 188.186 142.262 188.193 142.254C188.2 142.247 188.209 142.241 188.218 142.236C188.227 142.232 188.237 142.23 188.248 142.229Z" fill="#263238"/>
<path id="Vector_102" d="M187.364 142.773C188.591 142.532 190.084 142.708 191.05 143.575C191.087 143.609 191.05 143.66 190.999 143.65C189.819 143.28 188.602 143.038 187.371 142.929C187.35 142.93 187.33 142.923 187.314 142.909C187.299 142.895 187.29 142.875 187.289 142.855C187.288 142.834 187.296 142.814 187.31 142.798C187.324 142.783 187.343 142.774 187.364 142.773Z" fill="#263238"/>
<path id="Vector_103" d="M186.48 143.317C187.707 143.076 189.2 143.252 190.166 144.119C190.203 144.153 190.166 144.204 190.115 144.194C188.932 143.826 187.714 143.586 186.48 143.48C186.458 143.48 186.438 143.472 186.422 143.456C186.407 143.441 186.398 143.42 186.398 143.399C186.398 143.377 186.407 143.356 186.422 143.341C186.438 143.326 186.458 143.317 186.48 143.317Z" fill="#263238"/>
<path id="Vector_104" d="M182.893 76.5C182.893 76.5 183.151 81.9196 184.392 86.2138C184.494 86.5538 184.599 86.9176 184.732 87.2542C185.869 87.712 186.961 88.2731 187.996 88.9304C187.996 88.9304 188.125 93.2926 188.258 98.1546C188.401 103.595 188.554 109.657 188.52 110.942C188.407 115.756 189.121 142.222 189.121 142.222L202.487 142.276C202.487 142.276 200.069 112.724 200.086 110.962C200.114 108.127 199.44 95.6046 198.92 86.4824C198.604 80.8554 198.342 76.517 198.342 76.517L182.893 76.5Z" fill="#263238"/>
<path id="Vector_105" d="M189.71 139.835C191.75 139.801 191.165 139.781 193.209 139.771C194.208 139.771 200.774 139.737 201.709 139.893C201.714 139.893 201.719 139.895 201.723 139.899C201.727 139.903 201.729 139.908 201.729 139.914C201.729 139.919 201.727 139.924 201.723 139.928C201.719 139.932 201.714 139.934 201.709 139.934C200.774 140.087 194.208 140.002 193.209 139.988C191.169 139.958 191.753 139.944 189.71 139.893C189.704 139.891 189.699 139.887 189.695 139.882C189.691 139.877 189.689 139.871 189.689 139.864C189.689 139.858 189.691 139.852 189.695 139.846C189.699 139.841 189.704 139.837 189.71 139.835Z" fill="#37474F"/>
<path id="Vector_106" d="M197.36 78.4314C197.604 85.8876 197.866 93.3438 198.199 100.797C198.533 108.249 198.985 115.757 199.61 123.209C199.95 127.378 200.29 133.243 200.739 137.401C200.739 137.428 200.698 137.438 200.695 137.401C199.723 130.006 199.182 120.86 198.703 113.417C198.223 105.975 197.9 98.522 197.645 91.0692C197.502 86.8532 197.394 82.6338 197.264 78.4178C197.254 78.3668 197.36 78.3702 197.36 78.4314Z" fill="#37474F"/>
<path id="Vector_107" d="M184.304 86.9245C185.634 87.477 186.913 88.146 188.125 88.9237C188.135 88.9295 188.142 88.9388 188.145 88.9496C188.148 88.9604 188.147 88.9719 188.142 88.9818C188.136 88.9918 188.128 88.9994 188.117 89.0031C188.106 89.0068 188.095 89.0064 188.085 89.0018C186.796 88.3762 185.48 87.7744 184.226 87.0774C184.205 87.0671 184.19 87.0491 184.183 87.0274C184.176 87.0057 184.178 86.9821 184.188 86.9619C184.198 86.9416 184.217 86.9262 184.238 86.9192C184.26 86.9122 184.283 86.9141 184.304 86.9245Z" fill="#37474F"/>
<path id="Vector_108" d="M183.532 80.5088C183.648 81.131 183.798 81.7464 183.934 82.3652C184.07 82.984 184.151 83.5348 184.304 84.1094C184.43 84.6632 184.712 85.1692 185.117 85.568C185.345 85.7822 185.596 85.9692 185.838 86.163L186.246 86.4724C186.246 86.3908 186.215 86.3058 186.198 86.2208C186.157 85.9862 186.116 85.7516 186.079 85.5136C185.991 84.99 185.906 84.4664 185.827 83.9428C185.668 82.9228 185.525 81.8688 185.307 80.8488C185.309 80.842 185.314 80.8361 185.32 80.8319C185.325 80.8277 185.332 80.8254 185.34 80.8254C185.347 80.8254 185.354 80.8277 185.359 80.8319C185.365 80.8361 185.37 80.842 185.372 80.8488C185.63 81.8688 185.912 82.8616 186.137 83.8816C186.246 84.3814 186.637 86.8532 186.657 87.0266C186.677 87.2 186.688 87.3904 186.694 87.5706C186.718 87.7546 186.718 87.9409 186.694 88.1248C186.691 88.1329 186.685 88.1398 186.678 88.1446C186.671 88.1494 186.662 88.152 186.654 88.152C186.645 88.152 186.636 88.1494 186.629 88.1446C186.622 88.1398 186.616 88.1329 186.613 88.1248C186.537 87.9536 186.484 87.7729 186.456 87.5876C186.409 87.4108 186.371 87.2476 186.337 87.0538C186.337 86.9892 186.317 86.9212 186.31 86.8566C186.065 86.707 185.838 86.5166 185.61 86.3466C185.382 86.1766 185.117 86.0066 184.886 85.8026C184.456 85.4413 184.146 84.9573 183.998 84.4154C183.848 83.8337 183.75 83.2397 183.706 82.6406C183.628 81.9368 183.57 81.233 183.471 80.5326C183.464 80.485 183.526 80.468 183.532 80.5088Z" fill="#37474F"/>
<path id="Vector_109" d="M187.959 60.6253C187.357 62.9679 184.964 68.3161 180.942 72.7293C179.388 74.4293 167.087 76.2347 165.788 75.8641C164.877 75.6023 162.211 67.7347 163.068 67.0751C164.696 65.8341 176.236 67.2757 176.692 66.9765C177.392 66.5175 181.958 62.8013 184.804 59.4115C186.895 56.9397 188.959 56.7255 187.959 60.6253Z" fill="#AD6359"/>
<path id="Vector_110" d="M185.331 67.6295L177.892 65.4433C177.892 65.4433 183.818 59.3233 186.052 57.9973C188.585 56.5217 188.772 58.1401 188.092 60.8431C187.412 63.5461 185.331 67.6295 185.331 67.6295Z" fill="#249C6B"/>
<path id="Vector_111" d="M179.34 64.43C179.608 64.464 181.937 65.11 182.44 65.2596C182.944 65.4092 185.007 66.011 185.5 66.2082C185.504 66.2098 185.507 66.2124 185.509 66.2157C185.512 66.219 185.513 66.2229 185.513 66.2269C185.513 66.2309 185.512 66.2347 185.509 66.2381C185.507 66.2414 185.504 66.244 185.5 66.2456C184.967 66.147 182.886 65.5486 182.369 65.4058C181.852 65.263 179.564 64.5728 179.309 64.464C179.292 64.4538 179.306 64.4266 179.34 64.43Z" fill="#263238"/>
<path id="Vector_112" d="M182.461 66.7831L185.331 67.6263C185.331 67.6263 187.425 63.5463 188.115 60.8263C188.618 58.8509 188.646 57.4535 187.636 57.4263L182.461 66.7831Z" fill="#263238"/>
<path id="Vector_113" d="M199.57 81.8821L180.278 81.7903C180.278 82.1711 184.464 60.2275 186.48 57.5993C186.912 57.0349 189.86 56.3243 191.189 57.5653C197.02 62.9917 199.57 82.1269 199.57 81.8821Z" fill="#249C6B"/>
<path id="Vector_114" opacity="0.1" d="M184.589 63.6074L187.054 63.7774L186.904 67.0312L185.211 67.48L184.242 66.7116L184.589 63.6074Z" fill="black"/>
<path id="Vector_115" d="M187.772 60.2344C188.69 60.4554 190.046 58.7146 190.709 57.4022C190.753 57.3138 190.587 56.3822 190.437 55.2534C190.352 54.5734 190.271 53.7982 190.247 53.091C190.247 52.9448 185.851 54.315 185.851 54.315C186.133 55.1902 186.307 56.0969 186.367 57.0146C186.371 57.1125 186.364 57.2106 186.347 57.307C186.347 57.307 186.347 57.3342 186.347 57.3546C186.272 57.9088 186.789 59.9964 187.772 60.2344Z" fill="#AD6359"/>
<path id="Vector_116" d="M186.347 57.3073C186.347 57.3073 186.347 57.3379 186.347 57.3549C186.499 57.367 186.651 57.367 186.803 57.3549C189.408 57.2121 189.989 53.9243 190.094 53.0913C189.309 53.2307 185.854 54.3085 185.854 54.3085C186.137 55.1838 186.312 56.0904 186.375 57.0081C186.375 57.1085 186.366 57.2087 186.347 57.3073Z" fill="#263238"/>
<path id="Vector_117" d="M191.07 47.7904C191.444 49.3918 190.312 53.8696 189.129 54.8046C187.429 56.1646 184.756 56.1238 183.641 54.0974C182.56 52.1322 184.137 46.325 185.446 45.4886C187.371 44.2578 190.516 45.4274 191.07 47.7904Z" fill="#AD6359"/>
<path id="Vector_118" d="M186.576 50.208C186.576 50.208 186.596 50.2284 186.593 50.242C186.508 50.5412 186.463 50.8982 186.711 51.0648C186.711 51.0648 186.711 51.0852 186.711 51.0818C186.382 50.9526 186.45 50.48 186.576 50.208Z" fill="#263238"/>
<path id="Vector_119" d="M186.925 49.9599C187.418 50.0449 187.214 51.0275 186.759 50.9493C186.303 50.8711 186.51 49.8919 186.925 49.9599Z" fill="#263238"/>
<path id="Vector_120" d="M184.936 49.895C184.936 49.895 184.909 49.895 184.906 49.9154C184.851 50.2248 184.739 50.5648 184.443 50.5954V50.6124C184.78 50.66 184.933 50.1942 184.936 49.895Z" fill="#263238"/>
<path id="Vector_121" d="M184.729 49.5209C184.246 49.3815 184.004 50.3573 184.453 50.4831C184.902 50.6089 185.12 49.6399 184.729 49.5209Z" fill="#263238"/>
<path id="Vector_122" d="M187.405 49.5924C187.288 49.5271 187.174 49.4556 187.065 49.3782C186.93 49.3199 186.818 49.2197 186.745 49.0926C186.731 49.048 186.732 49.0002 186.747 48.9561C186.763 48.912 186.792 48.8741 186.83 48.8478C186.916 48.8096 187.011 48.7945 187.104 48.8041C187.198 48.8136 187.288 48.8474 187.364 48.9022C187.535 48.9905 187.666 49.1398 187.731 49.3204C187.746 49.3639 187.747 49.4109 187.735 49.4551C187.722 49.4993 187.697 49.5388 187.661 49.5682C187.626 49.5976 187.583 49.6157 187.537 49.62C187.491 49.6243 187.445 49.6147 187.405 49.5924Z" fill="#263238"/>
<path id="Vector_123" d="M184.44 48.96C184.577 48.9617 184.715 48.9549 184.851 48.9396C184.998 48.9518 185.145 48.916 185.269 48.8376C185.303 48.8052 185.325 48.7626 185.332 48.7165C185.338 48.6703 185.33 48.6232 185.307 48.5826C185.25 48.5078 185.175 48.4494 185.088 48.4136C185.001 48.3777 184.907 48.3656 184.814 48.3786C184.623 48.378 184.438 48.4469 184.294 48.5724C184.263 48.6034 184.242 48.6425 184.233 48.6852C184.223 48.7279 184.227 48.7723 184.242 48.8131C184.258 48.8539 184.284 48.8895 184.319 48.9155C184.354 48.9416 184.396 48.957 184.44 48.96Z" fill="#263238"/>
<path id="Vector_124" d="M186.364 53.0946C186.276 53.149 186.184 53.234 186.072 53.2204C185.958 53.1943 185.852 53.1444 185.759 53.0742C185.739 53.0742 185.759 53.0742 185.759 53.0742C185.789 53.1413 185.837 53.1993 185.896 53.2423C185.956 53.2852 186.026 53.3117 186.099 53.319C186.164 53.3149 186.226 53.2922 186.279 53.2536C186.331 53.215 186.372 53.1622 186.395 53.1014C186.394 53.0981 186.393 53.0951 186.39 53.0927C186.388 53.0902 186.385 53.0886 186.382 53.0878C186.379 53.0871 186.375 53.0874 186.372 53.0886C186.369 53.0898 186.366 53.0919 186.364 53.0946Z" fill="#263238"/>
<path id="Vector_125" d="M186.231 52.1151C186.129 52.2203 186.007 52.303 185.871 52.358C185.735 52.4131 185.589 52.4392 185.443 52.4347C185.316 52.4329 185.19 52.4123 185.069 52.3735C185.044 52.3687 185.02 52.3619 184.997 52.3531L184.933 52.3259C184.917 52.32 184.904 52.3091 184.895 52.2949C184.887 52.2808 184.883 52.2642 184.885 52.2477C184.883 52.2375 184.883 52.2272 184.885 52.2171V52.1933C184.929 51.9553 185.024 51.6051 185.024 51.6051C184.929 51.6289 184.453 51.7343 184.484 51.6051C184.731 50.5525 185.083 49.5274 185.534 48.5451C185.538 48.5401 185.544 48.5365 185.55 48.5348C185.556 48.5331 185.563 48.5334 185.569 48.5356C185.575 48.5379 185.58 48.542 185.584 48.5474C185.587 48.5527 185.589 48.5591 185.589 48.5655C185.368 49.5379 184.977 50.4661 184.739 51.4385C184.909 51.3986 185.084 51.3826 185.259 51.3909C185.29 51.4079 185.062 52.0709 185.048 52.1763C185.236 52.2358 185.435 52.2566 185.631 52.2373C185.827 52.218 186.018 52.1591 186.191 52.0641C186.235 52.0709 186.255 52.0947 186.231 52.1151Z" fill="#263238"/>
<path id="Vector_126" d="M185.232 52.2852C185.326 52.4786 185.468 52.6448 185.644 52.768C185.745 52.8328 185.864 52.8649 185.984 52.8598C186.239 52.8428 186.293 52.6218 186.286 52.4212C186.283 52.3154 186.267 52.2105 186.239 52.1084C185.931 52.2733 185.578 52.3353 185.232 52.2852Z" fill="#263238"/>
<path id="Vector_127" d="M185.644 52.7679C185.745 52.8327 185.863 52.8647 185.984 52.8597C186.239 52.8427 186.293 52.6217 186.286 52.4211C186.156 52.398 186.021 52.4197 185.905 52.4827C185.788 52.5456 185.696 52.6461 185.644 52.7679Z" fill="#FF98B9"/>
<path id="Vector_128" d="M184.487 46.8489C184.736 46.5089 185.008 46.1451 185.256 46.1179C185.504 46.0907 185.541 46.6857 186.062 46.8319C186.765 47.0257 187.248 46.4409 188.261 46.5769C189.716 46.7707 190.104 48.1001 189.72 50.1435C189.38 51.9693 190.444 52.3637 190.444 52.3637C190.444 52.3637 191.93 48.4911 191.073 46.9237C190.216 45.3563 187.741 44.2445 185.739 45.1557C185.008 45.4923 184.487 46.8489 184.487 46.8489Z" fill="#263238"/>
<path id="Vector_129" d="M189.672 51.459C189.672 51.459 190.822 50.099 191.454 50.507C192.086 50.915 191.134 52.9856 190.329 53.2066C190.228 53.2415 190.121 53.2557 190.015 53.2484C189.908 53.2412 189.804 53.2126 189.709 53.1644C189.614 53.1162 189.529 53.0493 189.461 52.9678C189.392 52.8863 189.34 52.7917 189.309 52.6898L189.672 51.459Z" fill="#AD6359"/>
<path id="Vector_130" d="M184.78 45.9679C185.222 45.9475 187.568 46.4745 188.541 47.1375C189.513 47.8005 191.097 49.6909 191.179 49.7895C191.261 49.8881 192.502 46.0937 189.479 44.7711C186.208 43.3295 184.78 45.9679 184.78 45.9679Z" fill="#249C6B"/>
<path id="Vector_131" d="M191.039 49.5959C191.039 49.5959 189.489 46.4407 188.452 45.5873C187.415 44.7339 184.889 43.8873 183.148 44.2681C181.788 44.5775 184.532 46.7807 184.532 46.7807C184.586 46.6549 184.668 46.5434 184.773 46.4549C184.877 46.3664 185.001 46.3033 185.133 46.2707C185.977 46.1109 187.415 46.6379 188.193 47.0867C189.2 47.6511 191.039 49.5959 191.039 49.5959Z" fill="#249C6B"/>
<path id="Vector_132" opacity="0.2" d="M191.039 49.5959C191.039 49.5959 189.489 46.4407 188.452 45.5873C187.415 44.7339 184.889 43.8873 183.148 44.2681C181.788 44.5775 184.532 46.7807 184.532 46.7807C184.586 46.6549 184.668 46.5434 184.773 46.4549C184.877 46.3664 185.001 46.3033 185.133 46.2707C185.977 46.1109 187.415 46.6379 188.193 47.0867C189.2 47.6511 191.039 49.5959 191.039 49.5959Z" fill="black"/>
<path id="Vector_133" d="M200.308 70.0947H185.093V86.9451H200.308V70.0947Z" fill="#249C6B"/>
<path id="Vector_134" opacity="0.1" d="M200.308 70.0947H185.093V86.9451H200.308V70.0947Z" fill="black"/>
<path id="Vector_135" d="M177.231 86.9448H185.089V70.0944H177.231V86.9448Z" fill="#249C6B"/>
<path id="Vector_136" opacity="0.32" d="M177.231 86.9448H185.089V70.0944H177.231V86.9448Z" fill="black"/>
<path id="Vector_137" d="M191.41 73.7361H191.73H191.971L192.111 73.4539L192.304 73.7361L192.566 73.1581L192.814 73.7361H193.528H193.855L193.97 73.3519L194.083 73.7361H194.293V70.0947H191.41V73.7361Z" fill="white"/>
<path id="Vector_138" d="M177.776 85.7821C178.359 84.5853 178.936 83.384 179.507 82.1781L181.207 78.5537L182.907 74.9123C183.465 73.6974 184.016 72.4779 184.563 71.2539C183.98 72.4552 183.405 73.6577 182.836 74.8613L181.136 78.4857L179.436 82.1271C178.876 83.342 178.323 84.5604 177.776 85.7821Z" fill="#249C6B"/>
<path id="Vector_139" d="M177.776 71.2539C178.325 72.4779 178.877 73.6974 179.432 74.9123L181.132 78.5537L182.832 82.1781C183.403 83.3862 183.979 84.5876 184.559 85.7821C184.015 84.5626 183.463 83.3432 182.904 82.1237L181.204 78.4857L179.504 74.8613C178.941 73.6554 178.366 72.453 177.776 71.2539Z" fill="#249C6B"/>
<path id="Vector_140" d="M194.697 59.007C198.41 61.7984 205.611 68.0544 206.257 71.4374C207.083 75.8778 203.303 84.6124 201.688 86.2988C200.6 87.4378 195.806 83.2388 195.517 82.2188C195.228 81.1988 199.124 74.103 199.155 73.2904C199.185 72.4778 194.204 65.042 192.042 61.7304C189.301 57.5654 191.556 56.6406 194.697 59.007Z" fill="#AD6359"/>
<path id="Vector_141" d="M193.593 82.8036C193.933 82.4092 193.729 82.229 192.821 82.4058C191.913 82.5826 188.482 84.048 188.061 82.807C187.639 81.566 192.522 79.5668 194.052 79.39C195.411 79.3004 196.776 79.3232 198.132 79.458C197.265 80.0394 195.286 81.6442 193.593 82.8036Z" fill="#AD6359"/>
<path id="Vector_142" d="M202.12 85.7343C200.583 88.2979 196.126 89.9129 192.8 89.9741C192.436 89.9883 192.077 89.8806 191.78 89.6681C190.291 89.7225 189.818 89.0357 189.818 89.0357C188.414 88.6583 188.03 87.8899 188.03 87.8899C188.03 87.8899 186.279 87.9341 186.075 86.8699C185.847 85.6867 188.35 85.8499 189.781 85.1087C193.065 83.3917 197.261 80.0359 198.148 79.4443L202.12 85.7343Z" fill="#AD6359"/>
<path id="Vector_143" d="M194.473 85.7414C192.496 86.8803 190.307 87.6001 188.04 87.8562C188.034 87.8583 188.029 87.8622 188.025 87.8674C188.021 87.8726 188.02 87.8788 188.02 87.8851C188.02 87.8915 188.021 87.8977 188.025 87.9029C188.029 87.908 188.034 87.9119 188.04 87.914C190.348 87.8112 192.583 87.0748 194.5 85.7856C194.537 85.755 194.52 85.7176 194.473 85.7414Z" fill="#263238"/>
<path id="Vector_144" d="M195.796 87.5705C194.82 87.9921 193.1 88.7197 189.802 88.9985V89.0189C191.898 89.1196 193.98 88.6345 195.816 87.6181C195.874 87.5875 195.861 87.5433 195.796 87.5705Z" fill="#263238"/>
<path id="Vector_145" d="M196.489 88.5699C194.974 89.1455 193.388 89.5115 191.773 89.6579V89.6783C193.943 89.6273 194.721 89.3655 196.533 88.6243C196.581 88.5971 196.554 88.5427 196.489 88.5699Z" fill="#263238"/>
<path id="Vector_146" d="M194.909 67.2623L201.954 64.0221C201.954 64.0221 195.201 58.8133 192.774 57.8409C190.054 56.7461 190.088 58.3781 191.159 60.9519C192.23 63.5257 194.909 67.2623 194.909 67.2623Z" fill="#249C6B"/>
<path id="Vector_147" d="M200.386 63.2399C200.124 63.3147 197.914 64.2905 197.438 64.5115C196.962 64.7325 195.007 65.6233 194.534 65.8953C194.514 65.8953 194.534 65.9395 194.534 65.9293C195.048 65.7559 197.023 64.8617 197.513 64.6441C198.002 64.4265 200.168 63.4167 200.389 63.2841C200.42 63.2399 200.42 63.2195 200.386 63.2399Z" fill="#263238"/>
<path id="Vector_148" d="M195.463 67.0005C195.245 67.0821 194.908 67.2249 194.908 67.2249C194.388 66.2729 193.766 65.3685 193.208 64.4437C192.651 63.5189 192.039 62.5737 191.457 61.6387H191.434C191.733 62.1895 192.029 62.7369 192.331 63.2843L192.182 63.1007C192.005 62.8797 191.821 62.6655 191.655 62.4411C191.655 62.4241 191.61 62.4411 191.624 62.4615C191.771 62.7033 191.932 62.936 192.107 63.1585C192.236 63.3115 192.372 63.4577 192.511 63.6005C192.685 63.9099 192.851 64.2227 193.042 64.5321C193.603 65.4773 194.157 66.5721 194.789 67.4663C194.789 67.4663 195.269 67.1943 195.497 67.0311C195.52 67.0277 195.497 66.9801 195.463 67.0005Z" fill="#263238"/>
<path id="Vector_149" d="M175.827 77.5403L164.24 78.4957L160.351 62.6483L171.938 61.6929L175.827 77.5403Z" fill="#37474F"/>
<path id="Vector_150" d="M169.167 62.8765L163.676 63.3253L163.248 61.5743L168.742 61.1289L169.167 62.8765Z" fill="#A6A6A6"/>
<path id="Vector_151" d="M167.494 61.2305L166.818 61.2849L166.621 60.4791L164.975 60.6117L165.172 61.4209L164.499 61.4753L164.139 60.0065L167.144 59.7617L167.494 61.2305Z" fill="#A6A6A6"/>
<path id="Vector_152" d="M158.654 69.8533C158.672 70.1248 158.776 70.3835 158.953 70.5906C159.129 70.7977 159.368 70.9422 159.633 71.0025C159.633 71.0025 158.688 71.7743 158.953 72.7535C159.089 73.2567 160.014 73.4811 160.014 73.4811C159.81 73.6674 159.66 73.9067 159.583 74.1724C159.505 74.4382 159.503 74.7202 159.576 74.9873C159.807 75.6673 160.701 75.7897 160.701 75.7897C160.701 75.7897 160.29 76.7417 160.749 77.3605C161.68 78.6151 167.708 77.2517 168.137 74.8207C168.337 73.6851 166.882 74.0999 166.882 74.0999C166.882 74.0999 168.83 73.0017 168.582 71.7505C168.334 70.4993 166.474 71.1521 166.474 71.1521C166.474 71.1521 168.354 70.0709 167.963 68.7993C167.572 67.5277 165.811 68.4593 165.811 68.4593C165.811 68.4593 166.947 67.2489 166.427 66.3445C165.566 64.8519 162.979 67.5515 161.585 67.5379L161.038 65.4707C161.038 65.4707 158.539 68.7585 158.654 69.8533Z" fill="#AD6359"/>
<path id="Vector_153" d="M159.99 73.4978C159.966 73.4978 159.99 73.542 159.99 73.542C162.389 73.5671 164.718 72.7325 166.555 71.1892C166.617 71.1348 166.617 71.0192 166.555 71.0804C165.253 72.08 161.972 73.2258 159.99 73.4978Z" fill="#263238"/>
<path id="Vector_154" d="M165.914 68.2857C164.102 69.7783 161.997 70.5365 159.722 71.0057C159.692 71.0057 159.705 71.0499 159.722 71.0533C160.899 71.1247 162.317 70.6759 163.391 70.2305C164.396 69.8373 165.281 69.1879 165.958 68.3469C165.992 68.3163 165.951 68.2551 165.914 68.2857Z" fill="#263238"/>
<path id="Vector_155" d="M185.99 58.1061C186.055 58.447 186.149 58.7815 186.272 59.1057C186.39 59.4282 186.536 59.7399 186.708 60.0373C186.868 60.3291 187.079 60.5904 187.33 60.8091C187.447 60.9051 187.586 60.9716 187.734 61.0029C187.884 61.0063 188.032 60.9737 188.166 60.9077C188.775 60.6122 189.309 60.182 189.727 59.6497C189.839 59.5205 189.944 59.3845 190.067 59.2519C190.189 59.1193 190.271 58.9697 190.369 58.8269C190.468 58.6841 190.563 58.5413 190.658 58.3951C190.754 58.2489 190.839 58.0993 190.934 57.9531C190.674 58.6065 190.331 59.2236 189.914 59.7891C189.502 60.3822 188.941 60.857 188.289 61.1661C188.107 61.2488 187.907 61.2839 187.707 61.2681C187.512 61.2313 187.331 61.142 187.184 61.0097C186.911 60.7664 186.692 60.4688 186.541 60.1359C186.215 59.5063 186.027 58.8142 185.99 58.1061Z" fill="#263238"/>
</g>
</g>
</svg>
